<svg width="39" height="40" viewBox="0 0 39 40" fill="none" xmlns="http://www.w3.org/2000/svg">
<rect x="0.015625" y="0.679688" width="38.6554" height="38.6554" rx="6.23474" fill="black"/>
<mask id="mask0_1_41957" style="mask-type:alpha" maskUnits="userSpaceOnUse" x="8" y="8" width="24" height="24">
<path d="M20.5636 25.5527C20.6166 25.3433 20.6166 25.0815 20.6166 24.8197C20.6166 24.558 20.6166 24.3485 20.5636 24.0867L22.0476 23.0396C22.2067 22.9349 22.2597 22.7255 22.1537 22.5684L20.7226 20.1599C20.6166 20.0029 20.4576 19.9505 20.2986 20.0029L18.6556 20.7882C18.2846 20.4741 17.8605 20.2647 17.3835 20.0552L17.2245 18.2751C17.2245 18.118 17.0655 17.9609 16.9065 17.9609H14.0975C13.9385 17.9609 13.7795 18.118 13.7795 18.2751L13.5674 20.1076C13.0904 20.2647 12.7194 20.5264 12.2954 20.8406L10.6524 20.1076C10.4934 20.0552 10.2814 20.1076 10.2284 20.2647L8.79734 22.6731C8.69133 22.8302 8.74433 23.0396 8.90334 23.1443L10.3874 24.1915C10.3344 24.4009 10.3344 24.6627 10.3344 24.9245C10.3344 25.1862 10.3344 25.3957 10.3874 25.6575L8.90334 26.7046C8.74433 26.8093 8.69133 27.0188 8.79734 27.1758L10.2284 29.5843C10.3344 29.7413 10.4934 29.7937 10.6524 29.7413L12.2954 29.0083C12.6664 29.3225 13.0904 29.5319 13.5674 29.7413L13.7265 31.5215C13.7265 31.6786 13.8855 31.8356 14.0445 31.8356H16.8535C17.0125 31.8356 17.1715 31.6786 17.1715 31.5215L17.3305 29.7413C17.8075 29.5843 18.1786 29.3225 18.6026 29.0083L20.2456 29.7413C20.4046 29.7937 20.6166 29.7413 20.6696 29.5843L22.1006 27.1758C22.2067 27.0188 22.1537 26.8093 21.9946 26.7046L20.5636 25.5527ZM15.4755 27.4376C13.9915 27.4376 12.8254 26.2858 12.8254 24.8197C12.8254 23.3537 13.9915 22.2019 15.4755 22.2019C16.9595 22.2019 18.1256 23.3537 18.1256 24.8197C18.1256 26.2858 16.9595 27.4376 15.4755 27.4376Z" fill="#232323"/>
<path d="M29.4849 15.4007C29.5397 15.1286 29.5397 14.911 29.5397 14.6933C29.5397 14.4757 29.5397 14.258 29.4849 13.986L30.8561 13.0066C31.0207 12.8978 31.0207 12.7345 30.9658 12.5713L29.5946 10.2317C29.4849 10.0684 29.3203 10.014 29.1558 10.1228L27.5652 10.8302C27.1812 10.5581 26.7973 10.3405 26.3585 10.1228L26.1939 8.43612C26.2488 8.27288 26.1391 8.16406 25.9745 8.16406H23.2869C23.1224 8.16406 22.9578 8.27288 22.9578 8.43612L22.7933 10.1228C22.3545 10.2861 21.9706 10.5037 21.5866 10.8302L19.996 10.1228C19.8315 10.0684 19.6669 10.1228 19.5572 10.2317L18.186 12.5713C18.0763 12.7345 18.1311 12.8978 18.2957 13.0066L19.6669 13.986V14.6933C19.6669 14.911 19.6669 15.1286 19.7218 15.4007L18.3505 16.3801C18.186 16.4889 18.186 16.6521 18.2408 16.8153L19.6121 19.155C19.7218 19.3182 19.8863 19.3726 20.0508 19.2638L21.6415 18.5565C22.0254 18.8285 22.4094 19.0462 22.8482 19.2638L23.0127 20.9505C23.0127 21.1138 23.1772 21.2226 23.3418 21.2226H26.0294C26.1939 21.2226 26.3585 21.1138 26.3585 20.9505L26.523 19.2638C26.9618 19.1006 27.3458 18.8829 27.7297 18.5565L29.3203 19.2638C29.4849 19.3182 29.6494 19.2638 29.7591 19.155L31.1304 16.8153C31.2401 16.6521 31.1852 16.4889 31.0207 16.3801L29.4849 15.4007ZM24.6033 17.4139C23.0675 17.4139 21.8609 16.2168 21.8609 14.6933C21.8609 13.1698 23.0675 11.9728 24.6033 11.9728C26.1391 11.9728 27.3458 13.1698 27.3458 14.6933C27.3458 16.2168 26.1391 17.4139 24.6033 17.4139Z" fill="#232323"/>
</mask>
<g mask="url(#mask0_1_41957)">
<rect x="6.07031" y="6.5625" width="26.7195" height="27.2539" fill="url(#paint0_linear_1_41957)"/>
</g>
<defs>
<linearGradient id="paint0_linear_1_41957" x1="19.43" y1="6.5625" x2="19.43" y2="33.8164" gradientUnits="userSpaceOnUse">
<stop stop-color="#FF88C3"/>
<stop offset="1" stop-color="#9B86FE"/>
</linearGradient>
</defs>
</svg>
