<svg width="23" height="24" viewBox="0 0 23 24" fill="none" xmlns="http://www.w3.org/2000/svg">
<path d="M20.1991 12.7003C20.2874 12.3512 20.2874 11.9149 20.2874 11.4786C20.2874 11.0423 20.2874 10.6932 20.1991 10.2569L22.6725 8.51157C22.9376 8.33704 23.0259 7.98798 22.8492 7.72619L20.4641 3.712C20.2874 3.45021 20.0224 3.36294 19.7574 3.45021L17.0189 4.75918C16.4005 4.23559 15.6938 3.88653 14.8988 3.53747L14.6338 0.570465C14.6338 0.30867 14.3688 0.046875 14.1037 0.046875H9.42183C9.15681 0.046875 8.8918 0.30867 8.8918 0.570465L8.53844 3.62474C7.7434 3.88653 7.12503 4.32285 6.41833 4.84644L3.67985 3.62474C3.41483 3.53747 3.06148 3.62474 2.97314 3.88653L0.588011 7.90072C0.411335 8.16251 0.499673 8.51157 0.764687 8.6861L3.23816 10.4314C3.14982 10.7805 3.14982 11.2168 3.14982 11.6531C3.14982 12.0894 3.14982 12.4385 3.23816 12.8748L0.764687 14.6201C0.499673 14.7946 0.411335 15.1437 0.588011 15.4055L2.97314 19.4197C3.14982 19.6815 3.41483 19.7687 3.67985 19.6815L6.41833 18.4598C7.0367 18.9834 7.7434 19.3324 8.53844 19.6815L8.80346 22.6485C8.80346 22.9103 9.06847 23.1721 9.33349 23.1721H14.0154C14.2804 23.1721 14.5454 22.9103 14.5454 22.6485L14.8105 19.6815C15.6055 19.4197 16.2239 18.9834 16.9306 18.4598L19.6691 19.6815C19.9341 19.7687 20.2874 19.6815 20.3758 19.4197L22.7609 15.4055C22.9376 15.1437 22.8492 14.7946 22.5842 14.6201L20.1991 12.7003ZM11.7186 15.8418C9.24515 15.8418 7.30171 13.922 7.30171 11.4786C7.30171 9.03516 9.24515 7.11533 11.7186 7.11533C14.1921 7.11533 16.1355 9.03516 16.1355 11.4786C16.1355 13.922 14.1921 15.8418 11.7186 15.8418Z" fill="url(#paint0_linear_1_41946)"/>
<defs>
<linearGradient id="paint0_linear_1_41946" x1="11.7186" y1="0.046875" x2="11.7186" y2="23.1721" gradientUnits="userSpaceOnUse">
<stop stop-color="#FF88C3"/>
<stop offset="1" stop-color="#9B86FE"/>
</linearGradient>
</defs>
</svg>
