<svg width="375" height="364" viewBox="0 0 375 364" fill="none" xmlns="http://www.w3.org/2000/svg">
<path d="M243.179 171.794C246.779 178 246.779 185.658 243.179 191.864L224.28 224.445C220.702 230.614 214.111 234.41 206.98 234.41L169.02 234.41C161.889 234.41 155.298 230.614 151.72 224.445L132.821 191.864C129.221 185.658 129.221 178 132.821 171.794L151.72 139.213C155.298 133.044 161.889 129.248 169.02 129.248L206.98 129.248C214.111 129.248 220.702 133.044 224.28 139.213L243.179 171.794Z" fill="#0D1117"/>
<path opacity="0.5" d="M243.179 171.794C246.779 178 246.779 185.658 243.179 191.864L224.28 224.445C220.702 230.614 214.111 234.41 206.98 234.41L169.02 234.41C161.889 234.41 155.298 230.614 151.72 224.445L132.821 191.864C129.221 185.658 129.221 178 132.821 171.794L151.72 139.213C155.298 133.044 161.889 129.248 169.02 129.248L206.98 129.248C214.111 129.248 220.702 133.044 224.28 139.213L243.179 171.794Z" fill="url(#paint0_linear_40_1934)"/>
<path d="M183.679 195.223H182.986V197.1H182.701V195.223H182.009V194.977H183.679V195.223Z" fill="white"/>
<path d="M187.274 196.839L187.268 197.073H185.957V194.949H187.268V195.183H186.248V195.891H187.076V196.113H186.248V196.839H187.274Z" fill="white"/>
<path d="M191.15 196.651C191.166 196.651 191.181 196.657 191.193 196.669L191.305 196.792C191.218 196.891 191.113 196.969 190.989 197.026C190.866 197.085 190.714 197.112 190.538 197.112C190.385 197.112 190.244 197.086 190.117 197.032C189.993 196.98 189.885 196.906 189.796 196.811C189.709 196.717 189.641 196.604 189.591 196.472C189.545 196.337 189.523 196.189 189.523 196.029C189.523 195.869 189.548 195.724 189.598 195.592C189.647 195.456 189.717 195.342 189.808 195.247C189.902 195.148 190.014 195.075 190.142 195.025C190.269 194.973 190.409 194.945 190.562 194.945C190.714 194.945 190.849 194.97 190.965 195.019C191.084 195.065 191.187 195.128 191.274 195.21L191.181 195.345C191.172 195.355 191.164 195.362 191.156 195.37C191.147 195.375 191.135 195.376 191.119 195.376C191.097 195.376 191.076 195.369 191.051 195.352C191.026 195.332 190.992 195.309 190.952 195.284C190.91 195.259 190.856 195.239 190.791 195.222C190.729 195.202 190.652 195.192 190.562 195.192C190.451 195.192 190.349 195.21 190.259 195.247C190.168 195.284 190.089 195.339 190.024 195.413C189.958 195.487 189.907 195.576 189.87 195.678C189.833 195.781 189.814 195.898 189.814 196.029C189.814 196.161 189.833 196.28 189.87 196.386C189.91 196.489 189.964 196.575 190.031 196.644C190.096 196.715 190.173 196.771 190.259 196.811C190.349 196.848 190.448 196.866 190.556 196.866C190.618 196.866 190.674 196.863 190.723 196.854C190.776 196.846 190.824 196.834 190.866 196.817C190.91 196.801 190.952 196.783 190.989 196.761C191.026 196.737 191.063 196.706 191.101 196.669C191.116 196.657 191.133 196.651 191.15 196.651Z" fill="white"/>
<path d="M195.308 194.977V197.1H195.023V196.134H193.873V197.1H193.582V194.977H193.873V195.925H195.023V194.977H195.308Z" fill="white"/>
<path d="M199.559 194.949V197.073H199.416C199.392 197.073 199.37 197.07 199.354 197.061C199.342 197.053 199.327 197.041 199.311 197.024L198.08 195.423C198.08 195.448 198.08 195.472 198.08 195.497C198.083 195.519 198.087 195.539 198.087 195.559V197.073H197.833V194.949H197.981C197.994 194.949 198.003 194.952 198.012 194.955C198.025 194.955 198.032 194.958 198.037 194.962C198.045 194.966 198.051 194.972 198.056 194.98C198.063 194.985 198.071 194.991 198.08 194.998L199.317 196.599C199.313 196.574 199.308 196.55 199.305 196.525C199.305 196.501 199.305 196.476 199.305 196.451V194.949H199.559Z" fill="white"/>
<path d="M204.02 196.029C204.02 196.189 203.995 196.335 203.945 196.466C203.896 196.598 203.823 196.712 203.729 196.811C203.638 196.906 203.526 196.98 203.395 197.032C203.267 197.086 203.124 197.112 202.968 197.112C202.81 197.112 202.668 197.086 202.541 197.032C202.413 196.98 202.302 196.906 202.207 196.811C202.116 196.712 202.047 196.598 201.997 196.466C201.948 196.335 201.923 196.189 201.923 196.029C201.923 195.869 201.948 195.724 201.997 195.592C202.047 195.456 202.116 195.342 202.207 195.247C202.302 195.148 202.413 195.075 202.541 195.025C202.668 194.973 202.81 194.945 202.968 194.945C203.124 194.945 203.267 194.973 203.395 195.025C203.526 195.075 203.638 195.148 203.729 195.247C203.823 195.342 203.896 195.456 203.945 195.592C203.995 195.724 204.02 195.869 204.02 196.029ZM203.729 196.029C203.729 195.898 203.71 195.781 203.673 195.678C203.636 195.576 203.583 195.49 203.519 195.419C203.457 195.345 203.378 195.29 203.284 195.253C203.188 195.213 203.083 195.192 202.968 195.192C202.857 195.192 202.753 195.213 202.659 195.253C202.568 195.29 202.489 195.345 202.424 195.419C202.357 195.49 202.306 195.576 202.269 195.678C202.232 195.781 202.214 195.898 202.214 196.029C202.214 196.161 202.232 196.278 202.269 196.38C202.306 196.483 202.357 196.571 202.424 196.644C202.489 196.715 202.568 196.768 202.659 196.804C202.753 196.841 202.857 196.86 202.968 196.86C203.083 196.86 203.188 196.841 203.284 196.804C203.378 196.768 203.457 196.715 203.519 196.644C203.583 196.571 203.636 196.483 203.673 196.38C203.71 196.278 203.729 196.161 203.729 196.029Z" fill="white"/>
<path d="M207.623 196.833V197.073H206.411V194.949H206.696V196.833H207.623Z" fill="white"/>
<path d="M211.873 196.029C211.873 196.189 211.848 196.335 211.799 196.466C211.749 196.598 211.677 196.712 211.582 196.811C211.491 196.906 211.38 196.98 211.248 197.032C211.12 197.086 210.978 197.112 210.822 197.112C210.664 197.112 210.522 197.086 210.395 197.032C210.267 196.98 210.155 196.906 210.061 196.811C209.97 196.712 209.9 196.598 209.851 196.466C209.801 196.335 209.776 196.189 209.776 196.029C209.776 195.869 209.801 195.724 209.851 195.592C209.9 195.456 209.97 195.342 210.061 195.247C210.155 195.148 210.267 195.075 210.395 195.025C210.522 194.973 210.664 194.945 210.822 194.945C210.978 194.945 211.12 194.973 211.248 195.025C211.38 195.075 211.491 195.148 211.582 195.247C211.677 195.342 211.749 195.456 211.799 195.592C211.848 195.724 211.873 195.869 211.873 196.029ZM211.582 196.029C211.582 195.898 211.564 195.781 211.527 195.678C211.49 195.576 211.437 195.49 211.372 195.419C211.31 195.345 211.231 195.29 211.137 195.253C211.041 195.213 210.936 195.192 210.822 195.192C210.71 195.192 210.607 195.213 210.512 195.253C210.421 195.29 210.342 195.345 210.277 195.419C210.211 195.49 210.16 195.576 210.123 195.678C210.086 195.781 210.067 195.898 210.067 196.029C210.067 196.161 210.086 196.278 210.123 196.38C210.16 196.483 210.211 196.571 210.277 196.644C210.342 196.715 210.421 196.768 210.512 196.804C210.607 196.841 210.71 196.86 210.822 196.86C210.936 196.86 211.041 196.841 211.137 196.804C211.231 196.768 211.31 196.715 211.372 196.644C211.437 196.571 211.49 196.483 211.527 196.38C211.564 196.278 211.582 196.161 211.582 196.029Z" fill="white"/>
<path d="M215.969 196.066V196.884C215.861 196.958 215.746 197.017 215.623 197.057C215.502 197.094 215.371 197.112 215.227 197.112C215.054 197.112 214.896 197.086 214.757 197.032C214.621 196.98 214.503 196.906 214.404 196.811C214.308 196.717 214.234 196.604 214.182 196.472C214.132 196.337 214.107 196.189 214.107 196.029C214.107 195.866 214.132 195.718 214.182 195.586C214.231 195.45 214.302 195.336 214.398 195.241C214.492 195.147 214.605 195.075 214.738 195.025C214.874 194.973 215.026 194.945 215.196 194.945C215.278 194.945 215.354 194.951 215.425 194.964C215.499 194.976 215.567 194.995 215.629 195.019C215.691 195.041 215.748 195.067 215.802 195.099C215.855 195.133 215.904 195.17 215.951 195.21L215.87 195.339C215.853 195.361 215.835 195.375 215.814 195.382C215.797 195.387 215.777 195.381 215.753 195.364C215.728 195.352 215.698 195.336 215.666 195.315C215.637 195.295 215.6 195.276 215.555 195.259C215.513 195.239 215.462 195.222 215.4 195.21C215.338 195.198 215.266 195.192 215.184 195.192C215.063 195.192 214.955 195.213 214.856 195.253C214.76 195.29 214.678 195.345 214.608 195.419C214.542 195.49 214.491 195.578 214.454 195.684C214.417 195.787 214.398 195.903 214.398 196.029C214.398 196.161 214.417 196.28 214.454 196.386C214.494 196.489 214.55 196.577 214.621 196.651C214.69 196.724 214.775 196.783 214.874 196.823C214.976 196.86 215.092 196.878 215.221 196.878C215.32 196.878 215.406 196.869 215.48 196.848C215.558 196.823 215.635 196.792 215.709 196.755V196.287H215.375C215.358 196.287 215.344 196.284 215.332 196.275C215.32 196.263 215.313 196.249 215.313 196.232V196.066H215.969Z" fill="white"/>
<path d="M218.681 197.1H218.391V194.977H218.681V197.1Z" fill="white"/>
<path d="M222.469 196.839L222.463 197.073H221.151V194.949H222.463V195.183H221.442V195.891H222.271V196.113H221.442V196.839H222.469Z" fill="white"/>
<path d="M225.924 195.296C225.915 195.313 225.905 195.325 225.893 195.333C225.884 195.338 225.871 195.339 225.856 195.339C225.839 195.339 225.819 195.332 225.794 195.315C225.772 195.299 225.746 195.281 225.714 195.259C225.68 195.239 225.639 195.221 225.59 195.204C225.54 195.188 225.482 195.179 225.417 195.179C225.35 195.179 225.293 195.19 225.243 195.21C225.194 195.227 225.152 195.25 225.12 195.278C225.086 195.307 225.061 195.342 225.046 195.382C225.029 195.424 225.021 195.467 225.021 195.512C225.021 195.57 225.035 195.619 225.064 195.659C225.092 195.696 225.132 195.73 225.182 195.758C225.231 195.787 225.284 195.812 225.342 195.832C225.404 195.853 225.466 195.873 225.528 195.893C225.593 195.915 225.658 195.94 225.72 195.967C225.782 195.992 225.834 196.027 225.881 196.072C225.93 196.113 225.969 196.164 225.998 196.226C226.026 196.284 226.041 196.355 226.041 196.441C226.041 196.537 226.024 196.624 225.992 196.706C225.962 196.789 225.918 196.86 225.856 196.921C225.794 196.98 225.717 197.026 225.627 197.063C225.54 197.095 225.441 197.112 225.33 197.112C225.189 197.112 225.061 197.088 224.947 197.038C224.835 196.989 224.739 196.921 224.662 196.835L224.743 196.7C224.75 196.687 224.761 196.678 224.773 196.669C224.786 196.661 224.798 196.657 224.811 196.657C224.823 196.657 224.837 196.663 224.854 196.675C224.869 196.687 224.888 196.703 224.91 196.718C224.93 196.731 224.953 196.747 224.978 196.768C225.005 196.784 225.036 196.801 225.07 196.817C225.107 196.834 225.146 196.848 225.188 196.86C225.233 196.869 225.282 196.872 225.336 196.872C225.406 196.872 225.468 196.864 225.522 196.848C225.574 196.828 225.621 196.801 225.658 196.768C225.695 196.731 225.723 196.691 225.744 196.644C225.765 196.595 225.775 196.543 225.775 196.484C225.775 196.42 225.758 196.367 225.726 196.33C225.697 196.29 225.658 196.255 225.608 196.226C225.562 196.198 225.509 196.175 225.448 196.158C225.386 196.138 225.324 196.118 225.262 196.096C225.2 196.076 225.138 196.053 225.076 196.029C225.015 196.001 224.959 195.966 224.91 195.924C224.863 195.879 224.826 195.826 224.798 195.764C224.769 195.699 224.755 195.619 224.755 195.524C224.755 195.45 224.769 195.379 224.798 195.309C224.826 195.239 224.868 195.178 224.922 195.124C224.979 195.067 225.049 195.024 225.132 194.995C225.214 194.962 225.307 194.945 225.41 194.945C225.53 194.945 225.639 194.964 225.738 195.001C225.837 195.038 225.924 195.092 225.998 195.161L225.924 195.296Z" fill="white"/>
<path d="M174.073 189.551C172.645 188.004 171.933 186.107 171.933 183.857C171.933 181.608 172.645 179.705 174.073 178.144C175.498 176.585 177.31 175.805 179.509 175.805C181.528 175.805 183.192 176.437 184.5 177.701V176.254H189.764V191.429H184.562V189.711H184.5C183.192 191.152 181.528 191.872 179.509 191.872C177.31 191.872 175.498 191.099 174.073 189.551ZM178.544 181.284C177.859 181.953 177.518 182.81 177.518 183.857C177.518 184.9 177.842 185.751 178.495 186.412C179.15 187.073 180.013 187.403 181.086 187.403C182.116 187.403 182.963 187.069 183.628 186.399C184.292 185.731 184.624 184.883 184.624 183.857C184.624 182.81 184.281 181.953 183.597 181.284C182.912 180.611 182.076 180.274 181.086 180.274C180.075 180.274 179.228 180.611 178.544 181.284Z" fill="white"/>
<path d="M198.94 180.095C197.95 180.095 197.098 180.462 196.385 181.191C195.671 181.922 195.315 182.801 195.315 183.826C195.315 184.873 195.671 185.762 196.385 186.492C197.098 187.218 197.95 187.581 198.94 187.581C199.418 187.581 199.869 187.524 200.294 187.409C200.718 187.29 201.03 187.172 201.228 187.052L201.5 186.873L203.282 190.511C203.141 190.61 202.948 190.733 202.7 190.881C202.453 191.029 201.887 191.23 201.005 191.484C200.127 191.743 199.181 191.872 198.167 191.872C195.928 191.872 193.961 191.089 192.266 189.52C190.575 187.954 189.73 186.073 189.73 183.881C189.73 181.674 190.575 179.775 192.266 178.187C193.961 176.599 195.928 175.805 198.167 175.805C199.181 175.805 200.112 175.925 200.962 176.162C201.816 176.4 202.419 176.636 202.774 176.87L203.282 177.227L201.5 180.81C200.845 180.334 199.991 180.095 198.94 180.095Z" fill="white"/>
<path d="M218.307 184.565H207.249C207.249 185.633 207.595 186.422 208.288 186.935C208.98 187.444 209.732 187.698 210.545 187.698C211.399 187.698 212.073 187.586 212.568 187.36C213.062 187.135 213.627 186.687 214.262 186.018L218.066 187.907C216.483 190.552 213.848 191.872 210.162 191.872C207.861 191.872 205.888 191.089 204.243 189.52C202.601 187.954 201.781 186.065 201.781 183.857C201.781 181.645 202.601 179.751 204.243 178.175C205.888 176.596 207.861 175.805 210.162 175.805C212.577 175.805 214.542 176.5 216.056 177.892C217.573 179.283 218.332 181.271 218.332 183.857C218.332 184.211 218.323 184.446 218.307 184.565ZM207.397 181.665H213.192C213.072 180.877 212.759 180.272 212.252 179.849C211.748 179.423 211.102 179.209 210.31 179.209C209.435 179.209 208.741 179.437 208.226 179.892C207.709 180.345 207.434 180.936 207.397 181.665Z" fill="white"/>
<path d="M234.697 172.742C234.697 175.204 233.647 177.048 231.549 178.27C232.856 178.866 233.901 179.715 234.685 180.819C235.467 181.924 235.86 183.273 235.86 184.869C235.86 186.861 234.932 188.526 233.077 189.868C231.224 191.21 229.1 191.881 226.7 191.881C224.242 191.881 222.096 191.216 220.262 189.887C218.431 188.554 217.516 186.881 217.516 184.869C217.516 181.776 218.941 179.575 221.796 178.27C219.634 177.048 218.555 175.204 218.555 172.742C218.555 171.006 219.38 169.547 221.035 168.365C222.692 167.18 224.569 166.586 226.669 166.586C228.829 166.586 230.708 167.174 232.304 168.347C233.899 169.521 234.697 170.986 234.697 172.742ZM229.409 173.536C229.409 172.748 229.156 172.094 228.648 171.572C228.144 171.048 227.495 170.784 226.7 170.784C225.908 170.784 225.248 171.048 224.721 171.572C224.197 172.094 223.936 172.751 223.936 173.542C223.936 174.33 224.203 174.981 224.74 175.494C225.275 176.008 225.929 176.263 226.7 176.263C227.495 176.263 228.144 176.011 228.648 175.506C229.156 175.001 229.409 174.346 229.409 173.536ZM224.455 181.748C223.874 182.332 223.583 183.076 223.583 183.983C223.583 184.891 223.869 185.636 224.443 186.218C225.015 186.801 225.757 187.092 226.669 187.092C227.563 187.092 228.308 186.801 228.902 186.218C229.496 185.636 229.793 184.891 229.793 183.983C229.793 183.076 229.49 182.332 228.883 181.748C228.28 181.167 227.543 180.874 226.669 180.874C225.779 180.874 225.04 181.167 224.455 181.748Z" fill="#B9B9B9"/>
<path d="M147.881 187.789C146.774 189.848 148.272 192.342 150.62 192.342H142.909C140.563 192.342 139.062 189.85 140.169 187.789L140.593 186.999L149.764 169.951L150.509 168.563C151.679 166.385 154.817 166.385 155.986 168.563L157.102 170.64L153.619 177.12L148.305 186.999L147.881 187.789Z" fill="white"/>
<path d="M163.58 192.343H157.911C155.565 192.343 154.064 189.851 155.171 187.791L156.489 185.34L160.743 177.43L166.315 187.791C167.426 189.851 165.926 192.343 163.58 192.343Z" fill="white"/>
<path d="M160.758 177.427V177.432L156.501 185.338C156.869 184.644 156.976 183.812 156.724 182.998C156.71 182.959 156.698 182.918 156.684 182.879C156.631 182.733 156.564 182.588 156.49 182.445L154.109 178.02L153.625 177.118L157.11 170.637L157.594 171.538L160.241 176.457L160.758 177.427Z" fill="#B9B9B9"/>
<path d="M163.58 192.343H157.911C155.565 192.343 154.064 189.851 155.171 187.791L156.489 185.34L160.743 177.43L166.315 187.791C167.426 189.851 165.926 192.343 163.58 192.343Z" fill="white"/>
<path d="M163.58 192.343H157.911C155.565 192.343 154.064 189.851 155.171 187.791L156.489 185.34L160.743 177.43L166.315 187.791C167.426 189.851 165.926 192.343 163.58 192.343Z" fill="white"/>
<g opacity="0.1">
<mask id="mask0_40_1934" style="mask-type:luminance" maskUnits="userSpaceOnUse" x="153" y="170" width="5" height="9">
<path d="M157.586 170.648H153.619V178.031H157.586V170.648Z" fill="white"/>
</mask>
<g mask="url(#mask0_40_1934)">
<path d="M157.584 171.543L154.099 178.027L153.617 177.126L157.1 170.645L157.584 171.543Z" fill="white"/>
</g>
</g>
<g opacity="0.1">
<mask id="mask1_40_1934" style="mask-type:luminance" maskUnits="userSpaceOnUse" x="156" y="176" width="5" height="10">
<path d="M160.736 176.477H156.479V185.355H160.736V176.477Z" fill="white"/>
</mask>
<g mask="url(#mask1_40_1934)">
<path d="M160.737 177.441V177.445L156.48 185.352C156.849 184.658 156.955 183.826 156.703 183.012L160.218 176.473L160.737 177.441Z" fill="white"/>
</g>
</g>
<path d="M281.354 185.17C281.549 184.975 281.549 184.658 281.354 184.463L278.172 181.281C277.976 181.086 277.66 181.086 277.464 181.281C277.269 181.476 277.269 181.793 277.464 181.988L280.293 184.816L277.464 187.645C277.269 187.84 277.269 188.157 277.464 188.352C277.66 188.547 277.976 188.547 278.172 188.352L281.354 185.17ZM281 184.316L278.961 184.316L278.961 185.316L281 185.316L281 184.316ZM274.883 184.316L270.805 184.316L270.805 185.316L274.883 185.316L274.883 184.316ZM266.727 184.316L264.688 184.316L264.687 185.316L266.727 185.316L266.727 184.316ZM264.688 184.316L261.516 184.316L261.516 185.316L264.687 185.316L264.688 184.316ZM255.172 184.316L252 184.316L252 185.316L255.172 185.316L255.172 184.316Z" fill="#0D1117"/>
<path d="M94.6464 185.17C94.4512 184.975 94.4512 184.658 94.6464 184.463L97.8284 181.281C98.0237 181.086 98.3403 181.086 98.5355 181.281C98.7308 181.476 98.7308 181.793 98.5355 181.988L95.7071 184.816L98.5355 187.645C98.7308 187.84 98.7308 188.157 98.5355 188.352C98.3403 188.547 98.0237 188.547 97.8284 188.352L94.6464 185.17ZM95 184.316L97.0391 184.316L97.0391 185.316L95 185.316L95 184.316ZM101.117 184.316L105.195 184.316L105.195 185.316L101.117 185.316L101.117 184.316ZM109.273 184.316L111.312 184.316L111.313 185.316L109.273 185.316L109.273 184.316ZM111.312 184.316L114.484 184.316L114.484 185.316L111.313 185.316L111.312 184.316ZM120.828 184.316L124 184.316L124 185.316L120.828 185.316L120.828 184.316Z" fill="#0D1117"/>
<path d="M260.854 88.127C261.049 87.9317 261.049 87.6151 260.854 87.4199L257.672 84.2379C257.476 84.0426 257.16 84.0426 256.964 84.2379C256.769 84.4332 256.769 84.7497 256.964 84.945L259.793 87.7734L256.964 90.6019C256.769 90.7971 256.769 91.1137 256.964 91.309C257.16 91.5042 257.476 91.5042 257.672 91.309L260.854 88.127ZM214 87.7734V87.2734H213.5V87.7734H214ZM214.5 119.127V116.514H213.5V119.127H214.5ZM214.5 111.288V106.063H213.5V111.288H214.5ZM214.5 100.837V95.6117H213.5V100.837H214.5ZM214.5 90.3862V87.7734H213.5V90.3862H214.5ZM214 88.2734H216.325V87.2734H214V88.2734ZM220.975 88.2734H225.625V87.2734H220.975V88.2734ZM230.275 88.2734H234.925V87.2734H230.275V88.2734ZM239.575 88.2734H244.225V87.2734H239.575V88.2734ZM248.875 88.2734H253.525V87.2734H248.875V88.2734ZM258.175 88.2734H260.5V87.2734H258.175V88.2734Z" fill="#0D1117"/>
<path d="M188.354 47.1074C188.158 46.9121 187.842 46.9121 187.646 47.1074L184.464 50.2894C184.269 50.4846 184.269 50.8012 184.464 50.9965C184.66 51.1917 184.976 51.1917 185.172 50.9965L188 48.168L190.828 50.9965C191.024 51.1917 191.34 51.1917 191.536 50.9965C191.731 50.8012 191.731 50.4846 191.536 50.2894L188.354 47.1074ZM187.5 47.4609V49.9804H188.5V47.4609H187.5ZM187.5 55.0193V60.0582H188.5V55.0193H187.5ZM187.5 65.0971V70.136H188.5V65.0971H187.5ZM187.5 75.1749V80.2138H188.5V75.1749H187.5ZM187.5 85.2527V87.7722H188.5V85.2527H187.5ZM187.5 87.7722V90.385H188.5V87.7722H187.5ZM187.5 95.6105V100.836H188.5V95.6105H187.5ZM187.5 106.062V111.287H188.5V106.062H187.5ZM187.5 116.513V119.125H188.5V116.513H187.5Z" fill="#0D1117"/>
<path d="M113.646 88.127C113.451 87.9317 113.451 87.6151 113.646 87.4199L116.828 84.2379C117.024 84.0426 117.34 84.0426 117.536 84.2379C117.731 84.4332 117.731 84.7497 117.536 84.945L114.707 87.7734L117.536 90.6019C117.731 90.7971 117.731 91.1137 117.536 91.309C117.34 91.5042 117.024 91.5042 116.828 91.309L113.646 88.127ZM160.5 87.7734V87.2734H161V87.7734H160.5ZM160 119.127V116.514H161V119.127H160ZM160 111.288V106.063H161V111.288H160ZM160 100.837V95.6117H161V100.837H160ZM160 90.3862V87.7734H161V90.3862H160ZM160.5 88.2734H158.175V87.2734H160.5V88.2734ZM153.525 88.2734H148.875V87.2734H153.525V88.2734ZM144.225 88.2734H139.575V87.2734H144.225V88.2734ZM134.925 88.2734H130.275V87.2734H134.925V88.2734ZM125.625 88.2734H120.975V87.2734H125.625V88.2734ZM116.325 88.2734H114V87.2734H116.325V88.2734Z" fill="#0D1117"/>
<path d="M188.354 316.557C188.158 316.752 187.842 316.752 187.646 316.557L184.464 313.375C184.269 313.179 184.269 312.863 184.464 312.668C184.66 312.472 184.976 312.472 185.172 312.668L188 315.496L190.828 312.668C191.024 312.472 191.34 312.472 191.536 312.668C191.731 312.863 191.731 313.179 191.536 313.375L188.354 316.557ZM187.5 316.203V313.684H188.5V316.203H187.5ZM187.5 308.645V303.606H188.5V308.645H187.5ZM187.5 298.567V293.528H188.5V298.567H187.5ZM187.5 288.489V283.45H188.5V288.489H187.5ZM187.5 278.411V275.892H188.5V278.411H187.5ZM187.5 275.892V273.279H188.5V275.892H187.5ZM187.5 268.054V262.828H188.5V268.054H187.5ZM187.5 257.603V252.377H188.5V257.603H187.5ZM187.5 247.151V244.539H188.5V247.151H187.5Z" fill="#0D1117"/>
<path d="M260.854 275.537C261.049 275.732 261.049 276.049 260.854 276.244L257.672 279.426C257.476 279.621 257.16 279.621 256.964 279.426C256.769 279.231 256.769 278.914 256.964 278.719L259.793 275.891L256.964 273.062C256.769 272.867 256.769 272.55 256.964 272.355C257.16 272.16 257.476 272.16 257.672 272.355L260.854 275.537ZM214 275.891V276.391H213.5V275.891H214ZM214.5 244.537V247.15H213.5V244.537H214.5ZM214.5 252.376V257.601H213.5V252.376H214.5ZM214.5 262.827V268.052H213.5V262.827H214.5ZM214.5 273.278V275.891H213.5V273.278H214.5ZM214 275.391H216.325V276.391H214V275.391ZM220.975 275.391H225.625V276.391H220.975V275.391ZM230.275 275.391H234.925V276.391H230.275V275.391ZM239.575 275.391H244.225V276.391H239.575V275.391ZM248.875 275.391H253.525V276.391H248.875V275.391ZM258.175 275.391H260.5V276.391H258.175V275.391Z" fill="#0D1117"/>
<path d="M113.646 275.537C113.451 275.732 113.451 276.049 113.646 276.244L116.828 279.426C117.024 279.621 117.34 279.621 117.536 279.426C117.731 279.231 117.731 278.914 117.536 278.719L114.707 275.891L117.536 273.062C117.731 272.867 117.731 272.55 117.536 272.355C117.34 272.16 117.024 272.16 116.828 272.355L113.646 275.537ZM160.5 275.891V276.391H161V275.891H160.5ZM160 244.537V247.15H161V244.537H160ZM160 252.376V257.601H161V252.376H160ZM160 262.827V268.052H161V262.827H160ZM160 273.278V275.891H161V273.278H160ZM160.5 275.391H158.175V276.391H160.5V275.391ZM153.525 275.391H148.875V276.391H153.525V275.391ZM144.225 275.391H139.575V276.391H144.225V275.391ZM134.925 275.391H130.275V276.391H134.925V275.391ZM125.625 275.391H120.975V276.391H125.625V275.391ZM116.325 275.391H114V276.391H116.325V275.391Z" fill="#0D1117"/>
<g filter="url(#filter0_d_40_1934)">
<rect width="80" height="32.9929" rx="10" transform="matrix(-1 0 0 1 104 257.477)" fill="#0D1117"/>
</g>
<path d="M50.1259 278.482C49.4493 277.749 49.1113 276.849 49.1113 275.782C49.1113 274.716 49.4493 273.814 50.1259 273.074C50.8018 272.335 51.661 271.965 52.7034 271.965C53.6608 271.965 54.4496 272.265 55.0698 272.864V272.178H57.5652V279.372H55.0991V278.558H55.0698C54.4496 279.241 53.6608 279.582 52.7034 279.582C51.661 279.582 50.8018 279.216 50.1259 278.482ZM52.246 274.562C51.9212 274.88 51.7592 275.286 51.7592 275.782C51.7592 276.277 51.9131 276.681 52.2225 276.994C52.5333 277.307 52.9424 277.464 53.4511 277.464C53.9394 277.464 54.3411 277.305 54.6563 276.988C54.9708 276.671 55.1284 276.269 55.1284 275.782C55.1284 275.286 54.9657 274.88 54.6417 274.562C54.3169 274.244 53.9203 274.084 53.4511 274.084C52.9717 274.084 52.57 274.244 52.246 274.562Z" fill="white"/>
<path d="M61.9102 273.999C61.441 273.999 61.0371 274.173 60.6991 274.519C60.3604 274.865 60.1918 275.282 60.1918 275.768C60.1918 276.264 60.3604 276.686 60.6991 277.032C61.0371 277.376 61.441 277.548 61.9102 277.548C62.1367 277.548 62.3507 277.521 62.5523 277.466C62.7532 277.41 62.9013 277.354 62.9951 277.297L63.1241 277.213L63.9686 278.937C63.9019 278.984 63.8103 279.043 63.693 279.113C63.5757 279.183 63.3074 279.278 62.8895 279.399C62.4732 279.521 62.0245 279.582 61.5436 279.582C60.4821 279.582 59.5496 279.211 58.7462 278.468C57.9442 277.725 57.5439 276.833 57.5439 275.794C57.5439 274.748 57.9442 273.847 58.7462 273.094C59.5496 272.341 60.4821 271.965 61.5436 271.965C62.0245 271.965 62.4658 272.022 62.869 272.134C63.2737 272.247 63.5596 272.359 63.7282 272.47L63.9686 272.639L63.1241 274.338C62.8133 274.112 62.4086 273.999 61.9102 273.999Z" fill="white"/>
<path d="M71.0929 276.118H65.85C65.85 276.624 66.0142 276.999 66.3426 277.242C66.671 277.483 67.0273 277.604 67.4129 277.604C67.8175 277.604 68.1372 277.55 68.3718 277.443C68.6063 277.337 68.8739 277.124 69.1752 276.807L70.9786 277.703C70.2279 278.956 68.9787 279.582 67.2311 279.582C66.1403 279.582 65.2049 279.211 64.4249 278.468C63.6463 277.725 63.2578 276.829 63.2578 275.782C63.2578 274.734 63.6463 273.836 64.4249 273.089C65.2049 272.34 66.1403 271.965 67.2311 271.965C68.3762 271.965 69.3079 272.295 70.0256 272.954C70.7447 273.614 71.1047 274.557 71.1047 275.782C71.1047 275.95 71.1003 276.062 71.0929 276.118ZM65.9203 274.743H68.6679C68.6107 274.37 68.4627 274.083 68.2222 273.882C67.9832 273.68 67.6768 273.579 67.3015 273.579C66.8865 273.579 66.5574 273.687 66.3133 273.903C66.0684 274.117 65.9379 274.398 65.9203 274.743Z" fill="white"/>
<path d="M72.2314 278.481C71.5547 277.748 71.2168 276.848 71.2168 275.781C71.2168 274.715 71.5547 273.813 72.2314 273.073C72.9073 272.334 73.7664 271.964 74.8089 271.964C75.7663 271.964 76.5551 272.264 77.1752 272.863V267.309H79.6706V279.371H77.2046V278.557H77.1752C76.5551 279.24 75.7663 279.581 74.8089 279.581C73.7664 279.581 72.9073 279.215 72.2314 278.481ZM74.3514 274.561C74.0267 274.879 73.8647 275.285 73.8647 275.781C73.8647 276.276 74.0186 276.68 74.328 276.993C74.6388 277.306 75.0479 277.463 75.5566 277.463C76.0448 277.463 76.4466 277.304 76.7618 276.987C77.0763 276.67 77.2339 276.268 77.2339 275.781C77.2339 275.285 77.0711 274.879 76.7471 274.561C76.4224 274.243 76.0258 274.083 75.5566 274.083C75.0772 274.083 74.6755 274.243 74.3514 274.561Z" fill="#787878"/>
<path d="M83.306 271.965C83.7202 271.965 84.1285 272.013 84.5317 272.108C84.9364 272.201 85.2369 272.295 85.4349 272.388L85.731 272.528L84.9129 274.154C84.3499 273.855 83.814 273.704 83.306 273.704C83.0245 273.704 82.8251 273.736 82.7078 273.798C82.5905 273.858 82.5319 273.972 82.5319 274.139C82.5319 274.179 82.5355 274.217 82.5436 274.253C82.5531 274.29 82.5715 274.325 82.5993 274.358C82.6286 274.392 82.655 274.419 82.6785 274.443C82.702 274.466 82.7415 274.492 82.7987 274.522C82.8552 274.549 82.8999 274.57 82.9336 274.583C82.9666 274.597 83.0201 274.618 83.0949 274.647C83.1689 274.675 83.2246 274.695 83.262 274.708C83.3009 274.722 83.3647 274.743 83.4526 274.773C83.5421 274.8 83.611 274.819 83.6579 274.828C83.9489 274.912 84.2018 275.005 84.4173 275.108C84.6343 275.212 84.8616 275.352 85.1006 275.529C85.341 275.706 85.5265 275.931 85.6577 276.203C85.7904 276.473 85.8571 276.782 85.8571 277.128C85.8571 278.765 84.715 279.582 82.4322 279.582C81.9161 279.582 81.4249 279.504 80.9602 279.346C80.4947 279.187 80.1582 279.027 79.9514 278.867L79.6436 278.614L80.6581 276.918C80.7322 276.984 80.8297 277.062 80.9514 277.151C81.0745 277.239 81.2952 277.361 81.6141 277.516C81.9344 277.67 82.2123 277.747 82.4468 277.747C82.9629 277.747 83.221 277.574 83.221 277.227C83.221 277.068 83.155 276.944 83.0245 276.856C82.8933 276.767 82.6704 276.666 82.3559 276.553C82.0407 276.441 81.7937 276.337 81.6141 276.244C81.164 276.01 80.8077 275.747 80.5438 275.453C80.2813 275.157 80.1508 274.766 80.1508 274.279C80.1508 273.552 80.4338 272.985 81.0012 272.578C81.5701 272.169 82.3383 271.965 83.306 271.965Z" fill="#787878"/>
<path d="M86.5851 278.517C85.7831 277.807 85.3828 276.896 85.3828 275.782C85.3828 274.67 85.7999 273.755 86.6349 273.039C87.4713 272.323 88.5057 271.965 89.7373 271.965C90.9491 271.965 91.9702 272.326 92.8015 273.048C93.6321 273.768 94.0478 274.679 94.0478 275.782C94.0478 276.886 93.6409 277.796 92.8279 278.511C92.0164 279.226 90.9865 279.582 89.7373 279.582C88.439 279.582 87.3885 279.228 86.5851 278.517ZM88.5174 274.562C88.1927 274.88 88.0307 275.286 88.0307 275.782C88.0307 276.277 88.1846 276.681 88.494 276.994C88.8048 277.307 89.2139 277.464 89.7226 277.464C90.2109 277.464 90.6126 277.305 90.9278 276.988C91.2423 276.671 91.3999 276.269 91.3999 275.782C91.3999 275.286 91.2372 274.88 90.9131 274.562C90.5884 274.244 90.1918 274.084 89.7226 274.084C89.2432 274.084 88.8415 274.244 88.5174 274.562Z" fill="#787878"/>
<path d="M38.0686 278.181C37.495 279.248 38.2714 280.54 39.4883 280.54H35.492C34.2764 280.54 33.4987 279.249 34.0724 278.181L34.292 277.771L39.0443 268.937L39.4307 268.218C40.0367 267.089 41.6629 267.089 42.2689 268.218L42.8473 269.294L41.0424 272.652L38.2882 277.771L38.0686 278.181Z" fill="white"/>
<path d="M46.2033 280.541H43.2655C42.0498 280.541 41.2722 279.25 41.8458 278.182L42.5286 276.912L44.7332 272.812L47.6206 278.182C48.1966 279.25 47.419 280.541 46.2033 280.541Z" fill="white"/>
<path d="M44.7402 272.812V272.814L42.5344 276.911C42.7253 276.552 42.7805 276.121 42.6496 275.699C42.6424 275.679 42.6364 275.657 42.6292 275.637C42.6016 275.562 42.5668 275.486 42.5284 275.412L41.2948 273.119L41.0439 272.652L42.8501 269.293L43.1009 269.76L44.4726 272.309L44.7402 272.812Z" fill="#787878"/>
<path d="M46.2033 280.541H43.2655C42.0498 280.541 41.2722 279.25 41.8458 278.182L42.5286 276.912L44.7332 272.812L47.6206 278.182C48.1966 279.25 47.419 280.541 46.2033 280.541Z" fill="white"/>
<path d="M46.2033 280.541H43.2655C42.0498 280.541 41.2722 279.25 41.8458 278.182L42.5286 276.912L44.7332 272.812L47.6206 278.182C48.1966 279.25 47.419 280.541 46.2033 280.541Z" fill="white"/>
<g opacity="0.1">
<mask id="mask2_40_1934" style="mask-type:luminance" maskUnits="userSpaceOnUse" x="41" y="269" width="3" height="5">
<path d="M43.1055 269.285H41.0498V273.111H43.1055V269.285Z" fill="white"/>
</mask>
<g mask="url(#mask2_40_1934)">
<path d="M43.1036 269.755L41.2975 273.115L41.0479 272.648L42.8528 269.289L43.1036 269.755Z" fill="white"/>
</g>
</g>
<g opacity="0.1">
<mask id="mask3_40_1934" style="mask-type:luminance" maskUnits="userSpaceOnUse" x="42" y="272" width="3" height="5">
<path d="M44.736 272.305H42.5303V276.906H44.736V272.305Z" fill="white"/>
</mask>
<g mask="url(#mask3_40_1934)">
<path d="M44.737 272.806V272.809L42.5312 276.906C42.7221 276.546 42.7773 276.115 42.6465 275.693L44.4682 272.305L44.737 272.806Z" fill="white"/>
</g>
</g>
<g filter="url(#filter1_d_40_1934)">
<rect width="80" height="32.9929" rx="10" transform="matrix(-1 0 0 1 228 326.156)" fill="#0D1117"/>
</g>
<path d="M169.659 346.309C169.061 345.659 168.762 344.862 168.762 343.918C168.762 342.972 169.061 342.172 169.659 341.517C170.259 340.863 171.022 340.535 171.947 340.535C172.797 340.535 173.497 340.8 174.047 341.33V340.719H176.255V347.098H174.069V346.376H174.047C173.497 346.982 172.797 347.285 171.947 347.285C171.022 347.285 170.259 346.96 169.659 346.309ZM171.54 342.835C171.253 343.116 171.11 343.476 171.11 343.915C171.11 344.354 171.247 344.713 171.521 344.991C171.796 345.269 172.159 345.406 172.609 345.406C173.042 345.406 173.396 345.266 173.675 344.985C173.955 344.702 174.095 344.345 174.095 343.915C174.095 343.476 173.95 343.116 173.662 342.835C173.376 342.552 173.024 342.41 172.609 342.41C172.184 342.41 171.828 342.552 171.54 342.835Z" fill="white"/>
<path d="M180.097 342.337C179.681 342.337 179.322 342.491 179.022 342.797C178.723 343.103 178.573 343.471 178.573 343.902C178.573 344.341 178.723 344.715 179.022 345.023C179.322 345.33 179.681 345.482 180.097 345.482C180.296 345.482 180.485 345.459 180.664 345.41C180.843 345.359 180.975 345.308 181.058 345.257L181.173 345.185L181.92 346.711C181.863 346.754 181.781 346.806 181.675 346.87C181.571 346.931 181.333 347.015 180.963 347.123C180.594 347.231 180.197 347.285 179.773 347.285C178.831 347.285 178.003 346.955 177.291 346.296C176.579 345.638 176.225 344.848 176.225 343.927C176.225 343.001 176.579 342.203 177.291 341.536C178.003 340.869 178.831 340.535 179.773 340.535C180.197 340.535 180.588 340.585 180.947 340.684C181.305 340.784 181.559 340.883 181.707 340.982L181.92 341.131L181.173 342.635C180.897 342.437 180.538 342.337 180.097 342.337Z" fill="white"/>
<path d="M188.245 344.212H183.596C183.596 344.66 183.741 344.991 184.032 345.207C184.325 345.422 184.642 345.53 184.984 345.53C185.342 345.53 185.625 345.482 185.833 345.387C186.041 345.292 186.279 345.105 186.546 344.824L188.143 345.619C187.477 346.729 186.369 347.285 184.821 347.285C183.856 347.285 183.027 346.955 182.336 346.296C181.644 345.638 181.299 344.845 181.299 343.918C181.299 342.989 181.644 342.193 182.336 341.53C183.027 340.867 183.856 340.535 184.821 340.535C185.837 340.535 186.664 340.828 187.3 341.412C187.938 341.995 188.258 342.83 188.258 343.915C188.258 344.065 188.253 344.164 188.245 344.212ZM183.66 342.996H186.094C186.045 342.665 185.914 342.41 185.703 342.233C185.49 342.054 185.218 341.964 184.885 341.964C184.517 341.964 184.226 342.06 184.01 342.252C183.794 342.442 183.677 342.69 183.66 342.996Z" fill="white"/>
<path d="M189.272 340.712V339.36C189.28 338.406 189.505 337.643 189.947 337.073C190.388 336.501 191 336.215 191.783 336.215C192.116 336.215 192.434 336.262 192.738 336.357C193.043 336.452 193.263 336.55 193.396 336.649L193.606 336.785L192.833 338.34C192.633 338.224 192.413 338.166 192.171 338.166C191.895 338.166 191.711 338.259 191.621 338.445C191.529 338.631 191.484 338.956 191.484 339.42V340.712H192.957V342.391H191.484V347.091H189.272V342.391H188.35V340.712H189.272Z" fill="#787878"/>
<path d="M193.106 346.341C192.395 345.71 192.04 344.901 192.04 343.915C192.04 342.929 192.41 342.119 193.151 341.485C193.893 340.852 194.809 340.535 195.9 340.535C196.973 340.535 197.878 340.854 198.614 341.492C199.352 342.13 199.722 342.937 199.722 343.915C199.722 344.892 199.36 345.699 198.64 346.334C197.92 346.968 197.007 347.285 195.9 347.285C194.75 347.285 193.819 346.97 193.106 346.341ZM194.818 342.835C194.532 343.116 194.388 343.476 194.388 343.915C194.388 344.354 194.525 344.713 194.799 344.991C195.074 345.269 195.437 345.406 195.887 345.406C196.32 345.406 196.675 345.266 196.953 344.985C197.233 344.702 197.373 344.345 197.373 343.915C197.373 343.476 197.228 343.116 196.94 342.835C196.654 342.552 196.302 342.41 195.887 342.41C195.462 342.41 195.106 342.552 194.818 342.835Z" fill="#787878"/>
<path d="M199.7 347.098V340.719H201.909V341.641H201.934C201.951 341.607 201.977 341.566 202.014 341.517C202.052 341.466 202.133 341.379 202.259 341.254C202.383 341.13 202.516 341.018 202.656 340.918C202.798 340.819 202.982 340.731 203.207 340.652C203.431 340.575 203.66 340.535 203.894 340.535C204.136 340.535 204.373 340.568 204.607 340.633C204.84 340.699 205.011 340.766 205.119 340.833L205.294 340.931L204.368 342.797C204.095 342.565 203.711 342.448 203.22 342.448C202.954 342.448 202.725 342.507 202.532 342.622C202.341 342.739 202.206 342.88 202.128 343.047C202.049 343.211 201.993 343.352 201.959 343.468C201.925 343.584 201.909 343.675 201.909 343.74V347.098H199.7Z" fill="#787878"/>
<path d="M205.235 340.72V338.348H207.447V340.72H208.796V342.399H207.447V344.426C207.447 345.015 207.613 345.309 207.946 345.309C208.029 345.309 208.116 345.293 208.207 345.259C208.3 345.225 208.371 345.192 208.421 345.16L208.497 345.11L209.044 346.887C208.571 347.153 208.03 347.286 207.421 347.286C207.005 347.286 206.647 347.213 206.346 347.067C206.047 346.921 205.819 346.727 205.665 346.484C205.512 346.24 205.402 345.983 205.334 345.715C205.268 345.445 205.235 345.156 205.235 344.85V342.399H204.312V340.72H205.235Z" fill="#787878"/>
<path d="M208.944 337.168C209.202 336.91 209.51 336.781 209.866 336.781C210.224 336.781 210.533 336.91 210.792 337.168C211.051 337.426 211.181 337.733 211.181 338.089C211.181 338.444 211.051 338.75 210.792 339.008C210.533 339.264 210.224 339.391 209.866 339.391C209.51 339.391 209.202 339.264 208.944 339.008C208.687 338.75 208.559 338.444 208.559 338.089C208.559 337.733 208.687 337.426 208.944 337.168ZM208.734 340.721V347.1H210.942V340.721H208.734Z" fill="#787878"/>
<path d="M211.818 340.72V339.368C211.826 338.414 212.051 337.651 212.493 337.081C212.934 336.509 213.546 336.223 214.329 336.223C214.661 336.223 214.98 336.27 215.284 336.365C215.589 336.46 215.809 336.558 215.942 336.657L216.152 336.793L215.379 338.348C215.179 338.232 214.959 338.174 214.717 338.174C214.441 338.174 214.257 338.267 214.167 338.452C214.075 338.638 214.03 338.964 214.03 339.428V340.72H215.503V342.399H214.03V347.099H211.818V342.399H210.896V340.72H211.818Z" fill="#787878"/>
<path d="M219.922 340.711H222.47L217.436 350.323H214.891L217.099 346.095L214.063 340.711H216.612L218.397 343.983L219.922 340.711Z" fill="#787878"/>
<path d="M157.603 345.845C157.029 346.912 157.806 348.204 159.022 348.204H155.026C153.811 348.204 153.033 346.913 153.607 345.845L153.826 345.435L158.578 336.601L158.965 335.882C159.571 334.753 161.197 334.753 161.803 335.882L162.381 336.958L160.577 340.316L157.822 345.435L157.603 345.845Z" fill="white"/>
<path d="M165.737 348.205H162.8C161.584 348.205 160.806 346.914 161.38 345.846L162.063 344.576L164.267 340.477L167.155 345.846C167.731 346.914 166.953 348.205 165.737 348.205Z" fill="white"/>
<path d="M164.274 340.476V340.478L162.069 344.575C162.259 344.216 162.315 343.785 162.184 343.363C162.177 343.343 162.171 343.321 162.163 343.301C162.136 343.226 162.101 343.15 162.063 343.076L160.829 340.783L160.578 340.316L162.384 336.957L162.635 337.424L164.007 339.973L164.274 340.476Z" fill="#787878"/>
<path d="M165.737 348.205H162.8C161.584 348.205 160.806 346.914 161.38 345.846L162.063 344.576L164.267 340.477L167.155 345.846C167.731 346.914 166.953 348.205 165.737 348.205Z" fill="white"/>
<path d="M165.737 348.205H162.8C161.584 348.205 160.806 346.914 161.38 345.846L162.063 344.576L164.267 340.477L167.155 345.846C167.731 346.914 166.953 348.205 165.737 348.205Z" fill="white"/>
<g opacity="0.1">
<mask id="mask4_40_1934" style="mask-type:luminance" maskUnits="userSpaceOnUse" x="160" y="336" width="3" height="5">
<path d="M162.632 336.953H160.576V340.779H162.632V336.953Z" fill="white"/>
</mask>
<g mask="url(#mask4_40_1934)">
<path d="M162.632 337.423L160.826 340.783L160.576 340.316L162.381 336.957L162.632 337.423Z" fill="white"/>
</g>
</g>
<g opacity="0.1">
<mask id="mask5_40_1934" style="mask-type:luminance" maskUnits="userSpaceOnUse" x="162" y="339" width="3" height="6">
<path d="M164.272 339.961H162.066V344.562H164.272V339.961Z" fill="white"/>
</mask>
<g mask="url(#mask5_40_1934)">
<path d="M164.271 340.463V340.465L162.065 344.562C162.256 344.203 162.311 343.771 162.181 343.35L164.002 339.961L164.271 340.463Z" fill="white"/>
</g>
</g>
<g filter="url(#filter2_d_40_1934)">
<rect x="148" y="4.66016" width="80" height="32.8234" rx="10" fill="#0D1117"/>
</g>
<path d="M175.18 24.3845C174.503 23.6512 174.165 22.7515 174.165 21.6848C174.165 20.6187 174.503 19.7161 175.18 18.9763C175.856 18.2371 176.715 17.8672 177.757 17.8672C178.715 17.8672 179.503 18.1671 180.123 18.7661V18.0802H182.619V25.2747H180.153V24.4604H180.123C179.503 25.1434 178.715 25.4848 177.757 25.4848C176.715 25.4848 175.856 25.1185 175.18 24.3845ZM177.3 20.4648C176.975 20.7822 176.813 21.1886 176.813 21.6848C176.813 22.1795 176.967 22.583 177.276 22.896C177.587 23.2098 177.996 23.3659 178.505 23.3659C178.993 23.3659 179.395 23.2076 179.71 22.8902C180.025 22.5735 180.182 22.1715 180.182 21.6848C180.182 21.1886 180.019 20.7822 179.695 20.4648C179.371 20.1459 178.974 19.9861 178.505 19.9861C178.025 19.9861 177.624 20.1459 177.3 20.4648Z" fill="white"/>
<path d="M186.974 19.9015C186.504 19.9015 186.101 20.0751 185.763 20.421C185.424 20.7676 185.255 21.1842 185.255 21.6702C185.255 22.1663 185.424 22.5881 185.763 22.9339C186.101 23.2783 186.504 23.4505 186.974 23.4505C187.2 23.4505 187.414 23.4235 187.616 23.3688C187.817 23.3126 187.965 23.2565 188.059 23.1995L188.188 23.1149L189.032 24.8398C188.965 24.8865 188.874 24.9449 188.756 25.0149C188.639 25.085 188.371 25.1806 187.953 25.301C187.537 25.4235 187.088 25.4848 186.607 25.4848C185.546 25.4848 184.613 25.1134 183.81 24.3699C183.008 23.6271 182.607 22.7355 182.607 21.6964C182.607 20.6501 183.008 19.7497 183.81 18.9967C184.613 18.2437 185.546 17.8672 186.607 17.8672C187.088 17.8672 187.529 17.9241 187.932 18.0365C188.337 18.1496 188.623 18.2612 188.792 18.3721L189.032 18.5414L188.188 20.24C187.877 20.0146 187.472 19.9015 186.974 19.9015Z" fill="white"/>
<path d="M196.155 22.0204H190.912C190.912 22.5268 191.077 22.9011 191.405 23.1441C191.734 23.3856 192.09 23.506 192.475 23.506C192.88 23.506 193.2 23.4527 193.434 23.3455C193.669 23.2389 193.936 23.0266 194.238 22.7092L196.041 23.6052C195.29 24.8588 194.041 25.4848 192.294 25.4848C191.203 25.4848 190.267 25.1134 189.487 24.3699C188.709 23.6271 188.32 22.7318 188.32 21.6848C188.32 20.6362 188.709 19.738 189.487 18.9909C190.267 18.2422 191.203 17.8672 192.294 17.8672C193.439 17.8672 194.37 18.197 195.088 18.8566C195.807 19.5162 196.167 20.4589 196.167 21.6848C196.167 21.8526 196.163 21.9642 196.155 22.0204ZM190.983 20.6457H193.73C193.673 20.2721 193.525 19.9854 193.285 19.7847C193.046 19.5826 192.739 19.4812 192.364 19.4812C191.949 19.4812 191.62 19.5892 191.376 19.8052C191.131 20.0197 191 20.2999 190.983 20.6457Z" fill="white"/>
<path d="M196.572 25.2747V18.0802H199.068V18.8362H199.097C199.744 18.1904 200.434 17.8672 201.167 17.8672C201.693 17.8672 202.185 17.9752 202.645 18.1912C203.106 18.4071 203.454 18.7391 203.689 19.1864C204.422 18.3072 205.22 17.8672 206.085 17.8672C206.857 17.8672 207.519 18.0832 208.073 18.5151C208.628 18.9456 208.906 19.6184 208.906 20.5348V25.2747H206.41V21.2061C206.41 20.823 206.305 20.5027 206.093 20.2459C205.882 19.989 205.564 19.8606 205.14 19.8606C204.775 19.8606 204.495 19.9708 204.302 20.1904C204.11 20.4108 204.004 20.6742 203.985 20.9814V25.2747H201.493V21.2061C201.493 20.823 201.386 20.5027 201.173 20.2459C200.962 19.989 200.645 19.8606 200.223 19.8606C199.837 19.8606 199.549 19.9803 199.355 20.2196C199.163 20.4575 199.068 20.7391 199.068 21.066V25.2747H196.572Z" fill="#787878"/>
<path d="M209.758 24.3787C209.081 23.6395 208.743 22.7369 208.743 21.6702C208.743 20.6041 209.081 19.7045 209.758 18.9704C210.434 18.2349 211.293 17.8672 212.335 17.8672C213.293 17.8672 214.081 18.2087 214.702 18.8916H214.731V18.0802H217.197V28.923H214.702V24.5888C214.081 25.1864 213.293 25.4848 212.335 25.4848C211.293 25.4848 210.434 25.1164 209.758 24.3787ZM211.854 20.456C211.545 20.7698 211.391 21.174 211.391 21.6702C211.391 22.1663 211.553 22.5735 211.878 22.8902C212.202 23.2076 212.604 23.3659 213.083 23.3659C213.552 23.3659 213.949 23.2076 214.273 22.8902C214.598 22.5735 214.76 22.1663 214.76 21.6702C214.76 21.1842 214.603 20.7822 214.288 20.4648C213.973 20.1459 213.571 19.9861 213.083 19.9861C212.574 19.9861 212.165 20.143 211.854 20.456Z" fill="#787878"/>
<path d="M163.026 23.9465C162.452 25.0132 163.228 26.3056 164.445 26.3056H160.449C159.233 26.3056 158.456 25.0144 159.029 23.9465L159.249 23.5368L164.001 14.7024L164.388 13.9833C164.994 12.8545 166.62 12.8545 167.226 13.9833L167.804 15.0595L165.999 18.4172L163.245 23.5368L163.026 23.9465Z" fill="white"/>
<path d="M171.159 26.3064H168.222C167.006 26.3064 166.228 25.0152 166.802 23.9473L167.485 22.6776L169.689 18.5781L172.577 23.9473C173.153 25.0152 172.375 26.3064 171.159 26.3064Z" fill="white"/>
<path d="M169.699 18.5736V18.576L167.493 22.6731C167.684 22.3136 167.739 21.8824 167.609 21.4607C167.601 21.4404 167.595 21.4189 167.588 21.3986C167.561 21.3233 167.526 21.2481 167.487 21.174L166.254 18.8806L166.003 18.4136L167.809 15.0547L168.06 15.5217L169.432 18.0708L169.699 18.5736Z" fill="#787878"/>
<path d="M171.159 26.3064H168.222C167.006 26.3064 166.228 25.0152 166.802 23.9473L167.485 22.6776L169.689 18.5781L172.577 23.9473C173.153 25.0152 172.375 26.3064 171.159 26.3064Z" fill="white"/>
<path d="M171.159 26.3064H168.222C167.006 26.3064 166.228 25.0152 166.802 23.9473L167.485 22.6776L169.689 18.5781L172.577 23.9473C173.153 25.0152 172.375 26.3064 171.159 26.3064Z" fill="white"/>
<g opacity="0.1">
<mask id="mask6_40_1934" style="mask-type:luminance" maskUnits="userSpaceOnUse" x="166" y="15" width="3" height="4">
<path d="M168.06 15.0781H166.004V18.9041H168.06V15.0781Z" fill="white"/>
</mask>
<g mask="url(#mask6_40_1934)">
<path d="M168.061 15.5401L166.254 18.9002L166.005 18.4331L167.81 15.0742L168.061 15.5401Z" fill="white"/>
</g>
</g>
<g opacity="0.1">
<mask id="mask7_40_1934" style="mask-type:luminance" maskUnits="userSpaceOnUse" x="167" y="18" width="3" height="5">
<path d="M169.695 18.0742H167.489V22.6754H169.695V18.0742Z" fill="white"/>
</mask>
<g mask="url(#mask7_40_1934)">
<path d="M169.693 18.5759V18.5783L167.487 22.6754C167.678 22.3158 167.733 21.8846 167.603 21.463L169.424 18.0742L169.693 18.5759Z" fill="white"/>
</g>
</g>
<g filter="url(#filter3_d_40_1934)">
<rect x="271" y="257.477" width="80" height="32.9929" rx="10" fill="#0D1117"/>
</g>
<path d="M299.275 278.49C298.599 277.757 298.261 276.857 298.261 275.79C298.261 274.724 298.599 273.822 299.275 273.082C299.951 272.343 300.81 271.973 301.853 271.973C302.81 271.973 303.599 272.273 304.219 272.872V272.186H306.715V279.38H304.249V278.566H304.219C303.599 279.249 302.81 279.59 301.853 279.59C300.81 279.59 299.951 279.224 299.275 278.49ZM301.395 274.57C301.071 274.888 300.909 275.294 300.909 275.79C300.909 276.285 301.063 276.688 301.372 277.001C301.683 277.315 302.092 277.471 302.601 277.471C303.089 277.471 303.491 277.313 303.806 276.996C304.12 276.679 304.278 276.277 304.278 275.79C304.278 275.294 304.115 274.888 303.791 274.57C303.466 274.251 303.07 274.092 302.601 274.092C302.121 274.092 301.719 274.251 301.395 274.57Z" fill="white"/>
<path d="M311.054 274.007C310.585 274.007 310.181 274.181 309.843 274.526C309.504 274.873 309.335 275.29 309.335 275.776C309.335 276.272 309.504 276.694 309.843 277.039C310.181 277.384 310.585 277.556 311.054 277.556C311.28 277.556 311.494 277.529 311.696 277.474C311.897 277.418 312.045 277.362 312.139 277.305L312.268 277.22L313.112 278.945C313.045 278.992 312.954 279.05 312.837 279.12C312.719 279.19 312.451 279.286 312.033 279.406C311.617 279.529 311.168 279.59 310.687 279.59C309.626 279.59 308.693 279.219 307.89 278.475C307.088 277.733 306.688 276.841 306.688 275.802C306.688 274.756 307.088 273.855 307.89 273.102C308.693 272.349 309.626 271.973 310.687 271.973C311.168 271.973 311.609 272.03 312.013 272.142C312.417 272.255 312.703 272.367 312.872 272.478L313.112 272.647L312.268 274.346C311.957 274.12 311.552 274.007 311.054 274.007Z" fill="white"/>
<path d="M320.249 276.126H315.006C315.006 276.632 315.17 277.007 315.499 277.25C315.827 277.491 316.184 277.611 316.569 277.611C316.974 277.611 317.293 277.558 317.528 277.451C317.763 277.344 318.03 277.132 318.331 276.815L320.135 277.711C319.384 278.964 318.135 279.59 316.387 279.59C315.297 279.59 314.361 279.219 313.581 278.475C312.803 277.733 312.414 276.837 312.414 275.79C312.414 274.742 312.803 273.844 313.581 273.096C314.361 272.348 315.297 271.973 316.387 271.973C317.532 271.973 318.464 272.302 319.182 272.962C319.901 273.622 320.261 274.564 320.261 275.79C320.261 275.958 320.257 276.07 320.249 276.126ZM315.077 274.751H317.824C317.767 274.378 317.619 274.091 317.378 273.89C317.139 273.688 316.833 273.587 316.458 273.587C316.043 273.587 315.714 273.695 315.47 273.911C315.225 274.125 315.094 274.405 315.077 274.751Z" fill="white"/>
<path d="M320.808 279.38V272.186H323.303V272.942H323.332C323.979 272.296 324.669 271.973 325.403 271.973C325.928 271.973 326.421 272.081 326.88 272.297C327.342 272.513 327.69 272.845 327.924 273.292C328.657 272.413 329.456 271.973 330.32 271.973C331.092 271.973 331.755 272.189 332.308 272.621C332.863 273.051 333.141 273.724 333.141 274.64V279.38H330.646V275.312C330.646 274.929 330.54 274.608 330.329 274.351C330.118 274.095 329.8 273.966 329.376 273.966C329.01 273.966 328.731 274.076 328.537 274.296C328.345 274.516 328.24 274.78 328.22 275.087V279.38H325.728V275.312C325.728 274.929 325.621 274.608 325.408 274.351C325.197 274.095 324.881 273.966 324.458 273.966C324.073 273.966 323.784 274.086 323.59 274.325C323.398 274.563 323.303 274.845 323.303 275.171V279.38H320.808Z" fill="#787878"/>
<path d="M336.62 271.973C337.035 271.973 337.443 272.021 337.846 272.116C338.251 272.209 338.551 272.302 338.749 272.396L339.045 272.536L338.227 274.162C337.664 273.862 337.128 273.712 336.62 273.712C336.339 273.712 336.14 273.744 336.022 273.806C335.905 273.866 335.846 273.98 335.846 274.147C335.846 274.186 335.85 274.224 335.858 274.261C335.868 274.298 335.886 274.333 335.914 274.366C335.943 274.4 335.969 274.427 335.993 274.451C336.016 274.474 336.056 274.5 336.113 274.529C336.17 274.557 336.214 274.578 336.248 274.591C336.281 274.605 336.335 274.626 336.409 274.655C336.483 274.683 336.539 274.703 336.576 274.716C336.615 274.73 336.679 274.751 336.767 274.78C336.857 274.808 336.925 274.826 336.972 274.836C337.263 274.92 337.516 275.013 337.732 275.116C337.949 275.22 338.176 275.36 338.415 275.536C338.655 275.714 338.841 275.938 338.972 276.211C339.105 276.481 339.172 276.79 339.172 277.136C339.172 278.772 338.029 279.59 335.747 279.59C335.231 279.59 334.739 279.512 334.275 279.354C333.809 279.195 333.473 279.035 333.266 278.875L332.958 278.621L333.973 276.926C334.047 276.992 334.144 277.07 334.266 277.159C334.389 277.247 334.61 277.368 334.929 277.524C335.249 277.678 335.527 277.754 335.761 277.754C336.277 277.754 336.535 277.582 336.535 277.235C336.535 277.076 336.469 276.952 336.339 276.864C336.208 276.775 335.985 276.674 335.67 276.561C335.355 276.448 335.108 276.345 334.929 276.251C334.478 276.018 334.122 275.754 333.858 275.46C333.596 275.165 333.465 274.774 333.465 274.287C333.465 273.56 333.748 272.993 334.316 272.586C334.885 272.177 335.653 271.973 336.62 271.973Z" fill="#787878"/>
<path d="M287.296 278.122C286.723 279.189 287.499 280.481 288.716 280.481H284.72C283.504 280.481 282.726 279.19 283.3 278.122L283.52 277.713L288.272 268.878L288.658 268.159C289.264 267.03 290.89 267.03 291.496 268.159L292.075 269.235L290.27 272.593L287.516 277.713L287.296 278.122Z" fill="white"/>
<path d="M295.431 280.482H292.493C291.277 280.482 290.5 279.191 291.073 278.123L291.756 276.853L293.961 272.754L296.848 278.123C297.424 279.191 296.646 280.482 295.431 280.482Z" fill="white"/>
<path d="M293.967 272.753V272.756L291.761 276.853C291.952 276.493 292.007 276.062 291.876 275.64C291.869 275.62 291.863 275.599 291.856 275.578C291.828 275.503 291.793 275.428 291.755 275.354L290.521 273.06L290.271 272.593L292.077 269.234L292.327 269.701L293.699 272.25L293.967 272.753Z" fill="#787878"/>
<path d="M295.431 280.482H292.493C291.277 280.482 290.5 279.191 291.073 278.123L291.756 276.853L293.961 272.754L296.848 278.123C297.424 279.191 296.646 280.482 295.431 280.482Z" fill="white"/>
<path d="M295.431 280.482H292.493C291.277 280.482 290.5 279.191 291.073 278.123L291.756 276.853L293.961 272.754L296.848 278.123C297.424 279.191 296.646 280.482 295.431 280.482Z" fill="white"/>
<g opacity="0.1">
<mask id="mask8_40_1934" style="mask-type:luminance" maskUnits="userSpaceOnUse" x="290" y="269" width="3" height="5">
<path d="M292.325 269.227H290.27V273.053H292.325V269.227Z" fill="white"/>
</mask>
<g mask="url(#mask8_40_1934)">
<path d="M292.325 269.696L290.519 273.056L290.27 272.589L292.074 269.23L292.325 269.696Z" fill="white"/>
</g>
</g>
<g opacity="0.1">
<mask id="mask9_40_1934" style="mask-type:luminance" maskUnits="userSpaceOnUse" x="291" y="272" width="3" height="5">
<path d="M293.966 272.25H291.76V276.851H293.966V272.25Z" fill="white"/>
</mask>
<g mask="url(#mask9_40_1934)">
<path d="M293.965 272.752V272.754L291.759 276.851C291.95 276.492 292.005 276.06 291.874 275.639L293.696 272.25L293.965 272.752Z" fill="white"/>
</g>
</g>
<g filter="url(#filter4_d_40_1934)">
<rect x="272" y="69.3555" width="80" height="32.9929" rx="10" fill="#0D1117"/>
</g>
<path d="M293.73 89.907C293.081 89.2029 292.757 88.339 292.757 87.3152C292.757 86.2923 293.081 85.4261 293.73 84.7176C294.381 84.0077 295.207 83.6523 296.208 83.6523C297.127 83.6523 297.884 83.9398 298.481 84.5133V83.8537H300.876V90.7622H298.507V89.98H298.481C297.884 90.6359 297.127 90.9635 296.208 90.9635C295.207 90.9635 294.381 90.6118 293.73 89.907ZM295.768 86.1449C295.457 86.4484 295.302 86.8388 295.302 87.3152C295.302 87.7902 295.45 88.1784 295.748 88.4798C296.045 88.7797 296.437 88.9292 296.924 88.9292C297.393 88.9292 297.778 88.7775 298.079 88.4739C298.382 88.1689 298.533 87.7822 298.533 87.3152C298.533 86.8388 298.378 86.4484 298.067 86.1449C297.756 85.8399 297.375 85.6866 296.924 85.6866C296.464 85.6866 296.079 85.8399 295.768 86.1449Z" fill="white"/>
<path d="M305.038 85.6049C304.588 85.6049 304.201 85.7713 303.877 86.104C303.552 86.4353 303.39 86.8337 303.39 87.3006C303.39 87.7778 303.552 88.1821 303.877 88.5148C304.201 88.8461 304.588 89.011 305.038 89.011C305.255 89.011 305.46 88.9847 305.654 88.9322C305.849 88.8782 305.992 88.8234 306.082 88.7687L306.202 88.687L307.014 90.3448C306.951 90.39 306.863 90.4462 306.75 90.5141C306.637 90.5805 306.379 90.6717 305.979 90.7884C305.578 90.9052 305.147 90.9635 304.686 90.9635C303.667 90.9635 302.772 90.6075 302 89.8953C301.23 89.1817 300.845 88.3251 300.845 87.3269C300.845 86.3229 301.23 85.4604 302 84.7381C302.772 84.0143 303.667 83.6523 304.686 83.6523C305.147 83.6523 305.572 83.7071 305.959 83.8158C306.347 83.923 306.623 84.0303 306.786 84.1368L307.014 84.2974L306.202 85.9289C305.904 85.7129 305.517 85.6049 305.038 85.6049Z" fill="white"/>
<path d="M313.868 87.6392H308.833C308.833 88.1237 308.99 88.4827 309.305 88.7162C309.622 88.9497 309.965 89.0664 310.335 89.0664C310.723 89.0664 311.03 89.0153 311.255 88.9117C311.48 88.8089 311.737 88.6045 312.027 88.2988L313.76 89.1598C313.036 90.3623 311.836 90.9635 310.159 90.9635C309.113 90.9635 308.215 90.6075 307.467 89.8953C306.718 89.1817 306.344 88.3214 306.344 87.3152C306.344 86.3098 306.718 85.4473 307.467 84.7293C308.215 84.0113 309.113 83.6523 310.159 83.6523C311.259 83.6523 312.154 83.969 312.845 84.6009C313.534 85.2335 313.88 86.1383 313.88 87.3152C313.88 87.4772 313.875 87.5852 313.868 87.6392ZM308.901 86.3171H311.54C311.485 85.9595 311.342 85.6837 311.112 85.4911C310.883 85.297 310.588 85.1992 310.226 85.1992C309.829 85.1992 309.514 85.3036 309.279 85.5115C309.044 85.718 308.918 85.9865 308.901 86.3171Z" fill="white"/>
<path d="M318.329 85.6049C317.879 85.6049 317.492 85.7713 317.168 86.104C316.843 86.4353 316.681 86.8337 316.681 87.3006C316.681 87.7778 316.843 88.1821 317.168 88.5148C317.492 88.8461 317.879 89.011 318.329 89.011C318.546 89.011 318.751 88.9847 318.945 88.9322C319.14 88.8782 319.283 88.8234 319.373 88.7687L319.493 88.687L320.305 90.3448C320.242 90.39 320.154 90.4462 320.041 90.5141C319.928 90.5805 319.67 90.6717 319.27 90.7884C318.869 90.9052 318.438 90.9635 317.977 90.9635C316.958 90.9635 316.063 90.6075 315.291 89.8953C314.521 89.1817 314.136 88.3251 314.136 87.3269C314.136 86.3229 314.521 85.4604 315.291 84.7381C316.063 84.0143 316.958 83.6523 317.977 83.6523C318.438 83.6523 318.863 83.7071 319.25 83.8158C319.638 83.923 319.914 84.0303 320.077 84.1368L320.305 84.2974L319.493 85.9289C319.195 85.7129 318.808 85.6049 318.329 85.6049Z" fill="#787878"/>
<path d="M320.127 90.7687V79.1875H322.523V90.7687H320.127Z" fill="#787878"/>
<path d="M323.644 89.942C322.873 89.2591 322.488 88.3835 322.488 87.3152C322.488 86.247 322.889 85.37 323.691 84.6826C324.494 83.996 325.487 83.6523 326.67 83.6523C327.832 83.6523 328.813 83.9982 329.611 84.6885C330.41 85.3794 330.81 86.255 330.81 87.3152C330.81 88.374 330.42 89.2466 329.64 89.9333C328.86 90.6206 327.87 90.9635 326.67 90.9635C325.424 90.9635 324.416 90.6235 323.644 89.942ZM325.5 86.1449C325.189 86.4484 325.034 86.8388 325.034 87.3152C325.034 87.7902 325.182 88.1784 325.479 88.4798C325.776 88.7797 326.168 88.9292 326.655 88.9292C327.124 88.9292 327.509 88.7775 327.81 88.4739C328.113 88.1689 328.265 87.7822 328.265 87.3152C328.265 86.8388 328.11 86.4484 327.799 86.1449C327.488 85.8399 327.107 85.6866 326.655 85.6866C326.195 85.6866 325.811 85.8399 325.5 86.1449Z" fill="#787878"/>
<path d="M333.043 83.8594V87.1458C333.043 87.8273 333.147 88.3118 333.354 88.5992C333.563 88.8875 333.915 89.0312 334.41 89.0312C334.906 89.0312 335.258 88.8875 335.465 88.5992C335.672 88.3118 335.776 87.8273 335.776 87.1458V83.8594H338.172V87.7237C338.172 88.8736 337.871 89.7025 337.272 90.2103C336.671 90.7167 335.717 90.9692 334.41 90.9692C333.102 90.9692 332.147 90.7167 331.548 90.2103C330.949 89.7025 330.65 88.8736 330.65 87.7237V83.8594H333.043Z" fill="#787878"/>
<path d="M338.985 89.9135C338.336 89.2094 338.012 88.3455 338.012 87.3218C338.012 86.2988 338.336 85.4327 338.985 84.7242C339.636 84.0142 340.462 83.6589 341.463 83.6589C342.382 83.6589 343.139 83.9463 343.736 84.5199V79.1875H346.131V90.7687H343.762V89.9865H343.736C343.139 90.6424 342.382 90.9701 341.463 90.9701C340.462 90.9701 339.636 90.6184 338.985 89.9135ZM341.023 86.1514C340.712 86.4549 340.557 86.8453 340.557 87.3218C340.557 87.7968 340.705 88.1849 341.003 88.4863C341.3 88.7862 341.692 88.9358 342.179 88.9358C342.648 88.9358 343.033 88.784 343.334 88.4805C343.637 88.1755 343.788 87.7887 343.788 87.3218C343.788 86.8453 343.633 86.4549 343.322 86.1514C343.011 85.8464 342.63 85.6932 342.179 85.6932C341.719 85.6932 341.334 85.8464 341.023 86.1514Z" fill="#787878"/>
<path d="M282.242 90.0012C281.669 91.0679 282.445 92.3603 283.662 92.3603H279.666C278.45 92.3603 277.673 91.0691 278.246 90.0012L278.466 89.5915L283.218 80.7571L283.605 80.038C284.211 78.9092 285.837 78.9092 286.443 80.038L287.021 81.1142L285.216 84.4719L282.462 89.5915L282.242 90.0012Z" fill="white"/>
<path d="M290.377 92.3611H287.439C286.224 92.3611 285.446 91.0699 286.02 90.002L286.702 88.7323L288.907 84.6328L291.794 90.002C292.37 91.0699 291.593 92.3611 290.377 92.3611Z" fill="white"/>
<path d="M288.914 84.6322V84.6346L286.708 88.7317C286.899 88.3722 286.954 87.941 286.823 87.5193C286.816 87.499 286.81 87.4775 286.803 87.4572C286.775 87.3819 286.741 87.3067 286.702 87.2326L285.469 84.9392L285.218 84.4722L287.024 81.1133L287.275 81.5803L288.646 84.1294L288.914 84.6322Z" fill="#787878"/>
<path d="M290.377 92.3611H287.439C286.224 92.3611 285.446 91.0699 286.02 90.002L286.702 88.7323L288.907 84.6328L291.794 90.002C292.37 91.0699 291.593 92.3611 290.377 92.3611Z" fill="white"/>
<path d="M290.377 92.3611H287.439C286.224 92.3611 285.446 91.0699 286.02 90.002L286.702 88.7323L288.907 84.6328L291.794 90.002C292.37 91.0699 291.593 92.3611 290.377 92.3611Z" fill="white"/>
<g opacity="0.1">
<mask id="mask10_40_1934" style="mask-type:luminance" maskUnits="userSpaceOnUse" x="285" y="81" width="3" height="4">
<path d="M287.263 81.125H285.207V84.9509H287.263V81.125Z" fill="white"/>
</mask>
<g mask="url(#mask10_40_1934)">
<path d="M287.264 81.5869L285.458 84.9469L285.208 84.4799L287.013 81.1211L287.264 81.5869Z" fill="white"/>
</g>
</g>
<g opacity="0.1">
<mask id="mask11_40_1934" style="mask-type:luminance" maskUnits="userSpaceOnUse" x="286" y="84" width="3" height="5">
<path d="M288.917 84.1367H286.711V88.7378H288.917V84.1367Z" fill="white"/>
</mask>
<g mask="url(#mask11_40_1934)">
<path d="M288.915 84.6345V84.6369L286.709 88.7339C286.9 88.3743 286.955 87.9431 286.824 87.5215L288.646 84.1328L288.915 84.6345Z" fill="white"/>
</g>
</g>
<g filter="url(#filter5_d_40_1934)">
<rect width="80" height="32.9929" rx="10" transform="matrix(-1 0 0 1 102 69.3555)" fill="#0D1117"/>
</g>
<path d="M51.5741 90.3689C50.8975 89.6356 50.5596 88.7359 50.5596 87.6691C50.5596 86.6031 50.8975 85.7005 51.5741 84.9606C52.25 84.2215 53.1092 83.8516 54.1516 83.8516C55.109 83.8516 55.8978 84.1515 56.518 84.7505V84.0646H59.0134V91.2591H56.5473V90.4448H56.518C55.8978 91.1277 55.109 91.4692 54.1516 91.4692C53.1092 91.4692 52.25 91.1029 51.5741 90.3689ZM53.6942 86.4492C53.3695 86.7666 53.2074 87.173 53.2074 87.6691C53.2074 88.1639 53.3614 88.5674 53.6707 88.8804C53.9816 89.1941 54.3906 89.3503 54.8994 89.3503C55.3876 89.3503 55.7893 89.1919 56.1046 88.8745C56.4191 88.5579 56.5767 88.1558 56.5767 87.6691C56.5767 87.173 56.4139 86.7666 56.0899 86.4492C55.7651 86.1303 55.3686 85.9705 54.8994 85.9705C54.42 85.9705 54.0182 86.1303 53.6942 86.4492Z" fill="white"/>
<path d="M63.3457 85.8859C62.8765 85.8859 62.4726 86.0595 62.1347 86.4054C61.796 86.752 61.6274 87.1686 61.6274 87.6546C61.6274 88.1507 61.796 88.5725 62.1347 88.9183C62.4726 89.2627 62.8765 89.4349 63.3457 89.4349C63.5722 89.4349 63.7863 89.4079 63.9879 89.3532C64.1887 89.297 64.3368 89.2408 64.4307 89.1839L64.5597 89.0993L65.4042 90.8242C65.3375 90.8709 65.2458 90.9293 65.1285 90.9993C65.0112 91.0694 64.7429 91.1649 64.3251 91.2853C63.9087 91.4079 63.4601 91.4692 62.9792 91.4692C61.9177 91.4692 60.9852 91.0978 60.1817 90.3543C59.3798 89.6115 58.9795 88.7199 58.9795 87.6808C58.9795 86.6345 59.3798 85.7341 60.1817 84.9811C60.9852 84.2281 61.9177 83.8516 62.9792 83.8516C63.4601 83.8516 63.9014 83.9085 64.3046 84.0208C64.7092 84.1339 64.9951 84.2456 65.1637 84.3565L65.4042 84.5258L64.5597 86.2244C64.2488 85.999 63.8442 85.8859 63.3457 85.8859Z" fill="white"/>
<path d="M72.5451 88.0048H67.3021C67.3021 88.5112 67.4663 88.8855 67.7947 89.1285C68.1232 89.37 68.4794 89.4904 68.865 89.4904C69.2697 89.4904 69.5893 89.4371 69.8239 89.3299C70.0585 89.2233 70.3261 89.011 70.6274 88.6936L72.4307 89.5896C71.6801 90.8432 70.4309 91.4692 68.6832 91.4692C67.5924 91.4692 66.657 91.0978 65.877 90.3543C65.0985 89.6115 64.71 88.7162 64.71 87.6691C64.71 86.6206 65.0985 85.7224 65.877 84.9752C66.657 84.2266 67.5924 83.8516 68.6832 83.8516C69.8283 83.8516 70.76 84.1814 71.4777 84.841C72.1969 85.5006 72.5568 86.4433 72.5568 87.6691C72.5568 87.837 72.5524 87.9486 72.5451 88.0048ZM67.3725 86.6301H70.1201C70.0629 86.2565 69.9148 85.9698 69.6744 85.7691C69.4354 85.567 69.1289 85.4656 68.7536 85.4656C68.3387 85.4656 68.0095 85.5736 67.7654 85.7895C67.5206 86.0041 67.3901 86.2842 67.3725 86.6301Z" fill="white"/>
<path d="M80.7746 88.0048H75.5316C75.5316 88.5112 75.6958 88.8855 76.0242 89.1285C76.3527 89.37 76.7089 89.4904 77.0945 89.4904C77.4992 89.4904 77.8188 89.4371 78.0534 89.3299C78.288 89.2233 78.5556 89.011 78.8568 88.6936L80.6602 89.5896C79.9095 90.8432 78.6604 91.4692 76.9127 91.4692C75.8219 91.4692 74.8865 91.0978 74.1065 90.3543C73.328 89.6115 72.9395 88.7162 72.9395 87.6691C72.9395 86.6206 73.328 85.7224 74.1065 84.9752C74.8865 84.2266 75.8219 83.8516 76.9127 83.8516C78.0578 83.8516 78.9895 84.1814 79.7072 84.841C80.4264 85.5006 80.7863 86.4433 80.7863 87.6691C80.7863 87.837 80.7819 87.9486 80.7746 88.0048ZM75.602 86.6301H78.3496C78.2924 86.2565 78.1443 85.9698 77.9038 85.7691C77.6649 85.567 77.3584 85.4656 76.9831 85.4656C76.5682 85.4656 76.239 85.5736 75.9949 85.7895C75.7501 86.0041 75.6196 86.2842 75.602 86.6301Z" fill="#787878"/>
<path d="M81.2441 90.3689C80.5674 89.6356 80.2295 88.7359 80.2295 87.6691C80.2295 86.6031 80.5674 85.7005 81.2441 84.9606C81.92 84.2215 82.7791 83.8516 83.8216 83.8516C84.779 83.8516 85.5678 84.1515 86.1879 84.7505V84.0646H88.6833V91.2591H86.2173V90.4448H86.1879C85.5678 91.1277 84.779 91.4692 83.8216 91.4692C82.7791 91.4692 81.92 91.1029 81.2441 90.3689ZM83.3641 86.4492C83.0394 86.7666 82.8774 87.173 82.8774 87.6691C82.8774 88.1639 83.0313 88.5674 83.3407 88.8804C83.6515 89.1941 84.0606 89.3503 84.5693 89.3503C85.0575 89.3503 85.4593 89.1919 85.7745 88.8745C86.089 88.5579 86.2466 88.1558 86.2466 87.6691C86.2466 87.173 86.0838 86.7666 85.7598 86.4492C85.4351 86.1303 85.0385 85.9705 84.5693 85.9705C84.0899 85.9705 83.6881 86.1303 83.3641 86.4492Z" fill="#787878"/>
<path d="M39.5755 90.0012C39.0018 91.0679 39.7783 92.3603 40.9951 92.3603H36.9989C35.7832 92.3603 35.0056 91.0691 35.5792 90.0012L35.7988 89.5915L40.5511 80.7571L40.9375 80.038C41.5436 78.9092 43.1697 78.9092 43.7757 80.038L44.3542 81.1142L42.5492 84.4719L39.7951 89.5915L39.5755 90.0012Z" fill="white"/>
<path d="M47.7101 92.3611H44.7723C43.5566 92.3611 42.779 91.0699 43.3526 90.002L44.0355 88.7323L46.24 84.6328L49.1274 90.002C49.7034 91.0699 48.9258 92.3611 47.7101 92.3611Z" fill="white"/>
<path d="M46.247 84.6322V84.6346L44.0413 88.7317C44.2321 88.3722 44.2873 87.941 44.1565 87.5193C44.1493 87.499 44.1433 87.4775 44.1361 87.4572C44.1085 87.3819 44.0737 87.3067 44.0353 87.2326L42.8016 84.9392L42.5508 84.4722L44.3569 81.1133L44.6077 81.5803L45.9794 84.1294L46.247 84.6322Z" fill="#787878"/>
<path d="M47.7101 92.3611H44.7723C43.5566 92.3611 42.779 91.0699 43.3526 90.002L44.0355 88.7323L46.24 84.6328L49.1274 90.002C49.7034 91.0699 48.9258 92.3611 47.7101 92.3611Z" fill="white"/>
<path d="M47.7101 92.3611H44.7723C43.5566 92.3611 42.779 91.0699 43.3526 90.002L44.0355 88.7323L46.24 84.6328L49.1274 90.002C49.7034 91.0699 48.9258 92.3611 47.7101 92.3611Z" fill="white"/>
<g opacity="0.1">
<mask id="mask12_40_1934" style="mask-type:luminance" maskUnits="userSpaceOnUse" x="42" y="81" width="3" height="4">
<path d="M44.6134 81.1172H42.5576V84.9431H44.6134V81.1172Z" fill="white"/>
</mask>
<g mask="url(#mask12_40_1934)">
<path d="M44.6104 81.583L42.8043 84.9431L42.5547 84.4761L44.3596 81.1172L44.6104 81.583Z" fill="white"/>
</g>
</g>
<g opacity="0.1">
<mask id="mask13_40_1934" style="mask-type:luminance" maskUnits="userSpaceOnUse" x="44" y="84" width="3" height="5">
<path d="M46.2438 84.1289H44.0381V88.7301H46.2438V84.1289Z" fill="white"/>
</mask>
<g mask="url(#mask13_40_1934)">
<path d="M46.2438 84.6306V84.633L44.0381 88.7301C44.2289 88.3705 44.2841 87.9393 44.1533 87.5177L45.975 84.1289L46.2438 84.6306Z" fill="white"/>
</g>
</g>
<g filter="url(#filter6_d_40_1934)">
<rect width="80" height="32.9929" rx="10" transform="matrix(-1 0 0 1 84 166.898)" fill="#0D1117"/>
</g>
<path d="M26.6884 187.99C26.0118 187.257 25.6738 186.357 25.6738 185.29C25.6738 184.224 26.0118 183.322 26.6884 182.582C27.3643 181.843 28.2235 181.473 29.2659 181.473C30.2233 181.473 31.0121 181.773 31.6323 182.372V181.686H34.1277V188.88H31.6616V188.066H31.6323C31.0121 188.749 30.2233 189.09 29.2659 189.09C28.2235 189.09 27.3643 188.724 26.6884 187.99ZM28.8085 184.07C28.4837 184.388 28.3217 184.794 28.3217 185.29C28.3217 185.785 28.4756 186.188 28.785 186.501C29.0958 186.815 29.5049 186.971 30.0136 186.971C30.5019 186.971 30.9036 186.813 31.2188 186.496C31.5333 186.179 31.6909 185.777 31.6909 185.29C31.6909 184.794 31.5282 184.388 31.2042 184.07C30.8794 183.751 30.4828 183.592 30.0136 183.592C29.5342 183.592 29.1325 183.751 28.8085 184.07Z" fill="white"/>
<path d="M38.4785 183.507C38.0093 183.507 37.6054 183.681 37.2675 184.026C36.9288 184.373 36.7602 184.79 36.7602 185.276C36.7602 185.772 36.9288 186.194 37.2675 186.539C37.6054 186.884 38.0093 187.056 38.4785 187.056C38.705 187.056 38.9191 187.029 39.1207 186.974C39.3215 186.918 39.4696 186.862 39.5635 186.805L39.6925 186.72L40.537 188.445C40.4703 188.492 40.3786 188.55 40.2614 188.62C40.1441 188.69 39.8758 188.786 39.4579 188.906C39.0415 189.029 38.5929 189.09 38.112 189.09C37.0505 189.09 36.118 188.719 35.3146 187.975C34.5126 187.233 34.1123 186.341 34.1123 185.302C34.1123 184.256 34.5126 183.355 35.3146 182.602C36.118 181.849 37.0505 181.473 38.112 181.473C38.5929 181.473 39.0342 181.53 39.4374 181.642C39.842 181.755 40.1279 181.867 40.2965 181.978L40.537 182.147L39.6925 183.846C39.3817 183.62 38.977 183.507 38.4785 183.507Z" fill="white"/>
<path d="M47.6701 185.626H42.4271C42.4271 186.132 42.5913 186.507 42.9197 186.75C43.2482 186.991 43.6044 187.111 43.99 187.111C44.3947 187.111 44.7143 187.058 44.9489 186.951C45.1835 186.844 45.4511 186.632 45.7524 186.315L47.5557 187.211C46.8051 188.464 45.5559 189.09 43.8082 189.09C42.7174 189.09 41.782 188.719 41.002 187.975C40.2235 187.233 39.835 186.337 39.835 185.29C39.835 184.242 40.2235 183.344 41.002 182.596C41.782 181.848 42.7174 181.473 43.8082 181.473C44.9533 181.473 45.885 181.802 46.6027 182.462C47.3219 183.122 47.6818 184.064 47.6818 185.29C47.6818 185.458 47.6774 185.57 47.6701 185.626ZM42.4975 184.251H45.2451C45.1879 183.878 45.0398 183.591 44.7994 183.39C44.5604 183.188 44.2539 183.087 43.8786 183.087C43.4637 183.087 43.1345 183.195 42.8904 183.411C42.6456 183.625 42.5151 183.905 42.4975 184.251Z" fill="white"/>
<path d="M48.8837 187.99C48.2071 187.257 47.8691 186.357 47.8691 185.29C47.8691 184.224 48.2071 183.322 48.8837 182.582C49.5596 181.843 50.4188 181.473 51.4612 181.473C52.4186 181.473 53.2074 181.773 53.8276 182.372V181.686H56.323V188.88H53.8569V188.066H53.8276C53.2074 188.749 52.4186 189.09 51.4612 189.09C50.4188 189.09 49.5596 188.724 48.8837 187.99ZM51.0038 184.07C50.679 184.388 50.517 184.794 50.517 185.29C50.517 185.785 50.671 186.188 50.9803 186.501C51.2911 186.815 51.7002 186.971 52.209 186.971C52.6972 186.971 53.0989 186.813 53.4141 186.496C53.7286 186.179 53.8862 185.777 53.8862 185.29C53.8862 184.794 53.7235 184.388 53.3995 184.07C53.0747 183.751 52.6781 183.592 52.209 183.592C51.7295 183.592 51.3278 183.751 51.0038 184.07Z" fill="#787878"/>
<path d="M59.1634 181.672V185.093C59.1634 185.803 59.2704 186.308 59.4859 186.607C59.7029 186.907 60.0694 187.057 60.5855 187.057C61.1031 187.057 61.4696 186.907 61.6851 186.607C61.9021 186.308 62.0106 185.803 62.0106 185.093V181.672H64.5031V185.697C64.5031 186.893 64.1901 187.757 63.5648 188.286C62.9409 188.813 61.9476 189.076 60.5855 189.076C59.2227 189.076 58.2287 188.813 57.6034 188.286C56.9795 187.757 56.668 186.893 56.668 185.697V181.672H59.1634Z" fill="#787878"/>
<path d="M65.2968 181.675V178.996H67.7893V181.675H69.3112V183.567H67.7893V185.855C67.7893 186.519 67.977 186.85 68.3523 186.85C68.4476 186.85 68.5466 186.832 68.6485 186.795C68.7518 186.756 68.8317 186.718 68.8889 186.681L68.9739 186.625L69.5927 188.631C69.0568 188.93 68.4469 189.08 67.7629 189.08C67.2915 189.08 66.8869 188.998 66.5489 188.835C66.2102 188.671 65.9544 188.452 65.7807 188.175C65.6062 187.899 65.4823 187.609 65.4083 187.305C65.3335 187.002 65.2968 186.677 65.2968 186.331V183.567H64.2529V181.675H65.2968Z" fill="#787878"/>
<path d="M69.919 188.025C69.1171 187.315 68.7168 186.404 68.7168 185.29C68.7168 184.178 69.1339 183.263 69.9689 182.547C70.8053 181.831 71.8397 181.473 73.0713 181.473C74.283 181.473 75.3042 181.834 76.1355 182.555C76.9661 183.276 77.3818 184.187 77.3818 185.29C77.3818 186.393 76.9749 187.303 76.1619 188.019C75.3504 188.734 74.3204 189.09 73.0713 189.09C71.773 189.09 70.7225 188.736 69.919 188.025ZM71.8514 184.07C71.5267 184.388 71.3647 184.794 71.3647 185.29C71.3647 185.785 71.5186 186.188 71.828 186.501C72.1388 186.815 72.5479 186.971 73.0566 186.971C73.5448 186.971 73.9466 186.813 74.2618 186.496C74.5763 186.179 74.7339 185.777 74.7339 185.29C74.7339 184.794 74.5711 184.388 74.2471 184.07C73.9224 183.751 73.5258 183.592 73.0566 183.592C72.5772 183.592 72.1755 183.751 71.8514 184.07Z" fill="#787878"/>
<path d="M14.5618 187.54C13.9881 188.607 14.7646 189.899 15.9815 189.899H11.9852C10.7695 189.899 9.99188 188.608 10.5655 187.54L10.7851 187.131L15.5374 178.296L15.9239 177.577C16.5299 176.448 18.156 176.448 18.7621 177.577L19.3405 178.653L17.5356 182.011L14.7814 187.131L14.5618 187.54Z" fill="white"/>
<path d="M22.6974 189.9H19.7596C18.5439 189.9 17.7663 188.609 18.3399 187.541L19.0228 186.271L21.2273 182.172L24.1147 187.541C24.6907 188.609 23.9131 189.9 22.6974 189.9Z" fill="white"/>
<path d="M21.2334 182.171V182.174L19.0276 186.271C19.2184 185.911 19.2736 185.48 19.1428 185.058C19.1356 185.038 19.1296 185.017 19.1224 184.996C19.0948 184.921 19.06 184.846 19.0216 184.772L17.7879 182.478L17.5371 182.011L19.3432 178.652L19.594 179.119L20.9657 181.668L21.2334 182.171Z" fill="#787878"/>
<path d="M22.6974 189.9H19.7596C18.5439 189.9 17.7663 188.609 18.3399 187.541L19.0228 186.271L21.2273 182.172L24.1147 187.541C24.6907 188.609 23.9131 189.9 22.6974 189.9Z" fill="white"/>
<path d="M22.6974 189.9H19.7596C18.5439 189.9 17.7663 188.609 18.3399 187.541L19.0228 186.271L21.2273 182.172L24.1147 187.541C24.6907 188.609 23.9131 189.9 22.6974 189.9Z" fill="white"/>
<g opacity="0.1">
<mask id="mask14_40_1934" style="mask-type:luminance" maskUnits="userSpaceOnUse" x="17" y="178" width="3" height="5">
<path d="M19.5977 178.656H17.542V182.482H19.5977V178.656Z" fill="white"/>
</mask>
<g mask="url(#mask14_40_1934)">
<path d="M19.5967 179.122L17.7906 182.482L17.541 182.015L19.3459 178.656L19.5967 179.122Z" fill="white"/>
</g>
</g>
<g opacity="0.1">
<mask id="mask15_40_1934" style="mask-type:luminance" maskUnits="userSpaceOnUse" x="19" y="181" width="3" height="6">
<path d="M21.2409 181.668H19.0352V186.269H21.2409V181.668Z" fill="white"/>
</mask>
<g mask="url(#mask15_40_1934)">
<path d="M21.2389 182.17V182.172L19.0332 186.269C19.224 185.91 19.2792 185.478 19.1484 185.057L20.9701 181.668L21.2389 182.17Z" fill="white"/>
</g>
</g>
<g filter="url(#filter7_d_40_1934)">
<rect x="291" y="166.898" width="80" height="32.9929" rx="10" fill="#0D1117"/>
</g>
<path d="M313.754 187.986C313.077 187.253 312.739 186.353 312.739 185.286C312.739 184.22 313.077 183.318 313.754 182.578C314.43 181.839 315.289 181.469 316.331 181.469C317.289 181.469 318.078 181.769 318.698 182.368V181.682H321.193V188.876H318.727V188.062H318.698C318.078 188.745 317.289 189.086 316.331 189.086C315.289 189.086 314.43 188.72 313.754 187.986ZM315.874 184.066C315.549 184.384 315.387 184.79 315.387 185.286C315.387 185.781 315.541 186.185 315.85 186.498C316.161 186.811 316.57 186.967 317.079 186.967C317.567 186.967 317.969 186.809 318.284 186.492C318.599 186.175 318.756 185.773 318.756 185.286C318.756 184.79 318.594 184.384 318.27 184.066C317.945 183.747 317.548 183.588 317.079 183.588C316.6 183.588 316.198 183.747 315.874 184.066Z" fill="white"/>
<path d="M325.545 183.503C325.076 183.503 324.672 183.677 324.334 184.023C323.995 184.369 323.827 184.786 323.827 185.272C323.827 185.768 323.995 186.19 324.334 186.536C324.672 186.88 325.076 187.052 325.545 187.052C325.771 187.052 325.985 187.025 326.187 186.97C326.388 186.914 326.536 186.858 326.63 186.801L326.759 186.716L327.603 188.441C327.537 188.488 327.445 188.546 327.328 188.617C327.21 188.687 326.942 188.782 326.524 188.903C326.108 189.025 325.659 189.086 325.178 189.086C324.117 189.086 323.184 188.715 322.381 187.971C321.579 187.229 321.179 186.337 321.179 185.298C321.179 184.252 321.579 183.351 322.381 182.598C323.184 181.845 324.117 181.469 325.178 181.469C325.659 181.469 326.101 181.526 326.504 181.638C326.908 181.751 327.194 181.863 327.363 181.974L327.603 182.143L326.759 183.842C326.448 183.616 326.043 183.503 325.545 183.503Z" fill="white"/>
<path d="M334.725 185.622H329.482C329.482 186.128 329.646 186.503 329.974 186.746C330.303 186.987 330.659 187.108 331.045 187.108C331.449 187.108 331.769 187.054 332.004 186.947C332.238 186.841 332.506 186.628 332.807 186.311L334.61 187.207C333.86 188.46 332.611 189.086 330.863 189.086C329.772 189.086 328.837 188.715 328.057 187.971C327.278 187.229 326.89 186.333 326.89 185.286C326.89 184.238 327.278 183.34 328.057 182.592C328.837 181.844 329.772 181.469 330.863 181.469C332.008 181.469 332.94 181.799 333.657 182.458C334.377 183.118 334.737 184.061 334.737 185.286C334.737 185.454 334.732 185.566 334.725 185.622ZM329.552 184.247H332.3C332.243 183.874 332.094 183.587 331.854 183.386C331.615 183.184 331.309 183.083 330.933 183.083C330.518 183.083 330.189 183.191 329.945 183.407C329.7 183.621 329.57 183.901 329.552 184.247Z" fill="white"/>
<path d="M335.996 187.985C335.319 187.252 334.981 186.352 334.981 185.285C334.981 184.219 335.319 183.317 335.996 182.577C336.672 181.838 337.531 181.468 338.574 181.468C339.531 181.468 340.32 181.768 340.94 182.367V176.812H343.435V188.875H340.969V188.061H340.94C340.32 188.744 339.531 189.085 338.574 189.085C337.531 189.085 336.672 188.719 335.996 187.985ZM338.116 184.065C337.791 184.383 337.629 184.789 337.629 185.285C337.629 185.78 337.783 186.184 338.093 186.497C338.403 186.81 338.813 186.966 339.321 186.966C339.809 186.966 340.211 186.808 340.526 186.491C340.841 186.174 340.999 185.772 340.999 185.285C340.999 184.789 340.836 184.383 340.512 184.065C340.187 183.746 339.79 183.587 339.321 183.587C338.842 183.587 338.44 183.746 338.116 184.065Z" fill="#787878"/>
<path d="M344.423 187.986C343.746 187.253 343.408 186.353 343.408 185.286C343.408 184.22 343.746 183.318 344.423 182.578C345.099 181.839 345.958 181.469 347 181.469C347.958 181.469 348.746 181.769 349.367 182.368V181.682H351.862V188.876H349.396V188.062H349.367C348.746 188.745 347.958 189.086 347 189.086C345.958 189.086 345.099 188.72 344.423 187.986ZM346.543 184.066C346.218 184.384 346.056 184.79 346.056 185.286C346.056 185.781 346.21 186.185 346.519 186.498C346.83 186.811 347.239 186.967 347.748 186.967C348.236 186.967 348.638 186.809 348.953 186.492C349.268 186.175 349.425 185.773 349.425 185.286C349.425 184.79 349.263 184.384 348.939 184.066C348.614 183.747 348.217 183.588 347.748 183.588C347.269 183.588 346.867 183.747 346.543 184.066Z" fill="#787878"/>
<path d="M352.773 181.691V179.012H355.266V181.691H356.788V183.582H355.266V185.871C355.266 186.535 355.454 186.866 355.829 186.866C355.924 186.866 356.023 186.848 356.125 186.81C356.228 186.772 356.308 186.734 356.365 186.697L356.451 186.641L357.069 188.646C356.533 188.945 355.923 189.096 355.239 189.096C354.768 189.096 354.363 189.014 354.025 188.85C353.687 188.687 353.431 188.467 353.257 188.191C353.083 187.915 352.959 187.625 352.885 187.321C352.81 187.018 352.773 186.693 352.773 186.346V183.582H351.729V181.691H352.773Z" fill="#787878"/>
<path d="M357.215 187.986C356.538 187.253 356.2 186.353 356.2 185.286C356.2 184.22 356.538 183.318 357.215 182.578C357.891 181.839 358.75 181.469 359.792 181.469C360.75 181.469 361.538 181.769 362.159 182.368V181.682H364.654V188.876H362.188V188.062H362.159C361.538 188.745 360.75 189.086 359.792 189.086C358.75 189.086 357.891 188.72 357.215 187.986ZM359.335 184.066C359.01 184.384 358.848 184.79 358.848 185.286C358.848 185.781 359.002 186.185 359.311 186.498C359.622 186.811 360.031 186.967 360.54 186.967C361.028 186.967 361.43 186.809 361.745 186.492C362.06 186.175 362.217 185.773 362.217 185.286C362.217 184.79 362.055 184.384 361.731 184.066C361.406 183.747 361.009 183.588 360.54 183.588C360.061 183.588 359.659 183.747 359.335 184.066Z" fill="#787878"/>
<path d="M301.563 187.544C300.989 188.611 301.766 189.903 302.982 189.903H298.986C297.771 189.903 296.993 188.612 297.566 187.544L297.786 187.134L302.538 178.3L302.925 177.581C303.531 176.452 305.157 176.452 305.763 177.581L306.341 178.657L304.537 182.015L301.782 187.134L301.563 187.544Z" fill="white"/>
<path d="M309.697 189.904H306.76C305.544 189.904 304.766 188.613 305.34 187.545L306.023 186.275L308.227 182.176L311.115 187.545C311.691 188.613 310.913 189.904 309.697 189.904Z" fill="white"/>
<path d="M308.234 182.175V182.178L306.029 186.275C306.219 185.915 306.275 185.484 306.144 185.062C306.137 185.042 306.131 185.02 306.123 185C306.096 184.925 306.061 184.85 306.023 184.776L304.789 182.482L304.538 182.015L306.344 178.656L306.595 179.123L307.967 181.672L308.234 182.175Z" fill="#787878"/>
<path d="M309.697 189.904H306.76C305.544 189.904 304.766 188.613 305.34 187.545L306.023 186.275L308.227 182.176L311.115 187.545C311.691 188.613 310.913 189.904 309.697 189.904Z" fill="white"/>
<path d="M309.697 189.904H306.76C305.544 189.904 304.766 188.613 305.34 187.545L306.023 186.275L308.227 182.176L311.115 187.545C311.691 188.613 310.913 189.904 309.697 189.904Z" fill="white"/>
<g opacity="0.1">
<mask id="mask16_40_1934" style="mask-type:luminance" maskUnits="userSpaceOnUse" x="304" y="178" width="3" height="5">
<path d="M306.598 178.656H304.542V182.482H306.598V178.656Z" fill="white"/>
</mask>
<g mask="url(#mask16_40_1934)">
<path d="M306.596 179.122L304.79 182.482L304.54 182.015L306.345 178.656L306.596 179.122Z" fill="white"/>
</g>
</g>
<g opacity="0.1">
<mask id="mask17_40_1934" style="mask-type:luminance" maskUnits="userSpaceOnUse" x="306" y="181" width="3" height="6">
<path d="M308.241 181.668H306.035V186.269H308.241V181.668Z" fill="white"/>
</mask>
<g mask="url(#mask17_40_1934)">
<path d="M308.24 182.17V182.172L306.034 186.269C306.225 185.91 306.28 185.478 306.149 185.057L307.971 181.668L308.24 182.17Z" fill="white"/>
</g>
</g>
<defs>
<filter id="filter0_d_40_1934" x="20" y="253.477" width="88" height="40.9922" filterUnits="userSpaceOnUse" color-interpolation-filters="sRGB">
<feFlood flood-opacity="0" result="BackgroundImageFix"/>
<feColorMatrix in="SourceAlpha" type="matrix" values="0 0 0 0 0 0 0 0 0 0 0 0 0 0 0 0 0 0 127 0" result="hardAlpha"/>
<feOffset/>
<feGaussianBlur stdDeviation="2"/>
<feComposite in2="hardAlpha" operator="out"/>
<feColorMatrix type="matrix" values="0 0 0 0 0 0 0 0 0 0 0 0 0 0 0 0 0 0 0.25 0"/>
<feBlend mode="normal" in2="BackgroundImageFix" result="effect1_dropShadow_40_1934"/>
<feBlend mode="normal" in="SourceGraphic" in2="effect1_dropShadow_40_1934" result="shape"/>
</filter>
<filter id="filter1_d_40_1934" x="144" y="322.156" width="88" height="40.9922" filterUnits="userSpaceOnUse" color-interpolation-filters="sRGB">
<feFlood flood-opacity="0" result="BackgroundImageFix"/>
<feColorMatrix in="SourceAlpha" type="matrix" values="0 0 0 0 0 0 0 0 0 0 0 0 0 0 0 0 0 0 127 0" result="hardAlpha"/>
<feOffset/>
<feGaussianBlur stdDeviation="2"/>
<feComposite in2="hardAlpha" operator="out"/>
<feColorMatrix type="matrix" values="0 0 0 0 0 0 0 0 0 0 0 0 0 0 0 0 0 0 0.25 0"/>
<feBlend mode="normal" in2="BackgroundImageFix" result="effect1_dropShadow_40_1934"/>
<feBlend mode="normal" in="SourceGraphic" in2="effect1_dropShadow_40_1934" result="shape"/>
</filter>
<filter id="filter2_d_40_1934" x="144" y="0.660156" width="88" height="40.8242" filterUnits="userSpaceOnUse" color-interpolation-filters="sRGB">
<feFlood flood-opacity="0" result="BackgroundImageFix"/>
<feColorMatrix in="SourceAlpha" type="matrix" values="0 0 0 0 0 0 0 0 0 0 0 0 0 0 0 0 0 0 127 0" result="hardAlpha"/>
<feOffset/>
<feGaussianBlur stdDeviation="2"/>
<feComposite in2="hardAlpha" operator="out"/>
<feColorMatrix type="matrix" values="0 0 0 0 0 0 0 0 0 0 0 0 0 0 0 0 0 0 0.25 0"/>
<feBlend mode="normal" in2="BackgroundImageFix" result="effect1_dropShadow_40_1934"/>
<feBlend mode="normal" in="SourceGraphic" in2="effect1_dropShadow_40_1934" result="shape"/>
</filter>
<filter id="filter3_d_40_1934" x="267" y="253.477" width="88" height="40.9922" filterUnits="userSpaceOnUse" color-interpolation-filters="sRGB">
<feFlood flood-opacity="0" result="BackgroundImageFix"/>
<feColorMatrix in="SourceAlpha" type="matrix" values="0 0 0 0 0 0 0 0 0 0 0 0 0 0 0 0 0 0 127 0" result="hardAlpha"/>
<feOffset/>
<feGaussianBlur stdDeviation="2"/>
<feComposite in2="hardAlpha" operator="out"/>
<feColorMatrix type="matrix" values="0 0 0 0 0 0 0 0 0 0 0 0 0 0 0 0 0 0 0.25 0"/>
<feBlend mode="normal" in2="BackgroundImageFix" result="effect1_dropShadow_40_1934"/>
<feBlend mode="normal" in="SourceGraphic" in2="effect1_dropShadow_40_1934" result="shape"/>
</filter>
<filter id="filter4_d_40_1934" x="268" y="65.3555" width="88" height="40.9922" filterUnits="userSpaceOnUse" color-interpolation-filters="sRGB">
<feFlood flood-opacity="0" result="BackgroundImageFix"/>
<feColorMatrix in="SourceAlpha" type="matrix" values="0 0 0 0 0 0 0 0 0 0 0 0 0 0 0 0 0 0 127 0" result="hardAlpha"/>
<feOffset/>
<feGaussianBlur stdDeviation="2"/>
<feComposite in2="hardAlpha" operator="out"/>
<feColorMatrix type="matrix" values="0 0 0 0 0 0 0 0 0 0 0 0 0 0 0 0 0 0 0.25 0"/>
<feBlend mode="normal" in2="BackgroundImageFix" result="effect1_dropShadow_40_1934"/>
<feBlend mode="normal" in="SourceGraphic" in2="effect1_dropShadow_40_1934" result="shape"/>
</filter>
<filter id="filter5_d_40_1934" x="18" y="65.3555" width="88" height="40.9922" filterUnits="userSpaceOnUse" color-interpolation-filters="sRGB">
<feFlood flood-opacity="0" result="BackgroundImageFix"/>
<feColorMatrix in="SourceAlpha" type="matrix" values="0 0 0 0 0 0 0 0 0 0 0 0 0 0 0 0 0 0 127 0" result="hardAlpha"/>
<feOffset/>
<feGaussianBlur stdDeviation="2"/>
<feComposite in2="hardAlpha" operator="out"/>
<feColorMatrix type="matrix" values="0 0 0 0 0 0 0 0 0 0 0 0 0 0 0 0 0 0 0.25 0"/>
<feBlend mode="normal" in2="BackgroundImageFix" result="effect1_dropShadow_40_1934"/>
<feBlend mode="normal" in="SourceGraphic" in2="effect1_dropShadow_40_1934" result="shape"/>
</filter>
<filter id="filter6_d_40_1934" x="0" y="162.898" width="88" height="40.9922" filterUnits="userSpaceOnUse" color-interpolation-filters="sRGB">
<feFlood flood-opacity="0" result="BackgroundImageFix"/>
<feColorMatrix in="SourceAlpha" type="matrix" values="0 0 0 0 0 0 0 0 0 0 0 0 0 0 0 0 0 0 127 0" result="hardAlpha"/>
<feOffset/>
<feGaussianBlur stdDeviation="2"/>
<feComposite in2="hardAlpha" operator="out"/>
<feColorMatrix type="matrix" values="0 0 0 0 0 0 0 0 0 0 0 0 0 0 0 0 0 0 0.25 0"/>
<feBlend mode="normal" in2="BackgroundImageFix" result="effect1_dropShadow_40_1934"/>
<feBlend mode="normal" in="SourceGraphic" in2="effect1_dropShadow_40_1934" result="shape"/>
</filter>
<filter id="filter7_d_40_1934" x="287" y="162.898" width="88" height="40.9922" filterUnits="userSpaceOnUse" color-interpolation-filters="sRGB">
<feFlood flood-opacity="0" result="BackgroundImageFix"/>
<feColorMatrix in="SourceAlpha" type="matrix" values="0 0 0 0 0 0 0 0 0 0 0 0 0 0 0 0 0 0 127 0" result="hardAlpha"/>
<feOffset/>
<feGaussianBlur stdDeviation="2"/>
<feComposite in2="hardAlpha" operator="out"/>
<feColorMatrix type="matrix" values="0 0 0 0 0 0 0 0 0 0 0 0 0 0 0 0 0 0 0.25 0"/>
<feBlend mode="normal" in2="BackgroundImageFix" result="effect1_dropShadow_40_1934"/>
<feBlend mode="normal" in="SourceGraphic" in2="effect1_dropShadow_40_1934" result="shape"/>
</filter>
<linearGradient id="paint0_linear_40_1934" x1="249" y1="181.829" x2="127" y2="181.829" gradientUnits="userSpaceOnUse">
<stop stop-color="#FF88C3"/>
<stop offset="1" stop-color="#9B86FE"/>
</linearGradient>
</defs>
</svg>
