<svg width="178" height="465" viewBox="0 0 178 465" fill="none" xmlns="http://www.w3.org/2000/svg">
<path d="M0.666667 6C0.666667 8.94552 3.05448 11.3333 6 11.3333C8.94552 11.3333 11.3333 8.94552 11.3333 6C11.3333 3.05448 8.94552 0.666667 6 0.666667C3.05448 0.666667 0.666667 3.05448 0.666667 6ZM166.667 459C166.667 461.946 169.054 464.333 172 464.333C174.946 464.333 177.333 461.946 177.333 459C177.333 456.054 174.946 453.667 172 453.667C169.054 453.667 166.667 456.054 166.667 459ZM5.06106 6.34407L171.061 459.344L172.939 458.656L6.93894 5.65593L5.06106 6.34407Z" fill="#5747A5"/>
</svg>
