<svg width="176" height="178" viewBox="0 0 176 178" fill="none" xmlns="http://www.w3.org/2000/svg">
<path d="M6 177.333C8.94552 177.333 11.3333 174.946 11.3333 172C11.3333 169.054 8.94552 166.667 6 166.667C3.05448 166.667 0.666666 169.054 0.666667 172C0.666667 174.946 3.05448 177.333 6 177.333ZM170 11.3333C172.946 11.3333 175.333 8.9455 175.333 5.99999C175.333 3.05447 172.946 0.666649 170 0.666649C167.054 0.666649 164.667 3.05447 164.667 5.99999C164.667 8.9455 167.054 11.3333 170 11.3333ZM6.71138 172.703L170.711 6.7028L169.289 5.29717L5.28862 171.297L6.71138 172.703Z" fill="#5747A5"/>
</svg>
