<svg width="12" height="12" viewBox="0 0 12 12" fill="none" xmlns="http://www.w3.org/2000/svg">
<path d="M3.43673 0.398438C3.54256 0.398438 3.64404 0.440475 3.71887 0.515302C3.7937 0.590129 3.83574 0.691616 3.83574 0.797437V1.54357H8.12043V0.802567C8.12043 0.696746 8.16246 0.595259 8.23729 0.520432C8.31212 0.445605 8.4136 0.403567 8.51943 0.403567C8.62525 0.403567 8.72673 0.445605 8.80156 0.520432C8.87639 0.595259 8.91842 0.696746 8.91842 0.802567V1.54357H10.4631C10.7654 1.54357 11.0553 1.6636 11.269 1.87726C11.4828 2.09093 11.603 2.38075 11.6031 2.683V10.659C11.603 10.9613 11.4828 11.2511 11.269 11.4647C11.0553 11.6784 10.7654 11.7984 10.4631 11.7984H1.34312C1.04088 11.7984 0.751 11.6784 0.537225 11.4647C0.32345 11.2511 0.203276 10.9613 0.203125 10.659L0.203125 2.683C0.203276 2.38075 0.32345 2.09093 0.537225 1.87726C0.751 1.6636 1.04088 1.54357 1.34312 1.54357H3.03773V0.796867C3.03789 0.691145 3.07999 0.589804 3.1548 0.5151C3.22961 0.440397 3.33101 0.398437 3.43673 0.398438ZM1.00112 4.81138V10.659C1.00112 10.7039 1.00997 10.7484 1.02716 10.7899C1.04435 10.8314 1.06954 10.8691 1.10129 10.9008C1.13305 10.9326 1.17075 10.9578 1.21225 10.975C1.25374 10.9922 1.29821 11.001 1.34312 11.001H10.4631C10.508 11.001 10.5525 10.9922 10.594 10.975C10.6355 10.9578 10.6732 10.9326 10.705 10.9008C10.7367 10.8691 10.7619 10.8314 10.7791 10.7899C10.7963 10.7484 10.8051 10.7039 10.8051 10.659V4.81936L1.00112 4.81138ZM4.00331 8.73127V9.68089H3.05312V8.73127H4.00331ZM6.37793 8.73127V9.68089H5.42831V8.73127H6.37793ZM8.75313 8.73127V9.68089H7.80294V8.73127H8.75313ZM4.00331 6.46438V7.414H3.05312V6.46438H4.00331ZM6.37793 6.46438V7.414H5.42831V6.46438H6.37793ZM8.75313 6.46438V7.414H7.80294V6.46438H8.75313ZM3.03773 2.341H1.34312C1.29821 2.341 1.25374 2.34984 1.21225 2.36703C1.17075 2.38422 1.13305 2.40941 1.10129 2.44117C1.06954 2.47292 1.04435 2.51063 1.02716 2.55212C1.00997 2.59361 1.00112 2.63809 1.00112 2.683V4.01395L10.8051 4.02193V2.683C10.8051 2.63809 10.7963 2.59361 10.7791 2.55212C10.7619 2.51063 10.7367 2.47292 10.705 2.44117C10.6732 2.40941 10.6355 2.38422 10.594 2.36703C10.5525 2.34984 10.508 2.341 10.4631 2.341H8.91842V2.87053C8.91842 2.97635 8.87639 3.07784 8.80156 3.15266C8.72673 3.22749 8.62525 3.26953 8.51943 3.26953C8.4136 3.26953 8.31212 3.22749 8.23729 3.15266C8.16246 3.07784 8.12043 2.97635 8.12043 2.87053V2.341H3.83574V2.8654C3.83574 2.97122 3.7937 3.07271 3.71887 3.14753C3.64404 3.22236 3.54256 3.2644 3.43673 3.2644C3.33091 3.2644 3.22943 3.22236 3.1546 3.14753C3.07977 3.07271 3.03773 2.97122 3.03773 2.8654V2.341Z" fill="#5747A5"/>
</svg>
