<svg width="54" height="63" viewBox="0 0 54 63" fill="none" xmlns="http://www.w3.org/2000/svg">
<path d="M3 0.0771713L0.0771618 3L3 5.92284L5.92283 3L3 0.0771713ZM51 63L53.9228 57.9375L48.0772 57.9375L51 63ZM48.012 30.9068L48.012 30.4006L48.012 30.9068ZM5.98117 30.9068L5.98117 30.4006L5.98117 30.9068ZM51.5063 52.0901L51.5063 44.8168L50.4938 44.8168L50.4938 52.0901L51.5063 52.0901ZM51.5063 37.5435L51.5063 33.9068L50.4938 33.9068L50.4938 37.5435L51.5063 37.5435ZM51.5063 33.9068C51.5063 33.4336 51.413 32.9809 51.243 32.5674L50.3065 32.9523C50.427 33.2455 50.4938 33.5676 50.4938 33.9068L51.5063 33.9068ZM49.3527 30.6669C48.9395 30.4951 48.4864 30.4006 48.012 30.4006L48.012 31.4131C48.351 31.4131 48.672 31.4804 48.9639 31.6018L49.3527 30.6669ZM48.012 30.4006C46.9741 30.4006 45.7985 30.4006 44.5152 30.4006L44.5152 31.4131C45.7984 31.4131 46.9741 31.4131 48.012 31.4131L48.012 30.4006ZM37.5084 30.4006C35.2646 30.4006 32.8984 30.4006 30.4999 30.4006L30.4999 31.4131C32.8984 31.4131 35.2646 31.4131 37.5084 31.4131L37.5084 30.4006ZM23.493 30.4006C21.0669 30.4006 18.6987 30.4006 16.4842 30.4006L16.4842 31.4131C18.6987 31.4131 21.0669 31.4131 23.493 31.4131L23.493 30.4006ZM9.47701 30.4006C8.13429 30.4006 6.95381 30.4006 5.98117 30.4006L5.98117 31.4131C6.95381 31.4131 8.13429 31.4131 9.47701 31.4131L9.47701 30.4006ZM5.98117 30.4006C5.64227 30.4006 5.32175 30.3333 5.03067 30.212L4.64134 31.1467C5.05409 31.3186 5.5068 31.4131 5.98117 31.4131L5.98117 30.4006ZM3.69247 28.8614C3.57262 28.5683 3.50625 28.2462 3.50625 27.9068L2.49375 27.9068C2.49375 28.3793 2.58636 28.8315 2.75529 29.2446L3.69247 28.8614ZM3.50625 27.9068L3.50625 24.7935L2.49375 24.7935L2.49375 27.9068L3.50625 27.9068ZM3.50625 18.5668L3.50625 12.3401L2.49375 12.3401L2.49375 18.5668L3.50625 18.5668ZM3.50625 6.11336L3.50625 3L2.49375 3L2.49375 6.11336L3.50625 6.11336Z" fill="url(#paint0_linear_40_5428)"/>
<defs>
<linearGradient id="paint0_linear_40_5428" x1="3" y1="16.9538" x2="99" y2="16.9538" gradientUnits="userSpaceOnUse">
<stop stop-color="#382C78"/>
<stop offset="1" stop-color="#39863D"/>
</linearGradient>
</defs>
</svg>
