<svg width="51" height="51" viewBox="0 0 51 51" fill="none" xmlns="http://www.w3.org/2000/svg">
<g filter="url(#filter0_d_40_4458)">
<circle cx="25.275" cy="25.275" r="22.275" fill="#5747A5"/>
</g>
<path d="M20.2357 40.6549C23.0169 40.6549 25.2741 38.3977 25.2741 35.6165V30.5781H20.2357C17.4545 30.5781 15.1973 32.8353 15.1973 35.6165C15.1973 38.3977 17.4545 40.6549 20.2357 40.6549Z" fill="#0ACF83"/>
<path d="M15.1973 25.5384C15.1973 22.7572 17.4545 20.5 20.2357 20.5H25.2741V30.5768H20.2357C17.4545 30.5768 15.1973 28.3196 15.1973 25.5384Z" fill="#A259FF"/>
<path d="M15.1973 15.4642C15.1973 12.683 17.4545 10.4258 20.2357 10.4258H25.2741V20.5026H20.2357C17.4545 20.5026 15.1973 18.2454 15.1973 15.4642Z" fill="#F24E1E"/>
<path d="M25.2734 10.4258H30.3118C33.093 10.4258 35.3502 12.683 35.3502 15.4642C35.3502 18.2454 33.093 20.5026 30.3118 20.5026H25.2734V10.4258Z" fill="#FF7262"/>
<path d="M35.3502 25.5384C35.3502 28.3196 33.093 30.5768 30.3118 30.5768C27.5306 30.5768 25.2734 28.3196 25.2734 25.5384C25.2734 22.7572 27.5306 20.5 30.3118 20.5C33.093 20.5 35.3502 22.7572 35.3502 25.5384Z" fill="#1ABCFE"/>
<defs>
<filter id="filter0_d_40_4458" x="0.3" y="0.3" width="49.9508" height="49.9508" filterUnits="userSpaceOnUse" color-interpolation-filters="sRGB">
<feFlood flood-opacity="0" result="BackgroundImageFix"/>
<feColorMatrix in="SourceAlpha" type="matrix" values="0 0 0 0 0 0 0 0 0 0 0 0 0 0 0 0 0 0 127 0" result="hardAlpha"/>
<feOffset/>
<feGaussianBlur stdDeviation="1.35"/>
<feComposite in2="hardAlpha" operator="out"/>
<feColorMatrix type="matrix" values="0 0 0 0 0 0 0 0 0 0 0 0 0 0 0 0 0 0 0.25 0"/>
<feBlend mode="normal" in2="BackgroundImageFix" result="effect1_dropShadow_40_4458"/>
<feBlend mode="normal" in="SourceGraphic" in2="effect1_dropShadow_40_4458" result="shape"/>
</filter>
</defs>
</svg>
