<svg width="23" height="23" viewBox="0 0 23 23" fill="none" xmlns="http://www.w3.org/2000/svg">
<circle cx="11.3176" cy="11.3176" r="11.3176" fill="#8167FF"/>
<path d="M16.7 7H6.3C5.585 7 5.0065 7.50625 5.0065 8.125L5 14.875C5 15.4937 5.585 16 6.3 16H16.7C17.415 16 18 15.4937 18 14.875V8.125C18 7.50625 17.415 7 16.7 7ZM16.44 9.39062L11.8445 11.8769C11.6365 11.9894 11.3635 11.9894 11.1555 11.8769L6.56 9.39062C6.49482 9.35896 6.43775 9.31618 6.39223 9.26488C6.34671 9.21358 6.31369 9.15481 6.29517 9.09215C6.27666 9.02948 6.27303 8.96421 6.2845 8.9003C6.29598 8.83638 6.32232 8.77515 6.36193 8.72029C6.40155 8.66544 6.45361 8.61812 6.51497 8.58118C6.57633 8.54425 6.64572 8.51848 6.71892 8.50542C6.79213 8.49236 6.86763 8.49229 6.94087 8.50522C7.01411 8.51815 7.08355 8.5438 7.145 8.58062L11.5 10.9375L15.855 8.58062C15.9164 8.5438 15.9859 8.51815 16.0591 8.50522C16.1324 8.49229 16.2079 8.49236 16.2811 8.50542C16.3543 8.51848 16.4237 8.54425 16.485 8.58118C16.5464 8.61812 16.5985 8.66544 16.6381 8.72029C16.6777 8.77515 16.704 8.83638 16.7155 8.9003C16.727 8.96421 16.7233 9.02948 16.7048 9.09215C16.6863 9.15481 16.6533 9.21358 16.6078 9.26488C16.5623 9.31618 16.5052 9.35896 16.44 9.39062Z" fill="white"/>
</svg>
