<svg width="110" height="110" viewBox="0 0 110 110" fill="none" xmlns="http://www.w3.org/2000/svg">
<g filter="url(#filter0_i_1_45087)">
<circle cx="54.7014" cy="55.3616" r="47.7092" fill="#5747A5"/>
</g>
<circle cx="54.7006" cy="55.3608" r="54.0248" stroke="#5747A5" stroke-dasharray="10 10"/>
<path d="M45.5076 32.9688C45.0947 32.9671 44.6855 33.048 44.3035 33.2067C43.9216 33.3655 43.5744 33.5989 43.2818 33.8937C42.9893 34.1885 42.7571 34.5389 42.5987 34.9246C42.4403 35.3104 42.3588 35.724 42.3588 36.1418V45.636H31.332L36.5636 54.8699V73.5855C36.5604 74.0043 36.6391 74.4196 36.7953 74.8074C36.9515 75.1952 37.182 75.548 37.4736 75.8452C37.7652 76.1425 38.112 76.3784 38.4942 76.5395C38.8763 76.7005 39.2862 76.7833 39.7001 76.7833H64.3144C65.1452 76.7768 65.9398 76.4383 66.525 75.8416C67.1103 75.245 67.4386 74.4385 67.4386 73.5979V64.1038H70.6241C71.0375 64.107 71.4474 64.0273 71.8301 63.8692C72.2128 63.711 72.5607 63.4776 72.8535 63.1825C73.1464 62.8874 73.3785 62.5364 73.5363 62.1498C73.6941 61.7633 73.7745 61.349 73.7729 60.9308V42.1903L79.0412 32.9688H45.5076ZM67.4386 60.4598V48.8213C67.4386 47.9787 67.1086 47.1703 66.5207 46.5733C65.9328 45.9763 65.1351 45.6392 64.3021 45.636H45.9241M46.6102 55.1177C47.2179 55.1177 47.8006 55.3619 48.2303 55.7966C48.66 56.2313 48.9014 56.8208 48.9014 57.4355C48.9014 58.0502 48.66 58.6398 48.2303 59.0744C47.8006 59.5091 47.2179 59.7533 46.6102 59.7533C46.0026 59.7533 45.4199 59.5091 44.9902 59.0744C44.5605 58.6398 44.3191 58.0502 44.3191 57.4355C44.3191 56.8208 44.5605 56.2313 44.9902 55.7966C45.4199 55.3619 46.0026 55.1177 46.6102 55.1177ZM57.3307 55.1177C57.7926 55.088 58.2526 55.2004 58.65 55.4403C59.0475 55.6801 59.3638 56.0361 59.5574 56.4614C59.751 56.8867 59.8127 57.3613 59.7345 57.8227C59.6562 58.2842 59.4417 58.7108 59.119 59.0465C58.7964 59.3822 58.3809 59.6112 57.9271 59.7033C57.4734 59.7954 57.0027 59.7464 56.577 59.5626C56.1514 59.3788 55.7907 59.0689 55.5425 58.6738C55.2943 58.2786 55.1702 57.8166 55.1866 57.3488C55.1991 56.7512 55.4394 56.1816 55.8572 55.7589C56.275 55.3362 56.838 55.0932 57.4287 55.0806L57.3307 55.1177ZM44.1599 63.9922H59.8914C59.3892 65.7102 58.3513 67.2179 56.9326 68.2901C55.5139 69.3624 53.7904 69.9418 52.0195 69.9418C50.2486 69.9418 48.5251 69.3624 47.1064 68.2901C45.6877 67.2179 44.6498 65.7102 44.1476 63.9922H44.1599ZM42.3588 45.636H45.9486H42.3588ZM67.4754 60.4598V64.1038V60.4598ZM48.9259 41.1244H67.7082H48.9259Z" fill="#F8F8F8"/>
<defs>
<filter id="filter0_i_1_45087" x="6.99219" y="7.65234" width="95.418" height="95.418" filterUnits="userSpaceOnUse" color-interpolation-filters="sRGB">
<feFlood flood-opacity="0" result="BackgroundImageFix"/>
<feBlend mode="normal" in="SourceGraphic" in2="BackgroundImageFix" result="shape"/>
<feColorMatrix in="SourceAlpha" type="matrix" values="0 0 0 0 0 0 0 0 0 0 0 0 0 0 0 0 0 0 127 0" result="hardAlpha"/>
<feOffset/>
<feGaussianBlur stdDeviation="12"/>
<feComposite in2="hardAlpha" operator="arithmetic" k2="-1" k3="1"/>
<feColorMatrix type="matrix" values="0 0 0 0 0 0 0 0 0 0 0 0 0 0 0 0 0 0 0.25 0"/>
<feBlend mode="normal" in2="shape" result="effect1_innerShadow_1_45087"/>
</filter>
</defs>
</svg>
