<svg width="142" height="110" viewBox="0 0 142 110" fill="none" xmlns="http://www.w3.org/2000/svg">
<path d="M99.0448 62.4922C99.0448 62.4922 103.036 69.3966 105.186 71.0409C107.336 72.6852 107.95 76.3018 105.186 76.6305C102.422 76.9592 96.2812 75.3156 96.2812 75.3156L99.0448 62.4922Z" fill="#F2C5AD"/>
<path d="M59.1268 80.9034L48.9941 56.2441L55.1353 37.5031L75.7083 32.2422L93.2107 37.5031C93.2107 37.5031 99.6588 46.7092 99.9658 59.2032C100.152 66.7736 101.792 89.8553 93.2107 94.3843C87.2971 97.505 83.0773 96.686 83.0773 96.686L83.3711 107.802H55.429L59.1268 80.9034Z" fill="#F2C5AD"/>
<path opacity="0.5" d="M65.7272 19.3673C65.3428 18.7049 65.0014 18.0149 64.6958 17.3064C63.9078 15.4822 63.3818 13.5276 63.1575 11.5312C67.7293 15.2973 73.1433 17.8831 78.8153 19.0081C77.3664 16.8842 76.538 14.2821 76.4732 11.6524C78.9993 14.2538 82.4754 15.4964 85.3064 17.7095C87.4991 19.424 89.2583 21.6839 90.9944 23.919C92.5492 25.9218 94.1265 27.9642 95.06 30.3686C95.8387 32.3742 96.1259 34.5902 95.9168 36.7488C95.7944 38.012 96.2099 40.5007 95.9016 41.6576C93.9756 40.2974 93.1837 38.7006 91.0546 37.5607C88.598 36.2458 89.9371 39.0945 89.9371 39.0945L66.9075 38.1083L72.4347 43.6979C72.4347 43.6979 68.1362 43.3692 66.9075 46.3283C65.6796 49.2875 65.0649 49.2875 66.9075 51.2605C68.7502 53.2335 70.5921 54.2196 70.8991 56.5214C71.2061 58.8231 75.5158 68.7263 72.1899 69.7203C69.7512 70.4493 67.8285 71.3171 67.8285 71.3171L66.9075 65.7275C66.9075 65.7275 59.7052 56.0297 57.0819 63.7545C54.6253 70.9877 55.5463 73.6181 57.6959 75.2624C59.8454 76.9067 63.223 77.2354 63.223 77.2354C63.223 77.2354 65.9866 79.8658 61.3804 84.1398C59.9976 85.4228 59.4359 86.3481 58.1226 87.009C10.6999 25.8155 65.7272 19.3673 65.7272 19.3673Z" fill="#9B86FE"/>
<path opacity="0.5" d="M92.677 19.6061C89.4847 16.7468 85.8299 14.4543 82.9909 11.1962C80.4113 8.23635 78.5872 4.5298 77.7654 0.578125C75.8745 4.15787 74.3938 8.06491 74.069 12.1625C73.7441 16.2601 74.6724 20.5788 77.1435 23.7271C72.4275 24.998 67.6645 26.0685 62.8691 26.9342C68.0761 29.2819 73.8526 29.5724 79.4288 30.5486C83.0736 31.1862 86.6973 32.2028 89.9412 34.1404C91.6091 35.1372 95.901 41.6591 95.901 41.6591C95.901 41.6591 101.258 34.8304 98.5601 28.0663C97.2494 24.7819 95.1898 21.8575 92.677 19.6061Z" fill="#9B86FE"/>
<path d="M117.593 96.8042C116.225 98.0234 112.56 99.5749 107.746 97.3546C110.309 95.3462 117.593 96.8042 117.593 96.8042Z" fill="#3E9BB3"/>
<path d="M124.914 105.738C124.817 105.657 124.677 105.206 124.502 104.696C124.393 104.383 124.273 104.051 124.14 103.766C123.991 103.448 123.829 103.189 123.652 103.087C123.058 102.742 115.434 99.1552 115.219 98.9249C115.163 98.8654 115.106 98.7996 115.048 98.711C114.948 98.5622 114.846 98.3483 114.737 97.9926C114.664 97.7525 114.588 97.4471 114.51 97.0525C114.51 97.0525 114.862 96.976 115.332 96.8967C116.112 96.7649 117.219 96.6232 117.594 96.8053C118.194 97.0965 122.778 101.364 123.504 101.753C123.708 101.862 123.906 101.927 124.087 101.968C124.55 102.076 124.897 102.035 124.915 102.212C124.939 102.46 125.137 105.924 124.914 105.738Z" fill="#FCDBC4"/>
<path d="M124.915 105.738C124.758 105.607 124.491 104.521 124.141 103.767C124.453 104.104 124.679 103.219 124.088 101.969C124.551 102.076 124.898 102.035 124.916 102.212C124.939 102.46 125.137 105.924 124.915 105.738Z" fill="#39316D"/>
<path d="M124.502 104.696C124.394 104.385 124.274 104.054 124.141 103.769C123.992 103.451 123.829 103.192 123.653 103.089C123.059 102.744 115.435 99.1577 115.22 98.9274C115.163 98.8679 115.107 98.802 115.048 98.7135C114.882 98.4634 114.706 98.0341 114.51 97.0543C114.51 97.0543 114.862 96.9778 115.332 96.8984C116.116 98.2055 122.799 101.792 123.529 102.373C124.105 102.831 124.394 104.093 124.502 104.696Z" fill="#666666"/>
<path d="M117.594 96.8053C116.041 97.0703 114.721 97.5895 114.737 97.9926C114.664 97.7525 114.588 97.4471 114.51 97.0525C114.51 97.0525 114.862 96.976 115.332 96.8967C116.112 96.7649 117.219 96.6232 117.594 96.8053Z" fill="#3B3B3B"/>
<path d="M109.843 99.5868C109.686 102.508 108.63 107.279 108.617 107.601C108.61 107.805 108.654 108.167 108.691 108.517C108.73 108.895 108.76 109.257 108.7 109.386C108.677 109.434 105.67 109.694 105.63 109.545C105.597 109.423 106.467 109.328 107.097 108.761C107.427 108.463 107.692 108.162 107.726 107.919C107.824 107.212 106.917 98.607 107.14 97.1752C107.14 97.1752 107.921 96.6893 108.677 96.8246C109.039 96.889 109.394 97.0945 109.656 97.5642C109.852 97.9142 109.894 98.6566 109.843 99.5868Z" fill="#FCDBC4"/>
<path d="M109.845 99.5903C109.688 102.511 108.632 107.283 108.619 107.604C108.612 107.808 108.656 108.17 108.693 108.52C108.732 108.899 108.762 109.261 108.702 109.389C108.679 109.438 108.33 109.384 108.322 109.282C108.2 107.591 109.312 100.121 108.679 96.8281C109.041 96.8926 109.396 97.098 109.658 97.5677C109.854 97.9177 109.896 98.6601 109.845 99.5903Z" fill="#666666"/>
<path d="M109.844 99.5905C109.601 98.8225 108.676 98.0531 107.141 97.1789C107.141 97.1789 108.849 96.1184 109.658 97.5679C109.853 97.9178 109.895 98.6603 109.844 99.5905Z" fill="#3B3B3B"/>
<path d="M117.593 96.8063C117.593 96.8063 116.201 96.6738 114.146 97.6543C112.092 98.6355 107.141 97.1775 107.141 97.1775C107.141 97.1775 108.891 92.4919 110.12 89.6376C110.367 89.0637 110.593 88.5636 110.78 88.1916C111.893 85.965 112.772 85.6668 114.536 86.1343C114.986 86.4971 115.373 87.2544 115.693 88.1548C116.135 89.3981 116.45 90.9128 116.622 92.0349C116.919 93.9697 117.593 96.8063 117.593 96.8063Z" fill="#9B86FE"/>
<path d="M111.06 80.9893C109.765 81.3159 110.433 86.0079 111.06 86.3968C111.687 86.7858 114.756 86.3968 114.987 85.7961C115.218 85.1953 114.823 81.6963 114.492 81.4845C114.162 81.272 111.621 80.8476 111.06 80.9893Z" fill="#D0F2F8"/>
<path d="M110.817 81.1211C109.971 81.8217 108.964 84.6845 108.04 85.4617C107.116 86.2388 106.126 87.6883 106.423 88.2005C106.72 88.7127 107.908 88.5009 108.799 87.4234C109.691 86.3451 111.664 83.6013 110.817 81.1211Z" fill="#C0E0E6"/>
<path d="M108.7 109.388C108.584 109.635 105.679 109.732 105.63 109.547C105.597 109.425 106.467 109.33 107.097 108.763C107.578 109.247 108.691 108.52 108.691 108.52C108.73 108.896 108.76 109.259 108.7 109.388Z" fill="#39316D"/>
<path d="M114.427 81.3701C115.623 83.1745 117.658 86.655 116.297 87.1361C114.918 87.6235 113.612 83.3268 113.937 82.2762C114.261 81.2249 114.427 81.3701 114.427 81.3701Z" fill="#E0FBFF"/>
<path d="M111.492 83.4989L112.576 83.1723L112.613 82.2606L111.56 81.8348L111.067 80.3868L111.617 79.3354L111.042 78.6631L110.016 79.1597C110.016 79.1597 109.619 78.8969 109.379 78.7779C109.139 78.6589 108.711 78.5087 108.711 78.5087L108.406 77.3483L107.554 77.3086L107.157 78.4364L105.804 78.9642L104.823 78.3748L104.195 78.9911L104.658 80.0892L104.05 81.4863L102.967 81.8128L102.93 82.7246L103.983 83.1504L104.476 84.5984L103.925 85.6498L104.501 86.3221L105.527 85.8254C105.527 85.8254 105.924 86.0883 106.164 86.2073C106.404 86.3263 106.832 86.4765 106.832 86.4765L107.137 87.6369L107.988 87.6766L108.386 86.5488L109.738 86.021L110.72 86.6104L111.348 85.9941L110.884 84.896L111.492 83.4989ZM109.25 84.2194C108.36 85.0936 106.975 85.0292 106.159 84.0763C105.343 83.1228 105.403 81.6407 106.293 80.7665C107.183 79.8923 108.567 79.9567 109.384 80.9096C110.2 81.8631 110.141 83.3452 109.25 84.2194Z" fill="#9B86FE"/>
<path d="M106.729 87.8237C106.628 87.66 107.094 86.9424 107.137 86.9226C107.18 86.9027 107.057 87.3207 107.106 87.3838C107.156 87.4468 107.236 87.0756 107.311 87.1018C107.385 87.128 107.471 87.3937 107.459 87.5722C107.447 87.7507 107.131 88.4797 106.729 87.8237Z" fill="#FCDBC4"/>
<path d="M111.695 86.1878C111.956 85.3894 114.867 85.021 115.696 85.6948C116.525 86.3685 116.691 86.7489 116.372 87.0883C116.053 87.4276 111.32 87.332 111.695 86.1878Z" fill="#E0FBFF"/>
<path d="M111.839 85.9701C111.492 85.9665 110.755 85.7859 110.622 85.7852C110.489 85.7844 110.862 85.9906 110.869 86.0784C110.877 86.1663 111.009 86.3243 111.411 86.3618C111.813 86.3994 111.839 85.9701 111.839 85.9701Z" fill="#FCDBC4"/>
<path d="M111.258 85.6445C111.417 85.7706 111.815 85.8082 111.837 85.9725C111.859 86.1369 111.654 86.2212 111.552 86.1086C111.451 85.9959 111.453 85.9074 111.386 85.8627C111.318 85.8174 111.21 85.692 111.258 85.6445Z" fill="#FCDBC4"/>
<path d="M112.902 79.0805C113.045 78.5407 113.365 77.6785 113.909 77.8301C114.452 77.981 113.131 78.7376 112.902 79.0805Z" fill="#B56451"/>
<path d="M113.201 79.2664C113.44 79.6794 113.475 79.9628 112.945 80.5452C112.613 80.4332 112.45 79.0043 113.201 79.2664Z" fill="#B56451"/>
<path d="M112.012 81.292C112.464 81.7766 113.402 81.2417 113.402 81.2417C112.949 81.0972 113.036 79.7773 113.036 79.7773L112.575 79.8744C112.575 79.8744 112.558 79.9941 112.521 80.167C112.464 80.4319 112.358 80.8209 112.192 81.0844C112.139 81.1694 112.079 81.2417 112.012 81.292Z" fill="#FBD4BA"/>
<path d="M113.038 79.7783C112.876 80.7078 112.266 80.8481 112.033 80.8091C111.924 80.7907 111.82 79.5616 112.059 79.1755C112.297 78.7901 113.212 78.7809 113.038 79.7783Z" fill="#FBDBC6"/>
<path d="M112.369 79.0274C112.029 79.2321 111.946 79.5368 111.946 79.5368C111.946 79.5368 111.836 79.2336 112.066 78.9736C112.296 78.7136 112.776 78.8205 112.864 78.9764C112.952 79.1323 112.369 79.0274 112.369 79.0274Z" fill="#B56451"/>
<path d="M112.158 79.0644C112.28 79.6531 112.847 79.8628 113.043 79.7402C113.299 79.5808 113.467 79.1884 112.981 78.9185C112.532 78.6691 112.158 79.0644 112.158 79.0644Z" fill="#B56451"/>
<path d="M112.918 79.7735C113.031 79.641 113.228 79.6212 113.181 79.816C113.134 80.0108 113.013 80.1433 112.952 80.1362C112.891 80.1299 112.918 79.7735 112.918 79.7735Z" fill="#FBDBC6"/>
<path d="M58.8379 102.037C58.8379 101.974 58.8604 101.912 58.9047 101.865C58.949 101.817 59.0073 101.793 59.0655 101.793H94.5354C94.6175 101.793 94.7002 101.826 94.763 101.894C94.8259 101.961 94.857 102.049 94.857 102.137V107.33C94.857 107.451 94.814 107.57 94.7286 107.662C94.6433 107.753 94.5308 107.799 94.419 107.799H59.2243C59.1257 107.799 59.0265 107.759 58.951 107.678C58.8756 107.597 58.8379 107.492 58.8379 107.385V102.037Z" fill="#9B86FE"/>
<path d="M62.2822 101.793H61.6914V107.799H62.2822V101.793Z" fill="#A32C00"/>
<path d="M64.055 101.793H63.4648V107.799H64.055V101.793Z" fill="#A32C00"/>
<path d="M90.624 101.793H90.0332V107.799H90.624V101.793Z" fill="#A32C00"/>
<path d="M92.3949 101.793H91.8047V107.799H92.3949V101.793Z" fill="#A32C00"/>
<path d="M69.151 101.793H66.0977V107.799H69.151V101.793Z" fill="#A32C00"/>
<path d="M92.1121 95.4844H62.3863C61.3654 95.4844 60.5391 96.0008 60.5391 96.6391V99.9957C60.5391 100.633 61.3654 101.15 62.3863 101.15H92.1121V95.4844Z" fill="#F9F8F6"/>
<path d="M92.1114 97.0586H60.5391V97.8988H92.1114V97.0586Z" fill="#E8E7E6"/>
<path d="M92.1118 100.422H60.5957C60.7366 100.801 61.1362 101.111 61.6649 101.262H92.1118V100.422Z" fill="#E8E7E6"/>
<path d="M92.1114 98.7422H60.5391V99.5831H92.1114V98.7422Z" fill="#E8E7E6"/>
<path d="M60.5957 96.2191H92.1118V95.3789H61.6649C61.1362 95.5298 60.7366 95.8401 60.5957 96.2191Z" fill="#E8E7E6"/>
<path opacity="0.7" d="M60.2188 96.3056H92.2298V95.2734H61.3779C61.0815 95.2734 60.7851 95.3946 60.5588 95.6369C60.3319 95.8799 60.2188 96.3056 60.2188 96.3056Z" fill="#E8DFD9"/>
<path d="M60.5398 99.9973V96.6407C60.5398 96.0024 61.4211 95.486 62.5088 95.486H92.1995H92.5151C92.6613 95.486 92.7804 95.3585 92.7804 95.2019V95.1396C92.7804 94.983 92.6613 94.8555 92.5151 94.8555H62.5485C61.1671 94.8555 60.043 95.6007 60.043 96.516V100.121C60.043 101.037 61.1671 101.781 62.5485 101.781H92.5151C92.6613 101.781 92.7804 101.654 92.7804 101.497V101.435C92.7804 101.278 92.6613 101.151 92.5151 101.151H92.1995H62.5088C61.4211 101.151 60.5398 100.634 60.5398 99.9973Z" fill="#755BB3"/>
<path d="M65.002 86.3672H87.0933C87.8516 86.3672 88.4662 87.0643 88.4662 87.9236V92.4498C88.4662 93.3092 87.8516 94.0063 87.0933 94.0063H65.002V86.3672Z" fill="#E8E7E6"/>
<path d="M88.4662 88.4883H65.002V89.6218H88.4662V88.4883Z" fill="#F9F8F6"/>
<path d="M65.002 93.0195H88.4245C88.3193 93.5303 88.0222 93.949 87.6299 94.153H65.002V93.0195Z" fill="#F9F8F6"/>
<path d="M88.4662 90.7539H65.002V91.8874H88.4662V90.7539Z" fill="#F9F8F6"/>
<path d="M88.4245 87.353H65.002V86.2188H87.6299C88.0222 86.4228 88.3193 86.8422 88.4245 87.353Z" fill="#F9F8F6"/>
<path opacity="0.7" d="M86.102 86.7995H64.9766V85.8906H85.3372C85.533 85.8906 85.7288 86.0295 85.8777 86.3079C86.0272 86.587 86.102 86.7995 86.102 86.7995Z" fill="#E8DFD9"/>
<path d="M82.9623 86.6229C82.8637 86.4515 82.7347 86.3658 82.6057 86.3658H64.9372C64.9372 86.3658 64.8406 86.3658 64.7215 86.3658C64.6025 86.3658 64.5059 86.2071 64.5059 86.0115V85.8698C64.5059 85.6743 64.6541 85.5156 64.8367 85.5156H86.9744C88.0012 85.5156 88.8368 86.5202 88.8368 87.755V92.6163C88.8368 93.8511 88.0019 94.8557 86.9744 94.8557H64.8367C64.6541 94.8557 64.5059 94.697 64.5059 94.5015V94.3605C64.5059 94.165 64.6025 94.0063 64.7215 94.0063H64.9372H82.4707C82.6342 94.0063 82.7982 93.8972 82.9226 93.6804C83.0477 93.4629 83.1099 93.1781 83.1099 92.8933V87.2449C83.1099 87.0189 83.0602 86.7944 82.9623 86.6229Z" fill="#9B86FE"/>
<path d="M85.5256 94.8557H86.3215C86.5696 94.8557 86.7714 93.8511 86.7714 92.6163V87.755C86.7714 86.5202 86.5696 85.5156 86.3215 85.5156H85.5256H85.1465C85.3946 85.5156 85.5964 86.5202 85.5964 87.755V92.6163C85.5964 93.8511 85.3946 94.8557 85.1465 94.8557H85.5256Z" fill="#F7AA11"/>
<path d="M73.9014 93.4676C74.475 93.1991 75.0606 92.9391 75.6348 92.6706C76.0656 92.932 76.4817 93.2062 76.9124 93.4676C77.0699 92.8215 77.2922 92.1761 77.142 91.5541C76.9845 90.908 76.7622 90.2626 76.9124 89.6406C75.9088 89.6406 74.9051 89.6406 73.9014 89.6406C73.7512 90.2626 73.9735 90.9073 74.131 91.5541C74.2812 92.1761 74.0582 92.8215 73.9014 93.4676Z" fill="#9B86FE"/>
<path d="M62.5643 56.71L65.4602 55.8379L65.5588 53.4016L62.7443 52.2646L61.427 48.3937L62.8984 45.584L61.3595 43.7874L58.6178 45.1143C58.6178 45.1143 57.5572 44.4115 56.9154 44.0934C56.2743 43.7746 55.1304 43.3744 55.1304 43.3744L54.3159 40.2735L52.0406 40.168L50.9787 43.1817L47.3637 44.5922L44.7397 43.0166L43.0618 44.6637L44.3011 47.5995L42.6761 51.3337L39.7802 52.2058L39.6816 54.6421L42.4962 55.7791L43.8134 59.65L42.342 62.4597L43.8809 64.2563L46.6227 62.9294C46.6227 62.9294 47.6832 63.6322 48.325 63.9503C48.9661 64.2691 50.1101 64.6693 50.1101 64.6693L50.9245 67.7702L53.1998 67.8757L54.2617 64.862L57.8768 63.4515L60.5007 65.0271L62.1786 63.3793L60.9394 60.4435L62.5643 56.71ZM56.5714 58.6363C54.1922 60.9727 50.4925 60.8012 48.3111 58.253C46.1291 55.7054 46.2892 51.7439 48.669 49.4081C51.0482 47.0717 54.748 47.2431 56.9293 49.7914C59.1113 52.3382 58.9512 56.2998 56.5714 58.6363Z" fill="#9B86FE"/>
<path d="M77.5545 42.5017L79.4117 41.75L79.3455 40.1419L77.4341 39.5681L76.3596 37.1041L77.1761 35.1658L76.0679 34.0791L74.3364 35.1205C74.3364 35.1205 73.6013 34.7238 73.1627 34.5544C72.724 34.3844 71.95 34.1917 71.95 34.1917L71.248 32.2031L69.7461 32.274L69.2102 34.3214L66.9091 35.4712L65.0989 34.5969L64.084 35.7836L65.0566 37.6376L64.1892 40.1929L62.332 40.9446L62.3982 42.5527L64.3103 43.1265L65.3841 45.5905L64.5676 47.5288L65.6758 48.6155L67.4073 47.5741C67.4073 47.5741 68.1423 47.9708 68.581 48.1402C69.0197 48.3102 69.7937 48.5029 69.7937 48.5029L70.4957 50.4915L71.9976 50.4206L72.5335 48.3732L74.8346 47.2227L76.6448 48.0969L77.6597 46.9103L76.6871 45.0563L77.5545 42.5017ZM73.7178 44.1375C72.2788 45.82 69.8374 45.9355 68.2661 44.3946C66.6947 42.8538 66.5869 40.2397 68.0259 38.5571C69.4649 36.8746 71.9063 36.7591 73.4776 38.2999C75.049 39.8401 75.1568 42.4542 73.7178 44.1375Z" fill="#9B86FE"/>
<path d="M63.437 35.1914L64.7324 34.5573L64.6127 33.4096L63.2187 33.0972L62.3387 31.3892L62.8356 29.9596L61.9934 29.2391L60.8011 30.0736C60.8011 30.0736 60.2573 29.8278 59.9351 29.7286C59.6135 29.6294 59.0511 29.5317 59.0511 29.5317L58.459 28.1445L57.3872 28.2728L57.0954 29.7654L55.5002 30.7077L54.1651 30.1756L53.4922 31.0775L54.2716 32.3541L53.7661 34.2286L52.4707 34.8627L52.5905 36.0103L53.9845 36.3227L54.8644 38.0308L54.3676 39.4604L55.2098 40.1809L56.402 39.3464C56.402 39.3464 56.9459 39.5922 57.2681 39.6914C57.5896 39.7906 58.152 39.8883 58.152 39.8883L58.7442 41.2754L59.816 41.1472L60.1077 39.6545L61.7029 38.7123L63.038 39.2444L63.7109 38.3425L62.9315 37.0659L63.437 35.1914ZM60.7641 36.5601C59.81 37.8388 58.0673 38.0471 56.8731 37.0255C55.6789 36.004 55.4844 34.1379 56.4384 32.8592C57.3925 31.5805 59.1352 31.3722 60.3294 32.3937C61.5236 33.416 61.7181 35.2813 60.7641 36.5601Z" fill="#9B86FE"/>
<path d="M28.3205 42.1188C28.3444 42.1188 28.3669 42.1032 28.3755 42.0777C28.3966 42.0125 28.4171 41.9466 28.4363 41.8807C28.4456 41.8482 28.4291 41.8134 28.3986 41.8035C28.3682 41.7936 28.3358 41.8113 28.3265 41.8439C28.308 41.9084 28.2875 41.9728 28.267 42.0366C28.2564 42.0685 28.2722 42.1039 28.302 42.1152C28.3086 42.1181 28.3146 42.1188 28.3205 42.1188Z" fill="#F7AA11"/>
<path d="M18.6229 47.5905C18.6209 47.5564 18.6447 47.5274 18.6765 47.5253C18.8035 47.5161 18.9305 47.5026 19.0549 47.4849C19.0867 47.4799 19.1151 47.504 19.1197 47.538C19.1237 47.572 19.1019 47.6025 19.0701 47.6075C18.9431 47.6259 18.8134 47.6393 18.6837 47.6485C18.6824 47.6485 18.6811 47.6485 18.6791 47.6485C18.65 47.6471 18.6249 47.6223 18.6229 47.5905ZM17.5226 47.6103C17.3956 47.5933 17.2666 47.572 17.1395 47.5465C17.1084 47.5402 17.0879 47.5083 17.0932 47.475C17.0992 47.4417 17.1289 47.4197 17.16 47.4254C17.2851 47.4502 17.4115 47.4714 17.5365 47.4877C17.5683 47.492 17.5901 47.5224 17.5861 47.5564C17.5828 47.5876 17.5577 47.611 17.5286 47.6103C17.5266 47.6103 17.5246 47.6103 17.5226 47.6103ZM20.1267 47.2731C20.1155 47.2412 20.1307 47.2058 20.1605 47.1937C20.2796 47.1463 20.398 47.0938 20.5111 47.0379C20.5402 47.0237 20.574 47.0372 20.5872 47.0676C20.6004 47.0988 20.5879 47.1349 20.5594 47.1491C20.443 47.2065 20.3226 47.2603 20.2002 47.3085C20.1936 47.3113 20.1863 47.312 20.1797 47.312C20.1572 47.3127 20.1353 47.2979 20.1267 47.2731ZM16.0201 47.21C15.8997 47.1604 15.7786 47.1073 15.6621 47.0506C15.633 47.0365 15.6205 47.0003 15.6337 46.9691C15.6469 46.938 15.6807 46.9245 15.7098 46.9387C15.8249 46.9947 15.9427 47.0471 16.0611 47.0953C16.0909 47.1073 16.1054 47.1427 16.0942 47.1746C16.0856 47.1994 16.0631 47.2143 16.0399 47.2143C16.034 47.2136 16.0267 47.2121 16.0201 47.21ZM14.6532 46.4336C14.548 46.3556 14.4428 46.2735 14.3402 46.1892C14.3151 46.1686 14.3105 46.1296 14.3296 46.1027C14.3488 46.0758 14.3852 46.0709 14.4104 46.0914C14.5116 46.1743 14.6148 46.2558 14.7187 46.3323C14.7445 46.3514 14.7511 46.3896 14.7332 46.418C14.722 46.4357 14.7035 46.4449 14.6856 46.4449C14.6737 46.4442 14.6631 46.4414 14.6532 46.4336ZM21.4645 46.4775C21.444 46.4513 21.4473 46.4123 21.4718 46.3911C21.534 46.3358 21.5949 46.2784 21.6537 46.2196C21.6868 46.1863 21.7199 46.1523 21.7523 46.1183C21.7748 46.0942 21.8112 46.0942 21.8337 46.1183C21.8562 46.1424 21.8562 46.1814 21.8337 46.2055C21.8006 46.2409 21.7669 46.2756 21.7325 46.3103C21.6723 46.3705 21.6094 46.43 21.5452 46.486C21.5347 46.4959 21.5214 46.5002 21.5082 46.5002C21.4923 46.5002 21.4758 46.4924 21.4645 46.4775ZM22.5999 46.0206C22.4722 46.0064 22.3425 45.9873 22.2155 45.9639C22.1844 45.9582 22.1632 45.9263 22.1685 45.893C22.1738 45.8597 22.2035 45.8371 22.2346 45.8427C22.3597 45.8654 22.4861 45.8845 22.6118 45.898C22.6435 45.9015 22.666 45.932 22.6634 45.9653C22.6601 45.9972 22.6349 46.0206 22.6058 46.0206C22.6032 46.0213 22.6018 46.0206 22.5999 46.0206ZM23.6995 45.9646C23.6962 45.9306 23.7186 45.9008 23.7504 45.8966C23.8761 45.8824 24.0031 45.8626 24.1269 45.8392C24.158 45.8335 24.1877 45.8555 24.1937 45.8888C24.1996 45.9221 24.1785 45.954 24.1474 45.9603C24.021 45.9844 23.8913 46.0043 23.763 46.0191C23.761 46.0191 23.7583 46.0198 23.7564 46.0191C23.7273 46.0198 23.7028 45.9965 23.6995 45.9646ZM21.0947 45.6309C20.9743 45.5806 20.8538 45.5254 20.7381 45.4666C20.7096 45.4524 20.697 45.4155 20.7103 45.3844C20.7235 45.3539 20.7579 45.3404 20.787 45.3546C20.9008 45.412 21.0186 45.4658 21.1364 45.5154C21.1661 45.5275 21.1807 45.5636 21.1688 45.5955C21.1602 45.6203 21.1377 45.6352 21.1145 45.6345C21.1086 45.6352 21.1013 45.6337 21.0947 45.6309ZM25.1874 45.5721C25.1749 45.5409 25.1888 45.5048 25.2179 45.4913C25.3337 45.4389 25.4494 45.3808 25.5626 45.3192C25.591 45.3036 25.6254 45.3157 25.64 45.3461C25.6545 45.3766 25.6433 45.4134 25.6148 45.429C25.4991 45.4921 25.3806 45.5509 25.2629 45.6047C25.2556 45.6082 25.2476 45.6097 25.2397 45.6097C25.2179 45.6097 25.1967 45.5955 25.1874 45.5721ZM13.4748 45.3617C13.3855 45.2639 13.2975 45.1619 13.2115 45.0585C13.1903 45.033 13.1923 44.994 13.2161 44.9714C13.24 44.9487 13.2763 44.9508 13.2975 44.9763C13.3822 45.0783 13.4695 45.1789 13.5575 45.276C13.5794 45.3001 13.5794 45.339 13.5562 45.3631C13.545 45.3752 13.5304 45.3808 13.5159 45.3808C13.5006 45.3801 13.4861 45.3737 13.4748 45.3617ZM22.4563 45.2321C22.4285 45.2158 22.4179 45.1782 22.4331 45.1485C22.494 45.0294 22.5496 44.9069 22.5979 44.7836C22.6104 44.7524 22.6442 44.7376 22.6733 44.751C22.7024 44.7645 22.7163 44.8006 22.7037 44.8318C22.6534 44.9586 22.5965 45.0847 22.5337 45.208C22.5231 45.2285 22.5033 45.2399 22.4827 45.2399C22.4741 45.2391 22.4649 45.237 22.4563 45.2321ZM19.7437 44.8205C19.6404 44.7362 19.5399 44.6469 19.4439 44.5555C19.4201 44.5328 19.4181 44.4939 19.4393 44.4684C19.4605 44.4429 19.4969 44.4407 19.5207 44.4634C19.6146 44.5527 19.7132 44.6398 19.8138 44.722C19.8389 44.7425 19.8436 44.7815 19.8244 44.8084C19.8131 44.8247 19.7959 44.8325 19.7781 44.8325C19.7655 44.8332 19.7536 44.829 19.7437 44.8205ZM26.51 44.7425C26.4902 44.7163 26.4941 44.6774 26.5186 44.6561C26.6165 44.5718 26.7138 44.4825 26.8071 44.3904C26.8302 44.3678 26.8666 44.3692 26.8885 44.394C26.9103 44.4188 26.9083 44.4577 26.8851 44.4811C26.7899 44.5753 26.6906 44.666 26.5907 44.7524C26.5801 44.7617 26.5669 44.7659 26.5543 44.7659C26.5378 44.7652 26.5213 44.7574 26.51 44.7425ZM12.4956 44.0823C12.4229 43.9703 12.3507 43.8549 12.2806 43.738C12.2634 43.7096 12.2714 43.6714 12.2978 43.6529C12.3243 43.6345 12.36 43.643 12.3772 43.6714C12.446 43.7868 12.5175 43.9009 12.5896 44.0114C12.6075 44.039 12.6015 44.078 12.575 44.0971C12.5651 44.1049 12.5532 44.1085 12.542 44.1085C12.5241 44.1085 12.5062 44.0993 12.4956 44.0823ZM22.9154 43.6735C22.8837 43.6714 22.8599 43.6423 22.8612 43.6083C22.8638 43.5559 22.8658 43.502 22.8665 43.4489C22.8671 43.3674 22.8652 43.2853 22.8599 43.2045C22.8579 43.1705 22.8817 43.1415 22.9135 43.1386C22.9446 43.1365 22.9723 43.162 22.975 43.196C22.9803 43.2796 22.9829 43.3653 22.9823 43.4496C22.9816 43.5049 22.9803 43.5601 22.977 43.6147C22.975 43.6473 22.9499 43.6728 22.9194 43.6728C22.9174 43.6742 22.9161 43.6735 22.9154 43.6735ZM18.697 43.5949C18.6321 43.4666 18.5799 43.3363 18.5415 43.2066C18.5316 43.174 18.5488 43.1393 18.5785 43.1294C18.609 43.1188 18.6414 43.1372 18.6507 43.1691C18.6871 43.2916 18.7367 43.4149 18.7982 43.5361C18.8134 43.5658 18.8028 43.6034 18.775 43.6197C18.7664 43.6246 18.7565 43.6274 18.7473 43.6267C18.7267 43.6267 18.7076 43.6154 18.697 43.5949ZM27.5759 43.5623C27.5501 43.5424 27.5441 43.5042 27.5626 43.4765C27.6367 43.3667 27.7075 43.2527 27.7737 43.1379C27.7902 43.1089 27.826 43.1004 27.8531 43.1181C27.8802 43.1358 27.8882 43.174 27.8716 43.2031C27.8041 43.32 27.7314 43.4362 27.6559 43.5488C27.6447 43.5658 27.6268 43.5743 27.609 43.5743C27.5977 43.5743 27.5858 43.5701 27.5759 43.5623ZM11.7037 42.6618C11.6461 42.5414 11.5886 42.4167 11.533 42.2913C11.5191 42.2609 11.5317 42.224 11.5601 42.2091C11.5886 42.1943 11.623 42.2077 11.6369 42.2382C11.6918 42.3622 11.7493 42.4861 11.8062 42.6059C11.8208 42.6363 11.8095 42.6732 11.7811 42.6888C11.7725 42.6937 11.7632 42.6958 11.7546 42.6958C11.7341 42.6951 11.7143 42.6831 11.7037 42.6618ZM22.5443 42.0554C22.4841 41.9378 22.4159 41.8238 22.3412 41.7161C22.322 41.6884 22.3273 41.6502 22.3531 41.6296C22.3782 41.6091 22.4146 41.6148 22.4338 41.6424C22.5119 41.7543 22.5827 41.8734 22.6455 41.9959C22.6607 42.0257 22.6508 42.0632 22.623 42.0795C22.6137 42.0845 22.6045 42.0873 22.5946 42.0873C22.5741 42.0873 22.5549 42.0753 22.5443 42.0554ZM18.6229 42.0377C18.5938 42.025 18.5792 41.9888 18.5911 41.9577C18.6401 41.8294 18.7023 41.7033 18.7757 41.5836C18.7929 41.5553 18.8286 41.5475 18.8551 41.5659C18.8816 41.5843 18.8888 41.6226 18.8716 41.6509C18.8022 41.7643 18.7433 41.8826 18.6976 42.0037C18.6884 42.0278 18.6665 42.042 18.644 42.042C18.6368 42.042 18.6295 42.0405 18.6229 42.0377ZM11.0798 41.15C11.0348 41.0239 10.9905 40.8929 10.9475 40.7618C10.9369 40.7299 10.9527 40.6945 10.9825 40.6832C11.013 40.6718 11.0454 40.6888 11.056 40.7207C11.099 40.8511 11.1426 40.9807 11.187 41.1061C11.1982 41.138 11.183 41.1734 11.1539 41.1855C11.1473 41.1883 11.14 41.1897 11.1327 41.1897C11.1102 41.1897 11.089 41.1748 11.0798 41.15ZM21.4983 40.9276C21.3871 40.8638 21.2713 40.81 21.1549 40.7682C21.1244 40.7576 21.1086 40.7221 21.1185 40.6903C21.1284 40.6577 21.1608 40.6407 21.1913 40.6513C21.3137 40.6952 21.4354 40.7519 21.5525 40.8185C21.5803 40.8348 21.5909 40.8716 21.5763 40.9021C21.5657 40.9226 21.5459 40.9347 21.5254 40.9347C21.5161 40.9347 21.5069 40.9325 21.4983 40.9276ZM19.6279 40.8383C19.614 40.8079 19.6259 40.771 19.6543 40.7561C19.7741 40.6931 19.8985 40.6421 20.0229 40.606C20.0533 40.5967 20.085 40.6159 20.0936 40.6492C20.1023 40.6818 20.0844 40.7158 20.0533 40.725C19.9355 40.7597 19.8184 40.8079 19.7046 40.8674C19.696 40.8716 19.6874 40.8737 19.6788 40.8737C19.6583 40.8723 19.6378 40.8596 19.6279 40.8383ZM10.6061 39.578C10.5723 39.4441 10.5406 39.3095 10.5115 39.177C10.5042 39.1437 10.5234 39.1104 10.5538 39.1026C10.5842 39.0949 10.6153 39.1154 10.6233 39.148C10.6524 39.279 10.6841 39.4122 10.7172 39.5454C10.7252 39.578 10.7073 39.612 10.6769 39.6205C10.6716 39.6219 10.6663 39.6226 10.6616 39.6226C10.6358 39.6234 10.6127 39.6056 10.6061 39.578ZM10.2964 37.9585C10.2786 37.8211 10.2633 37.6829 10.2508 37.5476C10.2475 37.5136 10.2706 37.4839 10.3024 37.4803C10.3335 37.4768 10.3619 37.5016 10.3652 37.5356C10.3778 37.6695 10.393 37.8062 10.4102 37.9422C10.4149 37.9762 10.3924 38.0067 10.3613 38.0116C10.3586 38.0124 10.3553 38.0124 10.3527 38.0124C10.3249 38.0116 10.3004 37.989 10.2964 37.9585ZM10.2594 36.3695C10.2276 36.3688 10.2025 36.3404 10.2031 36.3064C10.2058 36.1676 10.2117 36.0287 10.2203 35.8927C10.2223 35.8587 10.2488 35.8332 10.2819 35.8353C10.3136 35.8375 10.3374 35.8672 10.3355 35.9012C10.3269 36.0351 10.3216 36.1725 10.3183 36.3093C10.3176 36.3433 10.2918 36.3695 10.26 36.3695C10.26 36.3695 10.26 36.3695 10.2594 36.3695ZM10.4274 34.7358C10.3963 34.7287 10.3771 34.6954 10.3838 34.6622C10.4122 34.5275 10.444 34.3922 10.4784 34.2598C10.487 34.2272 10.5187 34.208 10.5492 34.2173C10.5796 34.2265 10.5975 34.2605 10.5889 34.2931C10.5545 34.4234 10.5234 34.5566 10.4956 34.6891C10.4896 34.7181 10.4658 34.7372 10.4387 34.7372C10.4354 34.7372 10.4314 34.7365 10.4274 34.7358ZM10.9137 33.1773C10.8853 33.1624 10.8727 33.1263 10.8866 33.0951C10.9422 32.9697 11.0017 32.8457 11.0632 32.7253C11.0785 32.6955 11.1135 32.6849 11.1413 32.7012C11.1691 32.7175 11.179 32.755 11.1638 32.7848C11.1029 32.9024 11.0447 33.0249 10.9898 33.1475C10.9799 33.1702 10.9587 33.1829 10.9375 33.1829C10.9296 33.1829 10.9217 33.1808 10.9137 33.1773ZM11.7249 31.7831C11.7004 31.7611 11.6971 31.7221 11.7176 31.6966C11.8009 31.5897 11.8876 31.4855 11.9763 31.3863C11.9981 31.3615 12.0345 31.3608 12.0576 31.3842C12.0808 31.4076 12.0815 31.4465 12.0596 31.4713C11.973 31.5684 11.8876 31.6704 11.8062 31.7753C11.795 31.7901 11.7784 31.7972 11.7612 31.7972C11.748 31.7972 11.7354 31.7923 11.7249 31.7831Z" fill="#F7AA11"/>
<path d="M12.9066 30.6968C12.9178 30.6968 12.9284 30.694 12.9383 30.6869C12.9906 30.6501 13.0448 30.6139 13.0984 30.5792C13.1256 30.5615 13.1348 30.524 13.1183 30.4949C13.1017 30.4659 13.0667 30.456 13.0395 30.4737C12.9846 30.5091 12.9291 30.5459 12.8755 30.5835C12.849 30.6019 12.8417 30.6401 12.8589 30.6685C12.8702 30.6869 12.888 30.6968 12.9066 30.6968Z" fill="#F7AA11"/>
<path d="M27.2949 38.6527L34.0705 35.5391L27.6615 39.58L27.2949 38.6527Z" fill="#9B86FE"/>
<path d="M27.7402 40.3536L30.1538 40.9522L34.0699 35.5391L27.7402 40.3536Z" fill="#9B86FE"/>
<path d="M27.6602 39.58L29.3724 39.8981L34.0692 35.5391L27.6602 39.58Z" fill="#9B86FE"/>
<path d="M28.0638 42.4881L34.0699 35.5391L27.7402 40.3536L28.0638 42.4881Z" fill="#9B86FE"/>
<path d="M68.8456 97.6602C69.0646 98.7738 68.1172 99.9279 68.1172 100.226C68.1172 100.524 69.7143 99.172 69.7891 98.9431C69.8632 98.7143 69.3061 97.6602 69.3061 97.6602H68.8456Z" fill="#9B86FE"/>
<path d="M72.5748 98.0367C72.7236 98.8301 71.9244 99.9502 72.0733 100.265C72.2221 100.581 73.3919 99.0094 73.4104 98.5914C73.4289 98.1734 73.02 97.6562 73.02 97.6562L72.5748 98.0367Z" fill="#9B86FE"/>
<path d="M74.6759 81.93L74.4059 84.8481C74.4059 84.8481 72.5375 85.2172 70.7571 85.2044C70.8173 88.1806 70.7545 95.1254 70.0955 97.7431C69.9281 98.4069 68.6062 98.1512 68.4514 97.7431C66.9886 93.8949 66.278 83.8258 67.8665 82.6619C70.124 81.4979 74.6759 81.93 74.6759 81.93Z" fill="#55B0C7"/>
<path d="M74.9336 86.197C74.1589 86.2593 73.4086 86.2331 72.7245 86.1354C72.5174 86.1056 72.3169 86.0695 72.1237 86.0277C70.3711 85.6472 69.21 84.7752 69.4912 83.7756C69.5203 83.6721 69.5633 83.5701 69.6222 83.4674C70.5418 81.8557 78.5381 81.3789 78.5381 81.3789C78.601 81.8125 78.6407 82.2149 78.6539 82.5861C78.7333 84.8446 77.809 85.9668 74.9336 86.197Z" fill="#9B86FE"/>
<path d="M71.4862 77.9961C71.3532 78.8236 71.2593 79.6489 71.209 80.3347C71.0416 82.6009 72.1009 82.3622 72.9643 80.1845C73.2117 79.561 73.4314 78.7973 73.5869 78.0216C72.8875 78.0343 72.1829 78.0195 71.4862 77.9961Z" fill="#FEDAC0"/>
<path d="M73.6644 77.5906C73.6406 77.7344 73.6135 77.8782 73.585 78.0213C72.8857 78.0341 72.1811 78.0192 71.4844 77.9958C71.5036 77.8761 71.5234 77.7564 71.5446 77.6373C71.8555 75.8563 72.3432 74.1639 72.9624 73.9492C73.8834 74.0668 73.9641 75.8004 73.6644 77.5906Z" fill="#9B86FE"/>
<path d="M78.5374 81.3766C78.5374 81.3766 74.1628 83.1066 72.8256 81.735C72.5173 81.4184 72.3208 80.8537 72.2103 80.168C71.8405 77.879 72.4214 74.239 72.9646 73.9486C72.9646 73.9486 76.4175 73.3415 78.1708 73.7155C78.6505 73.8175 79.0031 73.9932 79.1222 74.2752C79.68 75.5851 78.5374 81.3766 78.5374 81.3766Z" fill="#9B86FE"/>
<path d="M78.538 81.3805C78.538 81.3805 74.1634 83.1105 72.8262 81.739C72.5179 81.4223 72.3214 80.8577 72.2109 80.1719C74.7231 81.6589 78.5281 76.6694 78.1714 73.7188C78.6511 73.8208 79.0038 73.9965 79.1228 74.2784C79.6806 75.589 78.538 81.3805 78.538 81.3805Z" fill="url(#paint0_linear_40_6879)"/>
<path d="M73.8506 96.8432C73.844 97.0154 73.8341 97.1358 73.8228 97.196C73.6779 97.9194 72.5896 98.8602 72.094 98.2339C71.6124 97.6239 68.0687 87.6151 69.4906 83.774C69.5309 83.6649 69.5739 83.5621 69.6216 83.4658C69.6216 83.4658 70.2686 82.9571 71.5991 84.2975C71.7546 84.4541 71.9194 84.6354 72.0934 84.8465C72.3322 85.1356 72.5413 85.5805 72.7239 86.1338C73.707 89.117 73.9121 95.2337 73.8506 96.8432Z" fill="#9B86FE"/>
<path d="M73.1774 82.7415L75.0021 82.0352L70.1955 82.2661L67.7832 83.1176L73.1774 82.7415Z" fill="#9B86FE"/>
<path d="M73.1791 82.7426L73.1367 82.5846L75.0038 81.9023V82.0362L73.1791 82.7426Z" fill="#9B86FE"/>
<path d="M78.8421 79.0889C78.2791 80.5305 77.3905 81.6187 76.6667 81.9609C74.095 83.1766 71.1819 81.8844 71.5537 81.4175C71.5994 81.3594 71.696 81.3141 71.8488 81.2879C73.2415 81.0491 75.4149 80.2436 75.4712 78.9075C75.4798 78.6999 75.5076 78.4357 75.5526 78.1367C76.4477 78.2054 77.3118 78.4711 78.1547 78.8026C78.3849 78.8947 78.6139 78.9904 78.8421 79.0889Z" fill="#FEDAC0"/>
<path d="M78.9685 78.7433C78.9288 78.8609 78.8864 78.9757 78.8421 79.0891C78.2791 80.5307 77.3905 81.6189 76.6667 81.9611C74.095 83.1768 71.1819 81.8846 71.5537 81.4177C71.6933 81.4638 71.8336 81.507 71.9745 81.5431C72.4271 81.6586 72.9206 81.6232 73.3825 81.6239C73.96 81.6253 74.5244 81.5665 75.0861 81.4255C75.622 81.2916 76.1593 81.1095 76.6045 80.7532C76.9618 80.4677 77.28 80.0646 77.5573 79.6891C77.7643 79.4072 77.978 79.1153 78.1547 78.8036C78.2804 78.5818 78.3876 78.3502 78.4617 78.105C78.6569 77.4604 78.9294 76.8008 79.0677 76.1441C79.1491 75.7587 79.2113 75.3683 79.2894 74.9844C79.5282 76.3099 79.3516 77.6183 78.9685 78.7433Z" fill="url(#paint1_linear_40_6879)"/>
<path d="M72.1231 78.793L73.179 82.7432L67.7849 83.1194L66.6211 79.1429L72.1231 78.793Z" fill="#9B86FE"/>
<path d="M70.15 80.9003C70.1824 81.1326 70.0586 81.3444 69.8741 81.3735C69.6895 81.4025 69.5141 81.2382 69.4817 81.0065C69.4493 80.7741 69.573 80.5623 69.7576 80.5333C69.8225 80.5226 70.1083 80.5333 69.7417 81.1C70.0156 80.7522 70.1288 80.7501 70.15 80.9003Z" fill="white"/>
<path d="M74.9323 86.1969C74.1576 86.2592 73.4073 86.233 72.7232 86.1352C73.7064 89.1185 73.9108 95.2351 73.8499 96.8447C73.8281 96.4983 73.7997 96.154 73.7719 95.8203C73.6329 94.1498 73.3173 92.4956 73.056 90.8329C72.878 89.7001 72.7014 88.5581 72.4579 87.4366C72.3554 86.9648 72.2475 86.4937 72.1225 86.0275C72.0689 85.8242 72.0113 85.6216 71.9504 85.4211C71.8558 85.1094 71.7486 84.7977 71.6587 84.4853C71.6408 84.425 71.615 84.3556 71.5985 84.2997C71.5773 84.2288 71.5707 84.1778 71.615 84.1828C72.3997 84.2777 73.099 84.4066 73.9075 84.4066C74.8563 84.4066 75.6985 84.3549 76.6082 84.0616C77.2632 83.8512 78.0499 83.5593 78.4614 82.943C78.5368 82.8304 78.5971 82.7099 78.6526 82.5859C78.732 84.8444 77.8077 85.9666 74.9323 86.1969Z" fill="url(#paint2_linear_40_6879)"/>
<path d="M78.9706 78.7431C78.9309 78.8607 78.8886 78.9755 78.8443 79.0888C78.616 78.9904 78.3871 78.8947 78.1568 78.8033C77.3133 78.4711 76.4492 78.2054 75.5547 78.1374C75.5726 78.0134 75.5944 77.8845 75.6182 77.7506C75.908 76.124 76.5206 73.7111 77.2762 73.6076C77.8002 73.5361 78.9428 73.665 79.1235 74.275C79.1936 74.5116 79.2492 74.7475 79.2922 74.9841C79.5303 76.3096 79.3537 77.6181 78.9706 78.7431Z" fill="#9B86FE"/>
<path d="M74.1599 74.1176C73.6504 75.1278 75.9529 74.012 75.5923 73.6628C75.0068 73.0953 74.8711 72.4414 74.8711 72.4414C74.8711 72.4414 74.7143 72.4542 74.5225 72.8757C74.3743 73.2001 74.5807 73.4934 74.1599 74.1176Z" fill="#FED5B7"/>
<path d="M73.9664 73.4067C74.0299 73.5357 74.0882 73.6136 74.1232 73.6101C74.4507 73.581 75.2553 72.512 75.1051 71.9615C75.0343 71.7022 74.9291 71.523 74.8067 71.4118C74.4838 71.1178 74.0399 71.2935 73.7918 71.7058C73.5317 72.1358 73.7712 73.0107 73.9664 73.4067Z" fill="#FEDAC0"/>
<path d="M73.6894 72.0022C73.9328 72.3607 74.3854 72.2679 74.7334 72.139C74.9061 72.0752 74.8346 72.3983 74.9253 72.5201C74.9729 72.5839 75.0417 72.5123 75.0417 72.5123C75.0417 72.5123 75.272 72.2644 75.1906 71.6693C75.1092 71.0742 74.4463 70.7993 74.267 71.1195C73.5888 70.5344 73.3652 72.4471 73.6894 72.0022Z" fill="#382E6D"/>
<path d="M74.7294 72.1584C74.7896 71.914 74.9444 71.9027 74.9808 71.9941C75.0172 72.0855 74.953 72.3696 74.7936 72.5495C74.6341 72.7294 74.7294 72.1584 74.7294 72.1584Z" fill="#FEDAC0"/>
<path d="M102.408 49.763L104.562 51.2302L106.056 49.9182L105.135 47.3685L106.676 44.2861L109.169 43.6924L109.359 41.6337L107.024 40.5278C107.024 40.5278 106.839 39.412 106.664 38.7971C106.49 38.1829 106.079 37.1811 106.079 37.1811L107.45 34.8752L106.224 33.2748L103.843 34.261L100.965 32.611L100.41 29.9423L98.4874 29.7383L97.4547 32.2384L94.3299 33.2507L92.1763 31.7828L90.6817 33.0949L91.6027 35.6445L90.0618 38.727L87.5695 39.3206L87.3789 41.3793L89.7137 42.4852C89.7137 42.4852 89.899 43.601 90.0737 44.2159C90.2483 44.8302 90.6592 45.8319 90.6592 45.8319L89.2883 48.1378L90.5136 49.7382L92.8948 48.7521L95.7735 50.402L96.3279 53.0707L98.2506 53.2747L99.2834 50.7747L102.408 49.763ZM97.8794 46.7947C95.1529 46.5056 93.1614 43.9035 93.4314 40.984C93.7013 38.0646 96.1314 35.9322 98.858 36.2212C101.584 36.5102 103.576 39.1123 103.306 42.0318C103.035 44.9513 100.605 47.0837 97.8794 46.7947Z" fill="#9B86FE"/>
<path d="M58.8613 107.803C58.8673 101.116 60.3202 95.8705 64.9899 96.3509C69.1323 96.7766 70.0016 101.686 69.4154 107.803H58.8613Z" fill="#ACC49B"/>
<path d="M62.2965 107.385C62.3481 107.385 62.3951 107.348 62.4083 107.292C62.4381 107.167 62.4937 106.936 62.495 106.756C62.8291 103.436 63.3862 99.9531 65.1811 96.9606C65.2155 96.9032 65.2003 96.826 65.1461 96.7892C65.0925 96.7523 65.0204 96.7686 64.986 96.8267C63.1592 99.8723 62.585 103.546 62.2634 106.736C62.2628 106.741 62.2628 106.746 62.2628 106.75C62.2628 106.9 62.2111 107.115 62.1834 107.231C62.1675 107.297 62.2045 107.365 62.2667 107.382C62.2773 107.384 62.2872 107.385 62.2965 107.385Z" fill="white"/>
<path d="M62.8903 102.815C62.9134 102.815 62.9359 102.807 62.9558 102.793L67.4369 99.5113C67.4898 99.4724 67.5031 99.3959 67.4673 99.3392C67.4316 99.2825 67.3595 99.2683 67.3066 99.3066L62.9247 102.515L61.311 99.7905C61.2766 99.7324 61.2051 99.7154 61.1515 99.7522C61.0973 99.789 61.0814 99.8656 61.1158 99.9229L62.7937 102.756C62.8102 102.784 62.8373 102.804 62.8678 102.811C62.8751 102.813 62.8823 102.815 62.8903 102.815Z" fill="white"/>
<path d="M62.3858 106.918C62.4003 106.918 62.4149 106.915 62.4288 106.91L69.0747 104.084C69.1343 104.058 69.1634 103.987 69.1396 103.923C69.1157 103.859 69.0483 103.828 68.9894 103.854L62.4182 106.648L59.6374 103.346C59.5944 103.295 59.5216 103.291 59.474 103.336C59.4264 103.382 59.4224 103.46 59.4654 103.511L62.3004 106.877C62.3223 106.903 62.3534 106.918 62.3858 106.918Z" fill="white"/>
<path d="M47.1309 107.802C50.3959 96.8799 55.3356 86.5105 61.7758 90.5153C66.6082 93.5198 64.1265 100.572 59.5633 107.802H47.1309Z" fill="url(#paint3_linear_40_6879)"/>
<path d="M50.7247 107.017C50.767 107.017 50.8074 106.992 50.8279 106.95C52.732 102.974 54.8393 98.768 57.8106 94.8857C58.852 93.6034 60.0978 92.1561 61.6857 91.2451C61.7419 91.2125 61.7631 91.1374 61.7333 91.0772C61.7029 91.0169 61.6327 90.9943 61.5765 91.0261C59.9542 91.9577 58.6905 93.4242 57.6339 94.7256C54.6454 98.6291 52.5315 102.849 50.6221 106.836C50.593 106.897 50.6155 106.972 50.6724 107.004C50.6883 107.012 50.7068 107.017 50.7247 107.017Z" fill="white"/>
<path d="M56.6774 96.2553C56.684 96.2553 56.6906 96.2546 56.6972 96.2532L62.9264 95.1119C62.9892 95.1006 63.0316 95.0361 63.021 94.9688C63.0104 94.9015 62.9508 94.8554 62.8873 94.8675L56.7766 95.9868L56.3029 92.2441C56.2943 92.1761 56.2361 92.1287 56.1726 92.1379C56.1091 92.1471 56.0647 92.2094 56.0733 92.2774L56.5636 96.1476C56.5676 96.1809 56.5848 96.2107 56.6099 96.2312C56.6291 96.2468 56.6529 96.2553 56.6774 96.2553Z" fill="white"/>
<path d="M51.7974 105.185C51.8047 105.185 51.8126 105.184 51.8199 105.183L61.4458 103.128C61.5086 103.114 61.549 103.049 61.5364 102.982C61.5238 102.914 61.463 102.87 61.4001 102.885L51.8722 104.918L50.2949 100.161C50.2737 100.096 50.2076 100.062 50.1473 100.086C50.0871 100.108 50.0554 100.179 50.0772 100.243L51.6882 105.103C51.7048 105.152 51.7491 105.185 51.7974 105.185Z" fill="white"/>
<path d="M26.0559 105.829C27.3639 106.537 28.705 106.991 30.0004 107.156C38.0821 108.188 38.3289 98.5213 38.3289 98.5213C38.3289 98.5213 43.5477 97.5742 45.6325 93.7521C45.4975 93.8258 45.3566 93.8945 45.211 93.9583C43.6225 94.6533 42.2165 94.8559 42.0723 94.411C41.9281 93.9661 43.0998 93.0416 44.689 92.3459C45.26 92.0972 45.8243 91.9683 46.3146 91.9059C46.7744 89.7565 46.3232 86.9454 44.1604 83.2878C42.4051 89.556 39.5072 90.3268 38.0001 91.5914C36.3798 92.9516 33.5659 91.1904 37.8962 89.4356C41.1805 88.1037 42.2662 83.2127 42.599 80.9294L42.5983 80.9287C40.7742 78.4555 38.8158 76.7255 36.8303 75.5821C37.0361 77.825 37.1419 82.7175 34.4167 84.2761C31.1794 86.1279 34.2745 80.6141 35.3344 74.8297C33.0227 73.8322 30.7117 73.5744 28.57 73.8138C29.1278 76.2742 29.5307 80.6226 27.0225 81.5712C26.1465 81.9028 27.4803 77.5154 26.9914 74.0837C25.7257 74.3756 24.3502 74.8545 23.0508 75.3795C24.6625 78.4839 22.378 81.4954 22.5725 79.3878C22.6962 78.0496 22.2066 76.7609 21.7765 75.9186C19.4219 76.9543 17.5819 77.9802 17.5819 77.9802C17.9524 80.1735 17.5515 83.2361 17.1671 85.3274C16.9692 86.4042 16.8548 87.4577 16.8164 88.4828C18.3441 87.8012 22.2622 86.191 22.2668 87.6043C22.2708 88.9787 18.4685 89.8493 16.821 90.1625C16.9143 92.3409 17.3483 94.3748 18.0331 96.2267C20.0696 94.8757 25.995 90.9347 25.7912 92.3891C25.6007 93.7457 20.8715 96.78 18.8132 98.0431C20.2442 100.962 22.3078 103.315 24.5692 104.908C25.3513 103.599 28.4304 98.6177 29.886 98.804C31.0948 98.9591 27.9263 103.368 26.0559 105.829ZM27.5028 83.5116C27.4188 84.2569 27.0609 84.8364 26.7036 84.806C26.3457 84.7762 26.124 84.1485 26.2087 83.4032C26.2921 82.6587 26.6507 82.0785 27.008 82.1089C27.3646 82.1387 27.5869 82.7671 27.5028 83.5116ZM31.9297 88.2086C31.5539 87.9982 31.5698 87.1792 31.9655 86.3794C32.3611 85.5796 32.9863 85.1014 33.3621 85.3125C33.7379 85.5229 33.722 86.3419 33.3264 87.1417C32.9307 87.9415 32.3062 88.4197 31.9297 88.2086ZM19.6667 82.6495C18.9971 82.5623 18.5015 82.1734 18.5604 81.7795C18.6193 81.3856 19.2101 81.1362 19.8797 81.2234C20.5499 81.3098 21.0455 81.6987 20.9859 82.0926C20.9277 82.4865 20.3369 82.7359 19.6667 82.6495ZM22.8695 84.9462C22.8107 85.3401 21.8434 85.5406 20.71 85.394C19.5767 85.2473 18.7053 84.8095 18.7642 84.4163C18.8231 84.0224 19.7904 83.8219 20.9237 83.9686C22.0577 84.1145 22.9284 84.5523 22.8695 84.9462ZM24.5242 87.6808C23.8567 87.8522 23.2619 87.678 23.197 87.2919C23.1315 86.9065 23.6192 86.4545 24.2874 86.2831C24.955 86.1116 25.5491 86.2852 25.6146 86.672C25.6801 87.0574 25.1918 87.5094 24.5242 87.6808ZM26.8174 91.8089C26.6824 91.5191 26.9861 91.036 27.4962 90.7299C28.005 90.4246 28.527 90.4111 28.6613 90.7016C28.7963 90.9913 28.4926 91.4738 27.9832 91.7798C27.4744 92.0852 26.9517 92.0986 26.8174 91.8089ZM31.7121 97.5819C31.3839 98.109 30.9181 98.3924 30.6713 98.2146C30.4245 98.0361 30.4914 97.4636 30.8195 96.9358C31.147 96.4074 31.6135 96.124 31.8596 96.3025C32.1064 96.4803 32.0396 97.0534 31.7121 97.5819ZM33.1511 106.219C33.1511 106.219 33.0909 104.491 33.8769 102.814C34.6635 101.136 35.6149 99.9418 36.0007 100.145C36.387 100.348 36.0615 101.874 35.2749 103.551C34.4882 105.227 33.1511 106.219 33.1511 106.219Z" fill="#ADD9FE"/>
<path d="M49.2057 106.286C46.8424 97.5664 44.3494 84.4724 50.5375 84.0353C57.3932 83.5514 55.2529 98.0418 53.2799 107.03L49.2057 106.286Z" fill="url(#paint4_linear_40_6879)"/>
<path d="M52.2706 106.471C52.2772 106.475 52.2838 106.477 52.2918 106.478C52.3215 106.48 52.348 106.456 52.35 106.423C52.3897 105.807 52.4327 105.187 52.4737 104.588C52.4896 104.486 52.4982 104.39 52.5061 104.296C52.5141 104.204 52.522 104.109 52.5379 104.011C52.5379 104.009 52.5386 104.007 52.5386 104.005C52.6643 101.879 52.7278 100.047 52.7377 98.2365C52.7443 96.3102 52.6921 94.7113 52.5677 93.05C52.3692 90.5591 52.0926 88.465 51.392 86.3389C51.1809 85.7212 50.9209 85.0142 50.4922 84.4325C50.4737 84.407 50.4392 84.4028 50.4154 84.4226C50.3916 84.4424 50.3876 84.4793 50.4062 84.5048C50.8243 85.0723 51.081 85.7694 51.2888 86.3779C51.9854 88.4912 52.2607 90.5775 52.4585 93.0592C52.5829 94.7162 52.6352 96.3123 52.6285 98.235C52.618 100.042 52.5551 101.871 52.4294 103.993C52.4135 104.095 52.4049 104.192 52.397 104.284C52.389 104.377 52.3811 104.471 52.3652 104.57C52.3652 104.572 52.3646 104.573 52.3646 104.576C52.3229 105.176 52.2799 105.796 52.2402 106.414C52.2395 106.439 52.2521 106.461 52.2706 106.471Z" fill="white"/>
<path d="M52.0589 89.2445C52.0694 89.2502 52.0814 89.2523 52.0933 89.2502C52.1078 89.2474 52.1211 89.2389 52.129 89.2254L53.5422 86.9896C53.5594 86.9626 53.5528 86.9265 53.5276 86.9088C53.5025 86.8911 53.4688 86.8975 53.4522 86.9244L52.0701 89.1099L48.5847 86.3902C48.5602 86.3711 48.5265 86.3768 48.5086 86.403C48.4908 86.4292 48.4961 86.4653 48.5205 86.4845L52.0516 89.2396C52.0542 89.2417 52.0562 89.2431 52.0589 89.2445Z" fill="white"/>
<path d="M52.5214 96.3779C52.5419 96.3892 52.567 96.3857 52.5842 96.3679L54.9753 93.8877C54.9972 93.865 54.9978 93.8282 54.9766 93.8048C54.9555 93.7814 54.9211 93.7807 54.8999 93.8034L52.5426 96.2482L47.2073 91.8403C47.1835 91.8205 47.1491 91.8254 47.1305 91.8509C47.112 91.8764 47.1166 91.9133 47.1404 91.9331L52.5134 96.3715C52.5154 96.3743 52.5187 96.3757 52.5214 96.3779Z" fill="white"/>
<path d="M52.4446 104.331C52.4538 104.336 52.4644 104.338 52.475 104.337C52.4896 104.336 52.5028 104.328 52.5121 104.315L54.1277 102.126C54.1463 102.101 54.1423 102.064 54.1185 102.044C54.0947 102.024 54.0603 102.029 54.0417 102.054L52.4605 104.196L48.2162 100.466C48.193 100.446 48.1586 100.449 48.1394 100.474C48.1203 100.499 48.1236 100.536 48.1467 100.556L52.434 104.324C52.438 104.327 52.4413 104.329 52.4446 104.331Z" fill="white"/>
<path d="M54.2191 107.805C51.83 93.2165 47.6321 82.7302 39.3096 82.9285C31.4443 83.1163 30.436 93.3724 32.7225 107.805H54.2191Z" fill="#ACC49B"/>
<path d="M47.3913 106.645C47.4046 106.645 47.4178 106.643 47.4304 106.638C47.4906 106.615 47.5217 106.544 47.4998 106.48C47.4059 106.2 47.2306 105.679 47.1796 105.305C47.1789 105.302 47.1783 105.298 47.1776 105.294C45.5606 97.9331 43.4924 90.2472 39.3474 83.9046C39.311 83.8486 39.2389 83.8345 39.186 83.8741C39.1337 83.9131 39.1211 83.991 39.1575 84.047C43.2787 90.3535 45.339 98.0103 46.9507 105.346C47.0056 105.744 47.1849 106.277 47.2815 106.564C47.2994 106.614 47.3437 106.645 47.3913 106.645Z" fill="#FFF2DC"/>
<path d="M44.8649 96.3203C44.8749 96.3203 44.8854 96.3188 44.8954 96.316C44.9291 96.3061 44.9576 96.2799 44.9714 96.2452L47.2937 90.4643C47.3189 90.4013 47.2917 90.3283 47.2329 90.3014C47.174 90.2744 47.1058 90.3035 47.0807 90.3665L44.8153 96.005L35.4442 88.6684C35.3926 88.628 35.3198 88.6401 35.2821 88.6953C35.2444 88.7506 35.2556 88.8285 35.3072 88.8689L44.7955 96.2969C44.8166 96.3118 44.8411 96.3203 44.8649 96.3203Z" fill="#FFF2DC"/>
<path d="M47.0667 105.557C47.1058 105.557 47.1435 105.536 47.1653 105.499L51.4632 98.084C51.4969 98.0259 51.4804 97.9494 51.4261 97.9133C51.3719 97.8771 51.3004 97.8948 51.2667 97.9529L47.0224 105.275L32.8936 98.5034C32.8354 98.4758 32.7666 98.5034 32.7408 98.5657C32.7143 98.6281 32.7408 98.7018 32.799 98.7294L47.0204 105.546C47.035 105.554 47.0509 105.557 47.0667 105.557Z" fill="#FFF2DC"/>
<path d="M82.0429 54.5551L82.8977 54.298L82.9268 53.5789L82.0958 53.2431L81.7068 52.1004L82.1415 51.2708L81.6869 50.7402L80.8778 51.132C80.8778 51.132 80.5648 50.9244 80.3749 50.8309C80.1857 50.7367 79.8476 50.6183 79.8476 50.6183L79.6075 49.703L78.9359 49.6719L78.6223 50.5617L77.5551 50.9782L76.7804 50.5128L76.2848 50.9995L76.6507 51.8659L76.171 52.9682L75.3162 53.2254L75.2871 53.9445L76.1181 54.2803L76.5071 55.423L76.0724 56.2526L76.527 56.7832L77.3361 56.3914C77.3361 56.3914 77.6491 56.599 77.839 56.6925C78.0282 56.7867 78.3663 56.905 78.3663 56.905L78.6064 57.8203L79.278 57.8515L79.5916 56.9617L80.6588 56.5451L81.4335 57.0106L81.9291 56.5239L81.5632 55.6575L82.0429 54.5551ZM80.2731 55.1233C79.5704 55.8133 78.4787 55.7623 77.8343 55.01C77.1899 54.2576 77.2376 53.0887 77.9402 52.3987C78.6428 51.7086 79.7345 51.7596 80.3789 52.512C81.0233 53.2644 80.9757 54.434 80.2731 55.1233Z" fill="#9B86FE"/>
<path d="M79.3753 58.3812C79.5546 58.1807 79.7299 57.7131 79.8239 57.6458C79.6876 57.558 79.4183 58.0178 79.2542 57.8591C79.0901 57.7004 78.7441 57.208 78.5952 56.8984C78.5291 56.7603 78.498 56.9275 78.537 57.1195C78.4669 56.936 78.4318 56.8984 78.4047 57.1783C78.3776 57.4581 78.3928 57.621 78.4239 57.6791C78.455 57.7379 78.9585 58.0341 78.9585 58.3805C78.9578 58.7276 79.3753 58.3812 79.3753 58.3812Z" fill="#FCD3C2"/>
<path d="M81.3086 71.8874L81.5812 74.051L81.6308 74.4428C81.6308 74.4435 82.2183 79.1178 82.2183 79.1178L82.2686 79.5124L82.8561 84.1845L82.9064 84.5812L83.4939 89.252L83.5442 89.6501L86.1609 109.553C86.1788 109.69 86.7153 109.663 86.6981 109.553L85.2915 99.7716L85.2379 99.3734L84.6127 94.7034L84.5591 94.3074L83.9339 89.6359L83.8803 89.2413L83.2551 84.5692L83.2021 84.1753L82.5763 79.5003L82.5233 79.1092L81.8974 74.4336L81.8445 74.0432L81.556 71.8867H81.3086V71.8874Z" fill="#2AB3C1"/>
<path d="M86.5938 72.6082L86.8842 73.9104L86.9616 74.2589L88.0103 78.9651L88.0877 79.3101L89.1363 84.0191L89.2131 84.3634L90.2624 89.0731C90.2631 89.0731 90.3392 89.4152 90.3392 89.4152L91.3891 94.1271L91.4646 94.4671L92.5146 99.1832L92.5893 99.5197L94.7607 109.553C94.7872 109.67 95.333 109.667 95.2953 109.495L91.8979 94.4529L91.8205 94.1164L90.7302 89.4025L90.6521 89.0639L89.5631 84.352L89.4844 84.0106L88.396 79.3009L88.3159 78.9573L87.2276 74.2497L87.1475 73.904L86.8419 72.582L86.5938 72.6082Z" fill="#2AB3C1"/>
<path d="M92.7754 99.5141L85.0371 99.7812V99.3802L92.6662 99.1797L92.7754 99.5141Z" fill="#2AB3C1"/>
<path d="M91.8191 94.1172L91.3878 94.1285L84.5605 94.3085L84.1953 94.3177V94.7194L84.6141 94.7045L91.4632 94.4679L91.8965 94.4537L91.8191 94.1172Z" fill="#2AB3C1"/>
<path d="M83.4941 89.2541L83.5444 89.6523L83.9354 89.6388L90.3372 89.4185L90.7289 89.405L90.6509 89.0664L90.2618 89.0763C90.2612 89.0763 83.8825 89.2442 83.8825 89.2442L83.4941 89.2541Z" fill="#2AB3C1"/>
<path d="M82.8555 84.186L82.9058 84.5827L83.2558 84.5707L89.2103 84.3652L89.5603 84.3532L89.4809 84.0117L89.1336 84.0209L83.2028 84.1768L82.8555 84.186Z" fill="#2AB3C1"/>
<path d="M82.2207 79.1178L82.271 79.5117L82.58 79.5011L88.0879 79.3105L88.3956 79.2999L88.3162 78.957L88.0105 78.9655L82.5277 79.1101L82.2207 79.1178Z" fill="#2AB3C1"/>
<path d="M81.582 74.0536L81.631 74.4454L81.9003 74.4369L86.9603 74.2619L87.2256 74.252L87.1462 73.9062L86.8829 73.9133L81.8473 74.0465L81.582 74.0536Z" fill="#2AB3C1"/>
<path d="M96.3895 71.1875C96.9406 71.2095 97.5334 71.444 97.804 71.733C98.0746 72.0228 98.3035 72.5569 98.2407 72.5909C98.1785 72.6242 97.5023 72.1566 97.3773 71.9781C97.2522 71.7996 96.2545 71.8563 96.3895 71.1875Z" fill="#FEDAC0"/>
<path d="M89.1488 62.6941C89.8845 65.4067 92.9339 69.4037 93.8304 70.307C94.7772 71.2605 96.238 71.8251 96.6152 71.6346C96.6608 71.6112 96.6899 71.5772 96.7012 71.5318C96.8051 71.1082 96.3472 69.8621 94.5377 67.0099C92.7275 64.1591 90.9392 61.9098 89.0053 61.3594C88.957 61.7441 89.0139 62.1975 89.1488 62.6941Z" fill="white"/>
<path d="M89.1504 62.6921C89.8861 65.4047 92.9355 69.4017 93.832 70.305C94.7788 71.2586 96.2396 71.8232 96.6167 71.6326C95.2445 70.9171 93.4337 69.2501 92.7291 68.3228C91.9179 67.2538 91.4191 65.0151 89.1511 62.6914H89.1504V62.6921Z" fill="#F2EFED"/>
<path d="M87.606 59.8906C87.6807 60.3589 88.1492 61.1942 88.1492 61.1942L86.8418 61.4499L86.953 60.5927L87.606 59.8906Z" fill="#FEDAC0"/>
<path d="M86.8729 92.5327C87.2487 93.873 85.3968 94.099 85.1626 94.2492C84.9284 94.3994 87.6747 94.483 87.9711 94.3491C88.2676 94.2152 87.768 92.3945 87.768 92.3945L86.8729 92.5327Z" fill="#39316D"/>
<path d="M89.9829 92.6465C89.9829 93.2643 90.2561 93.9968 90.1628 94.2306C90.0696 94.4644 89.0626 94.2901 88.9693 94.2122C88.876 94.1342 89.1724 92.8576 89.1929 92.5459C89.2134 92.2349 89.9829 92.6465 89.9829 92.6465Z" fill="#39316D"/>
<path d="M87.834 68.7691C87.834 68.7691 87.8677 71.0361 87.9207 74.1639C88.0378 81.0209 88.2521 92.0151 88.4241 92.3134C88.6054 92.6286 89.5396 92.9545 90.1351 92.822C90.3614 92.7724 90.5393 92.6555 90.6081 92.4473C90.8582 91.6899 91.2327 76.9438 90.4632 68.3242L87.834 68.7691Z" fill="#755BB3"/>
<path d="M87.918 74.1626C88.0351 81.0196 88.2494 92.0138 88.4215 92.3121C88.6027 92.6273 89.5369 92.9532 90.1324 92.8207C90.5135 89.0143 89.5244 77.9095 89.3755 72.5898L87.918 74.1626Z" fill="#666666"/>
<path d="M86.1132 92.5613C86.5532 92.6414 86.9303 92.7087 87.2485 92.7519C88.0967 92.8652 88.5314 92.8008 88.6518 92.3148C88.8185 91.6474 89.5523 71.5993 89.2784 68.5254C89.2784 68.5254 88.1397 67.0575 86.6597 67.846C86.489 67.9367 86.3137 68.0571 86.135 68.2137C85.4906 75.0076 85.9683 91.0956 86.1132 92.5613Z" fill="#755BB3"/>
<path d="M86.1132 92.5591C86.5532 92.6391 86.9303 92.7064 87.2485 92.7496C86.5465 77.0549 86.4936 75.5154 86.6597 67.8438C86.489 67.9344 86.3137 68.0549 86.135 68.2114C85.4906 75.0054 85.9683 91.0933 86.1132 92.5591Z" fill="#666666"/>
<path d="M84.5736 63.5781C84.5868 63.768 84.6232 63.9947 84.6755 64.2476C84.7774 64.7329 84.9428 65.3074 85.1313 65.8734C85.4582 66.8504 85.8578 67.7969 86.1337 68.2113C86.6537 68.9906 89.7322 68.8801 90.4607 68.3232C90.5626 68.2446 90.6525 68.1142 90.7293 67.9435C91.2003 66.9 91.2043 64.3645 90.7928 63.1771C90.3144 61.7964 89.2539 61.4181 88.151 61.0391C87.5926 61.0794 87.0791 61.1893 86.6253 61.3508C85.3199 61.8141 84.5121 62.7025 84.5736 63.5781Z" fill="white"/>
<path d="M78.8739 59.171C78.9785 59.8618 80.039 62.2003 82.057 63.3806C84.0729 64.5608 84.6498 64.9668 85.1315 65.8764C85.3088 65.615 85.4689 65.3054 85.6132 64.971C86.292 63.4103 86.6261 61.353 86.6261 61.353C84.5116 61.4203 83.2221 61.375 82.4936 60.7962C81.7658 60.2174 79.6229 58.1459 79.3734 58.2125C79.2623 58.2416 79.132 58.2982 79.0301 58.4109C78.9004 58.554 78.8164 58.7856 78.8739 59.171Z" fill="white"/>
<path d="M88.1401 60.6992L88.3194 61.1002L86.625 61.3538L86.7514 61.0265C86.752 61.0265 87.0326 60.7998 88.1401 60.6992Z" fill="#F2EFED"/>
<path d="M86.1001 59.3812C86.0895 60.0719 86.2668 60.8179 86.3806 60.8958C86.495 60.9737 87.4623 60.7173 87.4828 59.8041C87.5047 58.8916 86.1001 59.3812 86.1001 59.3812Z" fill="#FEDAC0"/>
<path d="M87.8792 60.2702C87.8382 60.7583 87.0575 60.827 86.9741 60.426C86.8907 60.025 86.6307 59.6127 86.4541 59.6127C86.2774 59.6127 85.8302 59.9358 85.7362 59.5461C85.6429 59.1565 85.5596 58.9114 85.903 58.8667C86.2463 58.8221 86.4541 58.9333 86.7922 58.7775C87.1302 58.6216 88.0347 58.4105 87.8792 60.2702Z" fill="#39316C"/>
<path d="M86.6738 59.7657C86.7459 59.51 86.9491 59.5001 87.0007 59.6864C87.0529 59.872 86.9074 60.2064 86.8372 60.2283C86.7665 60.251 86.6738 59.7657 86.6738 59.7657Z" fill="#FEDAC0"/>
<path d="M78.8739 59.1689C78.9785 59.8596 80.039 62.1982 82.057 63.3784C84.0729 64.5587 84.6498 64.9646 85.1315 65.8743C85.4583 66.8512 85.8579 67.7977 86.1338 68.2121C86.6539 68.9914 89.7324 68.8809 90.4608 68.324C90.5627 68.2454 90.6527 68.1151 90.7294 67.9443C89.5842 69.1253 86.8411 68.1902 86.3833 66.6535C86.163 65.9146 86.0108 65.4145 85.6132 64.9696C85.3942 64.7231 85.0991 64.4928 84.6756 64.2491C84.274 64.0174 83.7553 63.7745 83.0759 63.4911C80.477 62.4065 79.5567 60.4165 79.0301 58.4102C78.9004 58.5518 78.8164 58.7835 78.8739 59.1689Z" fill="#F2EFED"/>
<path d="M17.3224 62.7714L19.343 61.7399L19.1279 59.9405L16.93 59.4878L15.5076 56.8283L16.2552 54.5691L14.9148 53.4597L13.0616 54.8036C13.0616 54.8036 12.2008 54.4324 11.6933 54.285C11.1859 54.1384 10.2993 53.9995 10.2993 53.9995L9.336 51.8359L7.6555 52.0662L7.23272 54.4196L4.74835 55.9428L2.63846 55.1422L1.60236 56.5775L2.85745 58.5619L2.10652 61.5196L0.0859375 62.5511L0.300963 64.3505L2.49885 64.8032L3.92133 67.4627L3.1737 69.7219L4.51414 70.8313L6.36733 69.4874C6.36733 69.4874 7.22809 69.8586 7.73555 70.006C8.24301 70.1526 9.12958 70.2915 9.12958 70.2915L10.0929 72.455L11.7734 72.2248L12.1962 69.8714L14.6799 68.3482L16.7898 69.1488L17.8259 67.7135L16.5708 65.7291L17.3224 62.7714ZM13.1562 64.9938C11.6874 67.0284 8.95491 67.4032 7.05475 65.8304C5.15458 64.2577 4.80459 61.3318 6.27338 59.2972C7.74217 57.2626 10.4746 56.8878 12.3748 58.4605C14.275 60.0333 14.625 62.9591 13.1562 64.9938Z" fill="#9B86FE"/>
<path d="M19.3416 107.485C19.4388 108.357 21.998 109.146 22.1336 109.353C22.2692 109.561 18.5853 109.644 18.3141 109.644C18.0428 109.644 18.3915 108.211 18.3141 107.484H19.3416V107.485Z" fill="#A26352"/>
<path d="M10.1822 85.2359C10.29 88.4806 14.1459 94.8218 14.7486 97.1044C15.3514 99.3884 16.9578 107.994 16.9578 107.994C16.9578 107.994 17.0802 108.016 17.2806 108.026C17.7405 108.048 18.6125 108.007 19.3429 107.485C19.3045 107.028 18.4894 96.3988 18.0243 94.6553C17.5592 92.9119 14.7764 86.8802 13.4975 84.6387C13.4975 84.6387 11.862 83.3734 10.8874 83.6646C10.4521 83.795 10.1491 84.2349 10.1822 85.2359Z" fill="#3E9BB3"/>
<path d="M10.1822 85.2354C10.29 88.48 14.1459 94.8213 14.7486 97.1039C15.3514 99.3879 16.9578 107.993 16.9578 107.993C16.9578 107.993 17.0802 108.015 17.2806 108.025C17.2608 105.64 17.1324 103.257 16.5985 100.949C16.4066 100.117 16.1605 99.2943 16.0811 98.4414C16.0183 97.7662 16.0606 97.0812 15.9501 96.4131C15.7655 95.2902 15.1707 94.3027 14.6401 93.3137C13.2593 90.7371 12.253 87.9565 11.3453 85.1553C11.1878 84.67 11.076 84.1373 10.8874 83.6641C10.4521 83.7944 10.1491 84.2344 10.1822 85.2354Z" fill="#696969"/>
<path d="M1.19393 100.883C0.641477 101.36 0.147249 101.376 0.0162491 101.501C-0.114751 101.625 0.583255 104.926 0.787033 105.222C0.990811 105.518 0.903477 102.544 1.76159 101.516L1.19393 100.883Z" fill="#A26352"/>
<path d="M1.19336 100.885L1.73522 102.02L2.16329 102.919C2.16329 102.919 9.25582 99.5962 11.1375 97.8839C11.3386 97.699 11.4795 97.536 11.547 97.3972C12.245 95.9442 13.3307 89.7163 12.7875 84.692C12.7875 84.692 10.237 84.0254 9.36367 84.4412C9.23862 84.5007 9.14798 84.5829 9.10431 84.692C7.74667 88.084 8.79335 93.8684 8.48372 94.7816C8.31765 95.2704 6.24216 96.9834 4.34861 98.4712C2.70185 99.7626 1.19336 100.885 1.19336 100.885Z" fill="#3E9BB3"/>
<path d="M6.8126 79.5928C6.82054 79.6161 6.82914 79.6374 6.83642 79.6572C6.84369 79.6749 6.85097 79.6941 6.85957 79.7132C7.28367 80.7496 8.35615 84.1211 8.78422 84.6708C9.22022 85.2312 10.646 85.4182 11.2858 85.0761C11.9256 84.7332 13.2336 84.7962 13.4963 84.6397C13.7576 84.4838 14.1354 83.6436 14.31 83.176C14.322 83.1449 14.3332 83.1094 14.3451 83.0705C14.3729 82.9755 14.398 82.8594 14.4219 82.7269C14.5079 82.2437 14.5648 81.5381 14.5376 80.8495C14.5297 80.6235 14.5125 80.3997 14.4847 80.1864C14.4801 80.1538 14.4754 80.1212 14.4708 80.0887C14.2009 78.4543 12.6236 77.7891 12.6236 77.7891C12.2451 78.1631 11.8958 78.2255 10.9365 78.3813C10.9365 78.3813 10.6169 78.4741 9.54044 78.1015C8.83979 77.8578 7.73158 78.183 7.15664 78.7044C6.8695 78.9665 6.71468 79.2775 6.8126 79.5928Z" fill="#9B86FE"/>
<path d="M4.41246 71.6125C4.42172 71.7442 4.52626 72.165 4.68835 72.7502C5.23088 74.7027 6.41517 78.4964 6.8128 79.5923C6.82074 79.6157 6.82934 79.637 6.83662 79.6568C6.8439 79.6766 6.85118 79.695 6.85978 79.7128C7.05297 80.1392 7.46714 80.033 7.91373 79.7283C8.67989 79.2062 9.54131 78.1003 9.54131 78.1003C8.52308 77.6115 5.69269 71.1137 5.07209 71.0308C4.45149 70.9487 4.37408 71.0308 4.41246 71.6125Z" fill="#9B86FE"/>
<path d="M12.623 77.7862C12.623 77.7862 13.1431 79.7719 14.4193 80.7602C14.4577 80.7907 14.4967 80.819 14.5371 80.8467C14.5431 80.0192 15.1339 78.71 15.1339 78.399C15.1339 78.0873 15.8511 76.8829 16.0257 75.928C16.1971 74.99 16.9719 70.3858 16.8614 69.9282C16.8594 69.9197 16.8567 69.9133 16.8547 69.9077C16.7092 69.5966 16.4042 69.4096 16.0257 69.5804C15.6473 69.7525 14.9784 71.7142 14.7462 72.3681C14.5133 73.0212 14.3677 74.2986 14.0482 74.8901C13.7279 75.4824 13.6406 76.5096 12.623 77.7862Z" fill="#9B86FE"/>
<path d="M11.9249 78.9901C11.9249 78.9901 11.5855 78.4503 11.3917 78.4609C11.1978 78.4716 11.1541 78.7826 11.1541 78.7826C11.1541 78.7826 11.0522 78.4092 10.8293 78.5438C10.6063 78.6784 10.3642 78.9901 10.3642 78.9901C10.3642 78.9901 10.212 78.4453 10.3106 78.2689C10.388 78.1308 10.7611 78.0352 10.7611 78.0352C10.7611 78.0352 11.3361 78.0592 11.5432 78.1478C11.7311 78.2278 11.8667 78.3462 11.9249 78.9901Z" fill="#FF964A"/>
<path d="M11.2646 78.7322C11.0615 78.694 10.8841 78.7684 10.9761 78.9915C11.0681 79.2147 11.1997 79.3131 11.2646 79.2409C11.3294 79.1686 11.514 78.779 11.2646 78.7322Z" fill="#EA5149"/>
<path d="M4.68459 71.3735C4.38421 70.8649 4.25586 70.3456 4.25586 70.2216C4.25586 70.0969 5.06303 69.8171 5.2377 69.8327C5.41237 69.8482 5.29592 70.0431 5.41237 70.121C5.52881 70.1989 5.47059 70.2768 5.41237 70.3782C5.35414 70.4795 5.07097 70.5886 5.04186 70.7366C5.01209 70.8833 5.17882 71.5683 4.68459 71.3735Z" fill="#FED1C3"/>
<path d="M16.5921 69.8321C16.7476 69.084 16.7886 68.5951 16.7231 68.3847C16.6576 68.1743 16.076 67.8789 15.9159 67.8789C15.7558 67.8789 15.9159 67.988 15.8577 68.1049C15.7995 68.2218 15.5957 68.2685 15.5957 68.3932C15.5957 68.5179 15.9371 68.938 15.9305 69.0861C15.9232 69.2341 15.9827 69.8349 16.1746 69.8972C16.3665 69.9589 16.5643 69.9674 16.5921 69.8321Z" fill="#FED1C3"/>
<path d="M4.6875 72.75C5.23003 74.7025 6.41432 78.4962 6.81195 79.5921C6.81989 79.6155 6.82849 79.6367 6.83577 79.6566C6.84305 79.6764 6.85033 79.6948 6.85893 79.7125C7.28302 80.749 8.3555 84.1204 8.78357 84.6702C9.21958 85.2306 10.6454 85.4176 11.2851 85.0754C11.9249 84.7325 13.2329 84.7956 13.4956 84.639C13.7569 84.4832 14.1347 83.643 14.3094 83.1754C14.3213 83.1442 14.3326 83.1088 14.3445 83.0698C13.79 83.7917 13.1225 84.3188 12.1208 84.2338C11.7178 84.1998 11.2951 84.0701 10.9226 84.2388C10.6996 84.3394 10.521 84.5384 10.2901 84.6135C9.7535 84.7857 9.24339 84.1955 9.13158 83.6082C9.01844 83.0217 9.14217 82.4074 9.04822 81.8159C8.92052 81.0054 8.42167 80.365 7.91288 79.7274C7.68793 79.4447 7.46034 79.1635 7.26251 78.8674C7.22612 78.8135 7.19106 78.7583 7.15665 78.7023C6.49173 77.6319 6.16423 76.3602 5.7666 75.1424C5.49335 74.3086 5.16386 73.4641 4.6875 72.75Z" fill="#595959"/>
<path d="M11.2263 79.3363C11.0907 79.2938 10.9934 82.8218 11.0946 83.237C11.1959 83.6521 11.6127 84.3485 11.739 84.3903C11.8648 84.4321 12.185 83.3716 12.2042 83.0705C12.224 82.7694 11.3335 79.3696 11.2263 79.3363Z" fill="#EA5149"/>
<path d="M14.4212 82.7255C14.5072 82.2424 14.5641 81.5368 14.537 80.8482C14.5429 80.0207 15.1338 78.7115 15.1338 78.4005C15.1338 78.0888 15.851 76.8844 16.0256 75.9295C16.197 74.9915 16.9717 70.3873 16.8612 69.9297C16.8513 69.9772 16.8427 70.0246 16.8348 70.0693C16.6866 70.8889 16.5079 71.7008 16.3114 72.5084C16.0891 73.4265 15.845 74.339 15.6009 75.2508C15.4064 75.9798 15.2105 76.708 15.0173 77.437C14.8255 78.161 14.6342 78.8879 14.5257 79.6318C14.5032 79.7841 14.4847 79.9357 14.4702 80.088C14.447 80.3126 14.4305 80.5371 14.4199 80.7617C14.3881 81.4142 14.4 82.0709 14.4212 82.7255Z" fill="#595959"/>
<path d="M4.34766 98.4699C4.35361 98.4664 4.36023 98.4642 4.36618 98.4614C4.7261 98.2878 5.01721 97.9889 5.32553 97.7246C6.36757 96.8327 7.67757 96.3049 9.01073 96.2397C9.28729 96.2263 9.58435 96.2256 9.80864 96.0534C10.2413 95.7233 10.1434 95.0219 10.0131 94.4708C9.6783 93.0567 9.44012 91.6165 9.29854 90.1649C9.17349 88.8862 9.12387 87.5982 9.15033 86.3124C9.16158 85.7563 9.27935 85.0939 9.36205 84.4414C9.23701 84.5009 9.14636 84.5831 9.1027 84.6922C7.74506 88.0842 8.79174 93.8686 8.4821 94.7818C8.3167 95.2692 6.2412 96.9829 4.34766 98.4699Z" fill="url(#paint5_linear_40_6879)"/>
<path d="M1.73438 102.018L2.16244 102.916C2.16244 102.916 9.25498 99.5935 11.1366 97.8812C11.3377 97.6963 11.4787 97.5334 11.5462 97.3945C10.8197 98.4636 1.73438 102.018 1.73438 102.018Z" fill="#696969"/>
<path d="M11.4178 75.9811C11.7526 75.7154 11.7665 75.3952 11.5555 75.1451C11.3444 74.8958 10.8859 74.8483 10.7106 75.5305C10.1522 75.4278 9.87098 75.7119 9.95368 76.0597C10.0364 76.4083 10.1555 76.8029 10.1555 76.8029C10.1555 76.8029 9.79357 77.1854 10.1403 77.5595C10.4869 77.9336 11.1472 77.4809 11.2405 77.2379C11.3332 76.9949 11.4178 75.9811 11.4178 75.9811Z" fill="#23517A"/>
<path d="M11.258 78.4541C11.0085 78.5086 10.5348 78.2734 10.5553 78.0063L10.6314 77.0039L11.1687 77.0329C11.1687 77.0329 11.1389 77.6224 11.3731 77.9376C11.5365 78.1572 11.5074 78.3995 11.258 78.4541Z" fill="#FDCAB6"/>
<path d="M10.6321 77.0075C10.8246 77.5416 11.4399 77.65 11.5802 77.56C11.7205 77.4701 11.7866 76.2898 11.4512 75.8258C11.1164 75.361 10.1974 75.8024 10.6321 77.0075Z" fill="#FDD2C1"/>
<path d="M10.5706 76.6711C10.3913 76.4657 10.2299 76.482 10.1968 76.674C10.1637 76.866 10.7023 77.2471 10.687 77.041C10.6718 76.8355 10.5706 76.6711 10.5706 76.6711Z" fill="#FDD2C1"/>
<path d="M10.5323 76.6293C10.9537 76.5414 10.8188 75.9874 11.2442 75.6665C11.0325 75.3583 10.5171 75.6155 10.4112 75.8082C10.3047 76.0016 10.5323 76.6293 10.5323 76.6293Z" fill="#23517A"/>
<path d="M130.311 77.2633C130.07 76.8014 130.027 76.4791 130.543 76.3594C131.059 76.2396 131.36 76.4345 131.343 76.8114C131.859 77.0593 131.856 77.8846 131.498 78.0915C131.14 78.2984 130.924 78.4507 130.725 78.0915C130.526 77.7316 130.311 77.2633 130.311 77.2633Z" fill="#B46551"/>
<path d="M129.356 79.8093C129.346 79.9545 129.309 80.2585 129.227 80.646C129.07 81.3976 128.746 82.4603 128.126 83.28C127.186 84.5226 125.072 83.9593 125.072 83.9593C125.072 83.9593 125.131 83.8587 125.233 83.6866C125.752 82.806 127.372 80.0608 127.727 79.4763C128.152 78.7778 128.634 78.6864 129.021 78.6836C129.319 78.6808 129.385 79.3857 129.356 79.8093Z" fill="#B981EA"/>
<path d="M129.227 80.6461C129.07 81.3978 128.746 82.4604 128.126 83.2801C127.186 84.5227 125.072 83.9595 125.072 83.9595C125.072 83.9595 125.131 83.8589 125.233 83.6867C125.922 83.4997 127.795 83.6138 128.018 80.7736C128.064 80.1757 129.107 80.9253 129.227 80.6461Z" fill="#F2EFED"/>
<path d="M137.678 88.1676C137.973 88.7393 138.822 88.8718 138.974 89.0354C139.127 89.1991 139.266 89.3061 139.313 89.3061C139.361 89.3061 139.137 88.7854 138.984 88.6373C138.832 88.4892 138.04 88.2292 137.94 88.0195L137.678 88.1676Z" fill="#FDD4C4"/>
<path d="M140.512 106.231C141.033 106.761 141.236 109.184 141.338 109.361C141.44 109.538 141.999 106.312 141.999 106.08C141.999 105.849 140.97 105.672 140.651 105.305L140.512 106.231Z" fill="#3E9BB3"/>
<path d="M129.402 107.349C129.389 108.333 127.156 109.359 126.707 109.579C126.294 109.782 130.089 109.459 130.305 109.459C130.521 109.459 130.191 107.717 130.216 107.213C130.241 106.709 129.402 107.349 129.402 107.349Z" fill="#3E9BB3"/>
<path d="M128.869 107.364C129.347 107.476 129.725 107.533 130.024 107.551C130.703 107.59 130.974 107.425 131.08 107.241C131.233 106.975 132.548 90.3569 131.576 85.0273L130.913 85.169L129.574 85.4552C128.297 89.8858 127.915 95.7659 128.869 107.364Z" fill="#9B86FE"/>
<path d="M130.025 107.547C130.704 107.586 130.975 107.421 131.081 107.237C131.234 106.972 132.549 90.353 131.577 85.0234L130.914 85.1651C130.641 92.7553 130.832 101.567 130.025 107.547Z" fill="#616161"/>
<path d="M130.572 85.6502C130.572 89.5977 131.233 96.104 132.403 98.1457C133.573 100.187 139.801 106.394 140.335 106.422C140.869 106.449 141.047 105.142 140.97 104.652C140.96 104.583 140.911 104.44 140.831 104.245C140.35 103.061 138.749 99.9324 137.767 99.3713C136.623 98.7174 137.335 98.2548 137.03 97.6562C136.725 97.0568 135.81 97.1383 135.632 95.7498C135.454 94.3619 134.843 87.3377 132.758 85.228C132.758 85.228 131.64 84.4792 130.572 85.6502Z" fill="#9B86FE"/>
<path d="M128.398 82.264C128.471 82.6161 128.565 82.9682 128.669 83.3019C128.993 84.3532 129.408 85.2352 129.573 85.4534C129.898 85.882 131.728 85.882 132.757 85.2288C133.135 84.9886 133.393 84.2122 133.541 83.2962C133.582 83.0348 133.616 82.7613 133.64 82.4864C133.763 81.0986 133.662 79.6548 133.367 79.3388C133.367 79.3388 132.438 78.9754 131.299 78.7877C130.704 78.6892 129.975 78.7551 129.459 78.6956C128.922 78.6339 128.638 78.4306 128.295 80.2272C128.182 80.8195 128.248 81.5442 128.398 82.264Z" fill="#B981EA"/>
<path d="M128.607 83.0977C128.627 83.1671 128.648 83.2358 128.67 83.3038C129.051 83.5936 132.729 83.8302 133.542 83.2974C133.549 83.2563 133.556 83.2145 133.562 83.172C131.088 83.7884 128.928 83.194 128.607 83.0977Z" fill="#8444BD"/>
<path d="M128.398 82.2656C128.412 82.3308 128.426 82.396 128.441 82.4612C129.462 82.8678 131.578 82.9656 133.632 82.578C133.635 82.5476 133.638 82.5178 133.641 82.4874C133.535 82.4194 133.425 82.3917 133.425 82.3917C131.423 82.9025 128.682 82.527 128.398 82.2656Z" fill="#8444BD"/>
<path d="M132.907 82.1555C132.907 82.1704 132.909 82.186 132.91 82.2016C133.082 84.0974 134.856 86.9623 135.866 87.738C136.707 88.3841 137.535 88.4358 137.932 88.258C138.012 88.2233 138.075 88.178 138.116 88.1263C138.364 87.8202 137.163 86.1249 136.266 84.8795C135.37 83.634 134.34 79.8977 133.368 79.3359C133.368 79.3366 132.749 80.2909 132.907 82.1555Z" fill="#B981EA"/>
<path d="M137.973 88.5117C138.204 88.7462 138.512 88.9538 138.569 89.0593C138.589 88.8447 138.299 88.6102 138.299 88.6102L137.973 88.5117Z" fill="#FDD4C4"/>
<path d="M130.213 78.7259C130.247 79.1176 130.686 79.2969 130.956 79.0305C131.105 78.8831 131.223 78.7762 131.223 78.7762C131.023 78.6933 131.027 77.6278 131.027 77.6278L130.598 77.6016L130.213 78.7259Z" fill="#FDCAB6"/>
<path d="M132.908 82.1562C132.909 82.1711 132.911 82.1867 132.912 82.2023C133.084 84.0981 134.857 86.963 135.868 87.7387C136.709 88.3848 137.537 88.4366 137.934 88.2587C136.536 87.7196 134.775 85.9032 134.685 85.4625C134.59 84.9928 135.258 85.126 135.048 84.9319C134.838 84.7378 133.228 84.3935 132.908 82.1562Z" fill="#F2EFED"/>
<path d="M132.402 98.1484C133.572 100.19 139.801 106.397 140.334 106.424C140.868 106.451 141.046 105.144 140.97 104.655C140.959 104.585 140.91 104.443 140.831 104.248C140.819 106.726 135.085 100.707 132.402 98.1484Z" fill="#616161"/>
<path d="M129.47 76.4516L128.056 77.797C128.056 77.797 128.051 77.8019 128.043 77.8069C128.017 77.8218 127.971 77.8345 127.92 77.7778C127.855 77.7063 127.886 77.6503 127.886 77.6503L129.022 76.1406L129.47 76.4516Z" fill="#BA3200"/>
<path d="M127.137 78.4427C127.485 77.8788 127.667 77.2101 127.91 77.0953C128.154 76.9805 128.493 77.057 128.542 77.3007C128.591 77.5444 128.484 77.4105 128.426 77.4247C128.368 77.4389 128.314 77.7881 128.158 77.769C128.002 77.7499 127.944 77.497 127.806 77.5827C127.667 77.6684 127.801 78.1849 127.591 78.6531C127.382 79.1214 127.137 78.4427 127.137 78.4427Z" fill="#FDD4C4"/>
<path d="M129.548 76.412C129.431 76.7393 129.03 76.9865 128.712 76.8647L124.941 75.4074L125.473 74.8137L128.187 71.7852L129.563 76.0918C129.593 76.2009 129.585 76.31 129.548 76.412Z" fill="#F24100"/>
<path d="M129.548 76.4132C129.431 76.7398 129.03 76.9871 128.712 76.8652L124.941 75.408L125.964 74.2539C127.511 75.6942 129.247 76.6916 129.548 76.4132Z" fill="#BD3300"/>
<path d="M125.136 73.128C125.136 73.128 124.66 73.9455 124.624 74.5838C124.582 75.3206 124.723 75.6096 125.771 75.3163C126.833 75.0195 127.611 73.8577 128.027 73.0061C128.536 71.9633 128.07 71.2173 127.481 71.3129C126.893 71.4086 126.016 71.8825 125.136 73.128Z" fill="#F27A4D"/>
<path d="M127.912 78.6386C127.912 78.6386 126.671 82.9607 126.141 83.5792C125.91 83.8505 124.733 84.5094 124.641 83.2016C124.505 81.2895 126.722 78.1016 126.722 78.1016L127.912 78.6386Z" fill="#B981EA"/>
<path d="M127.91 78.6367C127.91 78.6367 126.669 82.9589 126.139 83.5774C125.908 83.8487 124.731 84.5076 124.639 83.1998C125.11 83.7857 127.91 78.6367 127.91 78.6367Z" fill="#F2EFED"/>
<path d="M126.718 73.7656C126.878 73.5197 126.81 73.3264 126.743 73.3023C126.677 73.2782 125.969 72.8722 125.877 72.9622C125.785 73.0522 126.245 73.8343 126.322 73.9066C126.399 73.9788 126.614 73.9257 126.718 73.7656Z" fill="#9B86FE"/>
<path d="M131.047 77.6667C130.75 78.1839 130.327 78.4098 130.043 78.3043C129.758 78.1987 129.934 77.09 130.322 76.8626C130.71 76.6352 131.482 76.9101 131.047 77.6667Z" fill="#FDD4C4"/>
<path d="M130.544 76.8382C130.91 76.9282 131.006 77.3327 130.959 77.5991C130.957 77.609 130.957 77.6189 130.96 77.6288C130.991 77.7734 131.01 77.9413 131.023 78.0766C131.03 78.1545 131.126 78.1772 131.164 78.1099L131.504 77.4999C131.517 77.4765 131.518 77.4489 131.508 77.4248C131.414 77.208 130.934 76.1765 130.503 76.7022C130.462 76.7504 130.485 76.8241 130.544 76.8382Z" fill="#B46551"/>
<path d="M131.035 77.4786C131.158 77.3327 131.384 77.4425 131.353 77.599C131.323 77.7556 130.928 78.073 130.869 78.0028C130.81 77.9327 130.955 77.5735 131.035 77.4786Z" fill="#FDD4C4"/>
<defs>
<linearGradient id="paint0_linear_40_6879" x1="74.709" y1="82.4671" x2="77.7868" y2="75.6464" gradientUnits="userSpaceOnUse">
<stop stop-color="white"/>
<stop offset="0.2951" stop-color="#FAF5F2"/>
<stop offset="0.8452" stop-color="#ECDACE"/>
<stop offset="1" stop-color="#E8D2C3"/>
</linearGradient>
<linearGradient id="paint1_linear_40_6879" x1="75.3835" y1="78.2186" x2="79.3099" y2="85.5456" gradientUnits="userSpaceOnUse">
<stop stop-color="white"/>
<stop offset="0.1757" stop-color="#FFF3EE"/>
<stop offset="0.4715" stop-color="#FFE3D7"/>
<stop offset="0.7522" stop-color="#FFD9CA"/>
<stop offset="1" stop-color="#FFD6C5"/>
</linearGradient>
<linearGradient id="paint2_linear_40_6879" x1="74.6273" y1="88.5828" x2="64.3689" y2="82.3435" gradientUnits="userSpaceOnUse">
<stop stop-color="white"/>
<stop offset="0.2992" stop-color="#F5F3F2"/>
<stop offset="0.8568" stop-color="#D9D2CE"/>
<stop offset="1" stop-color="#D1C9C4"/>
</linearGradient>
<linearGradient id="paint3_linear_40_6879" x1="47.131" y1="98.7192" x2="64.4039" y2="98.7192" gradientUnits="userSpaceOnUse">
<stop stop-color="#FFD633"/>
<stop offset="0.3974" stop-color="#FFC133"/>
<stop offset="1" stop-color="#FF9933"/>
</linearGradient>
<linearGradient id="paint4_linear_40_6879" x1="46.6505" y1="95.5269" x2="55.2234" y2="95.5269" gradientUnits="userSpaceOnUse">
<stop stop-color="#F9BAFF"/>
<stop offset="0.619" stop-color="#CE94F1"/>
<stop offset="1" stop-color="#B981EA"/>
</linearGradient>
<linearGradient id="paint5_linear_40_6879" x1="9.26301" y1="90.5835" x2="5.00629" y2="94.7857" gradientUnits="userSpaceOnUse">
<stop stop-color="#696969"/>
<stop offset="1" stop-color="#6B6B6B"/>
</linearGradient>
</defs>
</svg>
