<svg width="51" height="51" viewBox="0 0 51 51" fill="none" xmlns="http://www.w3.org/2000/svg">
<g filter="url(#filter0_d_40_4449)">
<circle cx="25.275" cy="25.275" r="22.275" fill="#5747A5"/>
</g>
<path d="M35.3528 16.5469L33.5168 37.1152L25.2637 39.4032L17.0334 37.1184L15.1992 16.5469H35.3528Z" fill="#E44D26"/>
<path d="M25.2773 37.652L31.9462 35.8032L33.5152 18.2266H25.2773V37.652Z" fill="#F16529"/>
<path d="M21.7065 23.273H25.2757V20.75H18.9492L19.0096 21.4269L19.6297 28.3796H25.2757V25.8566H21.9371L21.7065 23.273ZM22.2752 29.6412H19.7425L20.0959 33.6027L25.2641 35.0373L25.2757 35.0341V32.4091L25.2647 32.4121L22.4548 31.6534L22.2752 29.6412Z" fill="#EBEBEB"/>
<path d="M17.0762 10.957H18.3583V12.2238H19.5312V10.957H20.8135V14.7931H19.5313V13.5086H18.3584V14.7931H17.0763L17.0762 10.957ZM22.4995 12.2292H21.3709V10.957H24.9112V12.2292H23.7819V14.7931H22.4997V12.2292H22.4995ZM25.473 10.957H26.8099L27.6323 12.3049L28.4539 10.957H29.7914V14.7931H28.5144V12.8917L27.6323 14.2557H27.6102L26.7275 12.8917V14.7931H25.473V10.957ZM30.4295 10.957H31.712V13.5251H33.5151V14.7931H30.4294L30.4295 10.957Z" fill="white"/>
<path d="M25.2677 28.3796H28.3745L28.0815 31.6518L25.2676 32.4113V35.0361L30.4399 33.6027L30.4778 33.1764L31.0708 26.5341L31.1323 25.8566H25.2677V28.3796ZM25.2677 23.2668V23.273H31.3619L31.4125 22.7059L31.5275 21.4269L31.5878 20.75H25.2677V23.2668Z" fill="white"/>
<defs>
<filter id="filter0_d_40_4449" x="0.3" y="0.3" width="49.9508" height="49.9508" filterUnits="userSpaceOnUse" color-interpolation-filters="sRGB">
<feFlood flood-opacity="0" result="BackgroundImageFix"/>
<feColorMatrix in="SourceAlpha" type="matrix" values="0 0 0 0 0 0 0 0 0 0 0 0 0 0 0 0 0 0 127 0" result="hardAlpha"/>
<feOffset/>
<feGaussianBlur stdDeviation="1.35"/>
<feComposite in2="hardAlpha" operator="out"/>
<feColorMatrix type="matrix" values="0 0 0 0 0 0 0 0 0 0 0 0 0 0 0 0 0 0 0.25 0"/>
<feBlend mode="normal" in2="BackgroundImageFix" result="effect1_dropShadow_40_4449"/>
<feBlend mode="normal" in="SourceGraphic" in2="effect1_dropShadow_40_4449" result="shape"/>
</filter>
</defs>
</svg>
