<svg width="55" height="55" viewBox="0 0 55 55" fill="none" xmlns="http://www.w3.org/2000/svg">
<rect x="0.613281" y="0.652344" width="53.8877" height="53.8877" rx="26.9438" fill="white"/>
<path d="M40.3162 11.3047H14.1707C12.5656 11.3047 11.2656 12.6047 11.2656 14.2097V40.3552C11.2656 41.9603 12.5656 43.2603 14.1707 43.2603H40.3162C41.9212 43.2603 43.2212 41.9603 43.2212 40.3552V14.2097C43.2212 12.6047 41.9212 11.3047 40.3162 11.3047ZM21.3665 37.4502H17.0815V23.6628H21.3665V37.4502ZM19.1805 21.6917C17.7991 21.6917 16.6821 20.5718 16.6821 19.1934C16.6821 17.8149 17.8005 16.6965 19.1805 16.6965C20.5574 16.6965 21.6773 17.8164 21.6773 19.1934C21.6773 20.5718 20.5574 21.6917 19.1805 21.6917ZM37.4169 37.4502H33.1349V30.7453C33.1349 29.1461 33.1058 27.0893 30.9082 27.0893C28.6785 27.0893 28.3357 28.8309 28.3357 30.6291V37.4502H24.0537V23.6628H28.1643V25.5467H28.2224C28.7947 24.4631 30.1921 23.32 32.2764 23.32C36.6151 23.32 37.4169 26.1757 37.4169 29.8883V37.4502Z" fill="url(#paint0_linear_1_55822)"/>
<defs>
<linearGradient id="paint0_linear_1_55822" x1="27.2434" y1="11.3047" x2="27.2434" y2="43.2603" gradientUnits="userSpaceOnUse">
<stop stop-color="#FF88C3"/>
<stop offset="1" stop-color="#9B86FE"/>
</linearGradient>
</defs>
</svg>
