<svg width="216" height="204" viewBox="0 0 216 204" fill="none" xmlns="http://www.w3.org/2000/svg">
<g opacity="0.5">
<path d="M65.0385 167.455C56.1937 183.979 68.1657 204 86.9286 204H25.3108C6.56647 204 -5.424 183.997 3.42082 167.455L6.80702 161.108L80.0821 24.2539L86.0404 13.1146C95.3848 -4.37153 120.457 -4.37153 129.802 13.1146L138.721 29.7865L110.891 81.8008L68.4247 161.108L65.0385 167.455Z" fill="white"/>
<path d="M190.499 203.993H145.201C126.457 203.993 114.467 183.991 123.311 167.448L133.84 147.779L167.832 84.2734L212.352 167.448C221.234 183.991 209.243 203.993 190.499 203.993Z" fill="white"/>
<path d="M167.898 84.2622V84.2992L133.888 147.767C136.83 142.198 137.681 135.518 135.664 128.986C135.553 128.671 135.461 128.338 135.35 128.024C134.924 126.858 134.388 125.692 133.795 124.545L114.774 89.0177L110.906 81.7827L138.754 29.75L142.622 36.985L163.772 76.4721L167.898 84.2622Z" fill="#787878"/>
<path d="M190.499 203.993H145.201C126.457 203.993 114.467 183.991 123.311 167.448L133.84 147.779L167.832 84.2734L212.352 167.448C221.234 183.991 209.243 203.993 190.499 203.993Z" fill="white"/>
<path d="M190.499 203.993H145.201C126.457 203.993 114.467 183.991 123.311 167.448L133.84 147.779L167.832 84.2734L212.352 167.448C221.234 183.991 209.243 203.993 190.499 203.993Z" fill="white"/>
<g opacity="0.1">
<mask id="mask0_1_43988" style="mask-type:luminance" maskUnits="userSpaceOnUse" x="110" y="29" width="33" height="61">
<path d="M142.537 29.7969H110.84V89.0646H142.537V29.7969Z" fill="white"/>
</mask>
<g mask="url(#mask0_1_43988)">
<path d="M142.537 37.0134L114.689 89.0646L110.84 81.8296L138.67 29.7969L142.537 37.0134Z" fill="white"/>
</g>
</g>
<g opacity="0.1">
<mask id="mask1_1_43988" style="mask-type:luminance" maskUnits="userSpaceOnUse" x="133" y="76" width="35" height="72">
<path d="M167.858 76.457H133.848V147.734H167.858V76.457Z" fill="white"/>
</mask>
<g mask="url(#mask1_1_43988)">
<path d="M167.858 84.2169V84.2539L133.848 147.722C136.79 142.152 137.641 135.472 135.624 128.941L163.713 76.4453L167.858 84.2169Z" fill="white"/>
</g>
</g>
</g>
</svg>
