<svg width="27" height="28" viewBox="0 0 27 28" fill="none" xmlns="http://www.w3.org/2000/svg">
<g filter="url(#filter0_d_40_1367)">
<circle cx="13.3176" cy="11.7825" r="11.3176" fill="#8167FF"/>
</g>
<path d="M13.651 4.46484C12.1507 4.46661 10.7124 5.06338 9.65157 6.12422C8.59073 7.18507 7.99396 8.62338 7.99219 10.1236C7.9904 11.3497 8.39087 12.5424 9.13218 13.5189C9.13218 13.5189 9.28652 13.7221 9.31172 13.7515L13.651 18.8691L17.9923 13.7489C18.015 13.7216 18.1698 13.5189 18.1698 13.5189L18.1703 13.5174C18.9113 12.5413 19.3116 11.3491 19.3098 10.1236C19.308 8.62338 18.7113 7.18507 17.6504 6.12422C16.5896 5.06338 15.1513 4.46661 13.651 4.46484ZM13.651 12.1814C13.244 12.1814 12.8462 12.0607 12.5078 11.8346C12.1694 11.6085 11.9056 11.2871 11.7499 10.9111C11.5941 10.5351 11.5534 10.1214 11.6328 9.7222C11.7122 9.32304 11.9082 8.95638 12.1959 8.6686C12.4837 8.38082 12.8504 8.18484 13.2495 8.10544C13.6487 8.02604 14.0625 8.06679 14.4385 8.22254C14.8145 8.37828 15.1358 8.64203 15.3619 8.98042C15.5881 9.31882 15.7087 9.71666 15.7087 10.1236C15.7081 10.6692 15.491 11.1922 15.1053 11.5779C14.7195 11.9637 14.1965 12.1807 13.651 12.1814Z" fill="white"/>
<defs>
<filter id="filter0_d_40_1367" x="0" y="0.464844" width="26.6348" height="26.6367" filterUnits="userSpaceOnUse" color-interpolation-filters="sRGB">
<feFlood flood-opacity="0" result="BackgroundImageFix"/>
<feColorMatrix in="SourceAlpha" type="matrix" values="0 0 0 0 0 0 0 0 0 0 0 0 0 0 0 0 0 0 127 0" result="hardAlpha"/>
<feOffset dy="2"/>
<feGaussianBlur stdDeviation="1"/>
<feComposite in2="hardAlpha" operator="out"/>
<feColorMatrix type="matrix" values="0 0 0 0 0 0 0 0 0 0 0 0 0 0 0 0 0 0 0.25 0"/>
<feBlend mode="normal" in2="BackgroundImageFix" result="effect1_dropShadow_40_1367"/>
<feBlend mode="normal" in="SourceGraphic" in2="effect1_dropShadow_40_1367" result="shape"/>
</filter>
</defs>
</svg>
