<svg width="54" height="57" viewBox="0 0 54 57" fill="none" xmlns="http://www.w3.org/2000/svg">
<path d="M28.4416 41.8279C28.5691 41.324 28.5691 40.6942 28.5691 40.0644C28.5691 39.4345 28.5691 38.9306 28.4416 38.3008L32.0121 35.7814C32.3947 35.5295 32.5222 35.0256 32.2671 34.6477L28.8242 28.8532C28.5691 28.4753 28.1866 28.3493 27.804 28.4753L23.851 30.3648C22.9583 29.609 21.9382 29.1051 20.7905 28.6012L20.408 24.3183C20.408 23.9404 20.0254 23.5625 19.6429 23.5625H12.8845C12.5019 23.5625 12.1193 23.9404 12.1193 24.3183L11.6093 28.7272C10.4616 29.1051 9.56899 29.735 8.54885 30.4908L4.5958 28.7272C4.21325 28.6012 3.70318 28.7272 3.57566 29.1051L0.132685 34.8997C-0.122351 35.2776 0.00516661 35.7814 0.38772 36.0334L3.95821 38.5527C3.8307 39.0566 3.8307 39.6865 3.8307 40.3163C3.8307 40.9461 3.8307 41.45 3.95821 42.0799L0.38772 44.5992C0.00516661 44.8512 -0.122351 45.355 0.132685 45.7329L3.57566 51.5275C3.8307 51.9054 4.21325 52.0314 4.5958 51.9054L8.54885 50.1418C9.44147 50.8976 10.4616 51.4015 11.6093 51.9054L11.9918 56.1883C11.9918 56.5662 12.3744 56.9441 12.7569 56.9441H19.5154C19.8979 56.9441 20.2805 56.5662 20.2805 56.1883L20.663 51.9054C21.8107 51.5275 22.7033 50.8976 23.7235 50.1418L27.6765 51.9054C28.0591 52.0314 28.5691 51.9054 28.6966 51.5275L32.1396 45.7329C32.3947 45.355 32.2671 44.8512 31.8846 44.5992L28.4416 41.8279ZM16.1999 46.3628C12.6294 46.3628 9.82403 43.5915 9.82403 40.0644C9.82403 36.5372 12.6294 33.7659 16.1999 33.7659C19.7704 33.7659 22.5758 36.5372 22.5758 40.0644C22.5758 43.5915 19.7704 46.3628 16.1999 46.3628Z" fill="url(#paint0_linear_1_41857)"/>
<path d="M49.9038 17.4108C50.0358 16.7563 50.0358 16.2326 50.0358 15.709C50.0358 15.1854 50.0358 14.6617 49.9038 14.0072L53.2029 11.6508C53.5988 11.389 53.5988 10.9963 53.4668 10.6036L50.1677 4.97452C49.9038 4.58179 49.5079 4.45088 49.112 4.7127L45.2851 6.41451C44.3614 5.75997 43.4376 5.23633 42.3819 4.7127L41.986 0.654542C42.118 0.261817 41.854 0 41.4582 0H34.9919C34.5961 0 34.2002 0.261817 34.2002 0.654542L33.8043 4.7127C32.7486 5.10543 31.8248 5.62906 30.9011 6.41451L27.0741 4.7127C26.6782 4.58179 26.2824 4.7127 26.0184 4.97452L22.7193 10.6036C22.4554 10.9963 22.5874 11.389 22.9833 11.6508L26.2824 14.0072V15.709C26.2824 16.2326 26.2824 16.7563 26.4143 17.4108L23.1152 19.7672C22.7193 20.029 22.7193 20.4217 22.8513 20.8144L26.1504 26.4435C26.4143 26.8362 26.8102 26.9671 27.2061 26.7053L31.033 25.0035C31.9568 25.658 32.8805 26.1817 33.9362 26.7053L34.3321 30.7635C34.3321 31.1562 34.728 31.418 35.1239 31.418H41.5901C41.986 31.418 42.3819 31.1562 42.3819 30.7635L42.7778 26.7053C43.8335 26.3126 44.7572 25.7889 45.681 25.0035L49.5079 26.7053C49.9038 26.8362 50.2997 26.7053 50.5636 26.4435L53.8627 20.8144C54.1267 20.4217 53.9947 20.029 53.5988 19.7672L49.9038 17.4108ZM38.1591 22.2544C34.4641 22.2544 31.5609 19.3744 31.5609 15.709C31.5609 12.0436 34.4641 9.16358 38.1591 9.16358C41.854 9.16358 44.7572 12.0436 44.7572 15.709C44.7572 19.3744 41.854 22.2544 38.1591 22.2544Z" fill="url(#paint1_linear_1_41857)"/>
<defs>
<linearGradient id="paint0_linear_1_41857" x1="16.1999" y1="23.5625" x2="16.1999" y2="56.9441" gradientUnits="userSpaceOnUse">
<stop stop-color="#FF88C3"/>
<stop offset="1" stop-color="#9B86FE"/>
</linearGradient>
<linearGradient id="paint1_linear_1_41857" x1="38.291" y1="0" x2="38.291" y2="31.418" gradientUnits="userSpaceOnUse">
<stop stop-color="#FF88C3"/>
<stop offset="1" stop-color="#9B86FE"/>
</linearGradient>
</defs>
</svg>
