<svg width="240" height="55" viewBox="0 0 240 55" fill="none" xmlns="http://www.w3.org/2000/svg">
<path d="M167.76 38.9909C165.429 36.4537 164.266 33.3409 164.266 29.65C164.266 25.9616 165.429 22.8387 167.76 20.2788C170.087 17.7214 173.046 16.4414 176.636 16.4414C179.933 16.4414 182.65 17.479 184.785 19.5517V17.1786H193.379V42.0709H184.886V39.2535H184.785C182.65 41.6165 179.933 42.798 176.636 42.798C173.046 42.798 170.087 41.5307 167.76 38.9909ZM175.061 25.4289C173.942 26.5271 173.384 27.9333 173.384 29.65C173.384 31.3617 173.915 32.7578 174.98 33.8408C176.05 34.9264 177.459 35.4666 179.211 35.4666C180.892 35.4666 182.276 34.9188 183.362 33.8206C184.445 32.7249 184.987 31.3339 184.987 29.65C184.987 27.9333 184.427 26.5271 183.311 25.4289C182.193 24.3257 180.827 23.7728 179.211 23.7728C177.56 23.7728 176.177 24.3257 175.061 25.4289Z" fill="white"/>
<path d="M208.325 23.4799C206.71 23.4799 205.319 24.0808 204.155 25.2774C202.988 26.4766 202.408 27.9181 202.408 29.5995C202.408 31.3162 202.988 32.7754 204.155 33.9721C205.319 35.1637 206.71 35.7595 208.325 35.7595C209.106 35.7595 209.843 35.6661 210.537 35.4767C211.229 35.2823 211.739 35.0879 212.062 34.891L212.506 34.5982L215.414 40.5663C215.185 40.7278 214.869 40.9298 214.465 41.1722C214.061 41.4145 213.137 41.7453 211.698 42.1618C210.264 42.5859 208.719 42.798 207.063 42.798C203.408 42.798 200.196 41.513 197.429 38.9404C194.667 36.3704 193.289 33.2854 193.289 29.6904C193.289 26.0701 194.667 22.9548 197.429 20.3495C200.196 17.7441 203.408 16.4414 207.063 16.4414C208.719 16.4414 210.239 16.6383 211.628 17.0271C213.021 17.4184 214.006 17.8047 214.586 18.1884L215.414 18.7741L212.506 24.6513C211.436 23.8712 210.042 23.4799 208.325 23.4799Z" fill="white"/>
<path d="M239.961 30.8113H221.905C221.905 32.5634 222.471 33.8585 223.602 34.6992C224.733 35.5348 225.96 35.9513 227.288 35.9513C228.681 35.9513 229.782 35.7671 230.59 35.3959C231.398 35.0274 232.319 34.2927 233.357 33.1945L239.567 36.2947C236.982 40.6319 232.68 42.798 226.662 42.798C222.905 42.798 219.684 41.513 216.998 38.9404C214.317 36.3704 212.979 33.2728 212.979 29.65C212.979 26.0222 214.317 22.9144 216.998 20.3293C219.684 17.739 222.905 16.4414 226.662 16.4414C230.605 16.4414 233.814 17.5825 236.285 19.8647C238.762 22.147 240.002 25.4087 240.002 29.65C240.002 30.2307 239.986 30.6169 239.961 30.8113ZM222.148 26.055H231.61C231.413 24.7624 230.903 23.7703 230.075 23.076C229.252 22.3767 228.197 22.0258 226.904 22.0258C225.475 22.0258 224.342 22.3994 223.501 23.1467C222.658 23.8889 222.208 24.8584 222.148 26.055Z" fill="white"/>
<path d="M56.8376 39.1121C54.0757 36.6557 52.6973 33.5025 52.6973 29.65C52.6973 25.8 54.1338 22.6367 57.0092 20.1576C59.8898 17.681 63.452 16.4414 67.6933 16.4414C71.8664 16.4414 75.3831 17.6911 78.246 20.1879C81.1063 22.6796 82.5378 25.8328 82.5378 29.65C82.5378 33.4672 81.1366 36.6153 78.3369 39.0919C75.5422 41.5635 71.9951 42.798 67.6933 42.798C63.2222 42.798 59.6045 41.5711 56.8376 39.1121ZM63.4924 25.4289C62.374 26.5271 61.816 27.9333 61.816 29.65C61.816 31.3617 62.3462 32.7578 63.4116 33.8408C64.482 34.9264 65.8907 35.4666 67.6428 35.4666C69.3241 35.4666 70.7076 34.9188 71.7932 33.8206C72.8762 32.7249 73.419 31.3339 73.419 29.65C73.419 27.9333 72.8585 26.5271 71.7427 25.4289C70.6243 24.3257 69.2585 23.7728 67.6428 23.7728C65.9917 23.7728 64.6082 24.3257 63.4924 25.4289Z" fill="white"/>
<path d="M108.065 20.2586C110.393 22.7983 111.559 25.9111 111.559 29.5995C111.559 33.2904 110.393 36.4133 108.065 38.9707C105.735 41.5231 102.774 42.798 99.1785 42.798C95.8789 42.798 93.1625 41.7655 91.0292 39.6978V54.6938H82.4355V17.1786H90.9282V19.9859H91.0292C93.1625 17.6229 95.8789 16.4414 99.1785 16.4414C102.774 16.4414 105.735 17.7138 108.065 20.2586ZM100.754 33.8206C101.87 32.7249 102.43 31.3162 102.43 29.5995C102.43 27.8828 101.895 26.4842 100.825 25.3986C99.7592 24.3156 98.3555 23.7728 96.6136 23.7728C94.9297 23.7728 93.5462 24.3257 92.4632 25.4289C91.3776 26.5271 90.8373 27.9181 90.8373 29.5995C90.8373 31.3162 91.3927 32.7249 92.5036 33.8206C93.6194 34.9188 94.9903 35.4666 96.6136 35.4666C98.2621 35.4666 99.6431 34.9188 100.754 33.8206Z" fill="white"/>
<path d="M136.655 30.8113H118.599C118.599 32.5634 119.164 33.8585 120.295 34.6992C121.426 35.5348 122.653 35.9513 123.981 35.9513C125.375 35.9513 126.475 35.7671 127.283 35.3959C128.091 35.0274 129.013 34.2927 130.05 33.1945L136.261 36.2947C133.676 40.6319 129.374 42.798 123.355 42.798C119.599 42.798 116.377 41.513 113.691 38.9404C111.01 36.3704 109.672 33.2728 109.672 29.65C109.672 26.0222 111.01 22.9144 113.691 20.3293C116.377 17.739 119.599 16.4414 123.355 16.4414C127.298 16.4414 130.507 17.5825 132.979 19.8647C135.455 22.147 136.695 25.4087 136.695 29.65C136.695 30.2307 136.68 30.6169 136.655 30.8113ZM118.841 26.055H128.303C128.106 24.7624 127.596 23.7703 126.768 23.076C125.945 22.3767 124.89 22.0258 123.597 22.0258C122.169 22.0258 121.035 22.3994 120.194 23.1467C119.351 23.8889 118.902 24.8584 118.841 26.055Z" fill="white"/>
<path d="M136.598 42.0709V17.1786H145.191V19.794H145.292C147.519 17.5598 149.897 16.4414 152.422 16.4414C153.654 16.4414 154.876 16.608 156.087 16.9362C157.299 17.2594 158.463 17.7618 159.581 18.4409C160.697 19.1149 161.604 20.0743 162.298 21.3189C162.99 22.566 163.338 24.0151 163.338 25.6713V42.0709H154.754V27.9939C154.754 26.7013 154.34 25.5703 153.512 24.6008C152.689 23.6314 151.616 23.1467 150.291 23.1467C148.991 23.1467 147.817 23.6491 146.767 24.6513C145.716 25.6561 145.191 26.7695 145.191 27.9939V42.0709H136.598Z" fill="white"/>
<path d="M14.5787 37.7991C12.5822 41.529 15.2846 46.0483 19.5198 46.0483H5.61106C1.37995 46.0483 -1.32663 41.5332 0.669889 37.7991L1.43425 36.3665L17.9744 5.47476L19.3193 2.96032C21.4286 -0.986772 27.0882 -0.986772 29.1975 2.96032L31.2107 6.72362L24.9288 18.4646L15.343 36.3665L14.5787 37.7991Z" fill="white"/>
<path d="M42.8964 46.0474H32.6716C28.4405 46.0474 25.7339 41.5323 27.7304 37.7982L30.107 33.3583L37.7798 19.0234L47.8293 37.7982C49.8341 41.5323 47.1275 46.0474 42.8964 46.0474Z" fill="white"/>
<path d="M37.7982 19.0197V19.0281L30.1212 33.3545C30.7853 32.0973 30.9774 30.5895 30.5222 29.1151C30.4971 29.0441 30.4762 28.9689 30.4512 28.8979C30.3551 28.6347 30.234 28.3716 30.1003 28.1126L25.8065 20.0932L24.9336 18.46L31.2197 6.71484L32.0926 8.34798L36.8667 17.2613L37.7982 19.0197Z" fill="#787878"/>
<path d="M42.8964 46.0474H32.6716C28.4405 46.0474 25.7339 41.5323 27.7304 37.7982L30.107 33.3583L37.7798 19.0234L47.8293 37.7982C49.8341 41.5323 47.1275 46.0474 42.8964 46.0474Z" fill="white"/>
<path d="M42.8964 46.0474H32.6716C28.4405 46.0474 25.7339 41.5323 27.7304 37.7982L30.107 33.3583L37.7798 19.0234L47.8293 37.7982C49.8341 41.5323 47.1275 46.0474 42.8964 46.0474Z" fill="white"/>
<g opacity="0.1">
<mask id="mask0_40_11499" style="mask-type:luminance" maskUnits="userSpaceOnUse" x="24" y="6" width="9" height="15">
<path d="M32.0709 6.72656H24.916V20.1049H32.0709V6.72656Z" fill="white"/>
</mask>
<g mask="url(#mask0_40_11499)">
<path d="M32.0709 8.35552L25.7848 20.1049L24.916 18.4718L31.1979 6.72656L32.0709 8.35552Z" fill="white"/>
</g>
</g>
<g opacity="0.1">
<mask id="mask1_40_11499" style="mask-type:luminance" maskUnits="userSpaceOnUse" x="30" y="17" width="8" height="17">
<path d="M37.7903 17.2578H30.1133V33.3469H37.7903V17.2578Z" fill="white"/>
</mask>
<g mask="url(#mask1_40_11499)">
<path d="M37.7903 19.0082V19.0165L30.1133 33.343C30.7774 32.0858 30.9695 30.5779 30.5143 29.1035L36.8547 17.2539L37.7903 19.0082Z" fill="white"/>
</g>
</g>
</svg>
