<svg width="54" height="53" viewBox="0 0 54 53" fill="none" xmlns="http://www.w3.org/2000/svg">
<path d="M51 0.0771713L53.9228 3L51 5.92284L48.0772 3L51 0.0771713ZM2.99999 53L0.0771601 47.9375L5.92283 47.9375L2.99999 53ZM5.98799 26.2557L5.98799 25.7495L5.98799 26.2557ZM48.0188 26.2557L48.0188 25.7495L48.0188 26.2557ZM2.49374 44.0959L2.49374 38.1598L3.50625 38.1598L3.50625 44.0959L2.49374 44.0959ZM2.49374 32.2237L2.49374 29.2557L3.50625 29.2557L3.50625 32.2237L2.49374 32.2237ZM2.49374 29.2557C2.49374 28.7825 2.58705 28.3298 2.75699 27.9163L3.69348 28.3012C3.57298 28.5944 3.50625 28.9165 3.50625 29.2557L2.49374 29.2557ZM4.64728 26.0158C5.06052 25.844 5.51358 25.7495 5.98799 25.7495L5.98799 26.762C5.64903 26.762 5.32796 26.8293 5.03606 26.9507L4.64728 26.0158ZM5.98799 25.7495C7.02593 25.7495 8.20155 25.7495 9.48485 25.7495L9.48485 26.762C8.20155 26.762 7.02593 26.762 5.98799 26.762L5.98799 25.7495ZM16.4916 25.7495C18.7354 25.7495 21.1016 25.7495 23.5001 25.7495L23.5001 26.762C21.1016 26.762 18.7354 26.762 16.4916 26.762L16.4916 25.7495ZM30.507 25.7495C32.9331 25.7495 35.3013 25.7495 37.5158 25.7495L37.5158 26.762C35.3013 26.762 32.9331 26.762 30.507 26.762L30.507 25.7495ZM44.523 25.7495C45.8657 25.7495 47.0462 25.7495 48.0188 25.7495L48.0188 26.762C47.0462 26.762 45.8657 26.762 44.523 26.762L44.523 25.7495ZM48.0188 25.7495C48.3577 25.7495 48.6782 25.6821 48.9693 25.5609L49.3587 26.4955C48.9459 26.6675 48.4932 26.762 48.0188 26.762L48.0188 25.7495ZM50.3075 24.2102C50.4274 23.9171 50.4938 23.595 50.4938 23.2557L51.5063 23.2557C51.5063 23.7282 51.4136 24.1803 51.2447 24.5934L50.3075 24.2102ZM50.4938 23.2557L50.4938 20.7237L51.5063 20.7237L51.5063 23.2557L50.4938 23.2557ZM50.4938 15.6598L50.4938 10.5959L51.5063 10.5959L51.5063 15.6598L50.4938 15.6598ZM50.4938 5.53197L50.4938 3L51.5063 3L51.5063 5.53197L50.4938 5.53197Z" fill="url(#paint0_linear_40_5429)"/>
<defs>
<linearGradient id="paint0_linear_40_5429" x1="51" y1="14.6282" x2="-45" y2="14.6282" gradientUnits="userSpaceOnUse">
<stop stop-color="#39863D"/>
<stop offset="1" stop-color="#063771"/>
</linearGradient>
</defs>
</svg>
