<svg width="31" height="32" viewBox="0 0 31 32" fill="none" xmlns="http://www.w3.org/2000/svg">
<rect x="0.6875" y="0.90625" width="30.1995" height="30.1995" rx="4.87089" fill="black"/>
<mask id="mask0_40_928" style="mask-type:alpha" maskUnits="userSpaceOnUse" x="7" y="6" width="19" height="20">
<path d="M16.7433 20.3374C16.7847 20.1737 16.7847 19.9692 16.7847 19.7647C16.7847 19.5602 16.7847 19.3966 16.7433 19.192L17.9027 18.374C18.0269 18.2921 18.0683 18.1285 17.9855 18.0058L16.8675 16.1242C16.7847 16.0015 16.6605 15.9606 16.5363 16.0015L15.2526 16.6151C14.9628 16.3696 14.6315 16.206 14.2589 16.0424L14.1346 14.6517C14.1346 14.529 14.0104 14.4062 13.8862 14.4062H11.6916C11.5674 14.4062 11.4432 14.529 11.4432 14.6517L11.2775 16.0833C10.9049 16.206 10.615 16.4106 10.2838 16.656L9.00015 16.0833C8.87593 16.0424 8.7103 16.0833 8.66889 16.206L7.5509 18.0876C7.46808 18.2103 7.50949 18.374 7.63371 18.4558L8.79311 19.2738C8.75171 19.4375 8.75171 19.642 8.75171 19.8465C8.75171 20.051 8.75171 20.2146 8.79311 20.4192L7.63371 21.2372C7.50949 21.3191 7.46808 21.4827 7.5509 21.6054L8.66889 23.487C8.75171 23.6097 8.87593 23.6506 9.00015 23.6097L10.2838 23.037C10.5736 23.2825 10.9049 23.4461 11.2775 23.6097L11.4018 25.0004C11.4018 25.1231 11.526 25.2459 11.6502 25.2459H13.8448C13.969 25.2459 14.0932 25.1231 14.0932 25.0004L14.2175 23.6097C14.5901 23.487 14.88 23.2825 15.2112 23.037L16.4949 23.6097C16.6191 23.6506 16.7847 23.6097 16.8261 23.487L17.9441 21.6054C18.0269 21.4827 17.9855 21.3191 17.8613 21.2372L16.7433 20.3374ZM12.7682 21.8099C11.6088 21.8099 10.6978 20.91 10.6978 19.7647C10.6978 18.6194 11.6088 17.7195 12.7682 17.7195C13.9276 17.7195 14.8386 18.6194 14.8386 19.7647C14.8386 20.91 13.9276 21.8099 12.7682 21.8099Z" fill="#232323"/>
<path d="M23.7156 12.4036C23.7585 12.1911 23.7585 12.021 23.7585 11.851C23.7585 11.681 23.7585 11.5109 23.7156 11.2984L24.7869 10.5332C24.9154 10.4482 24.9154 10.3207 24.8726 10.1932L23.8013 8.36531C23.7156 8.23779 23.5871 8.19528 23.4585 8.2803L22.2158 8.8329C21.9159 8.62036 21.6159 8.45033 21.2731 8.2803L21.1446 6.96254C21.1874 6.83502 21.1017 6.75 20.9732 6.75H18.8735C18.7449 6.75 18.6164 6.83502 18.6164 6.96254L18.4878 8.2803C18.145 8.40782 17.845 8.57785 17.5451 8.8329L16.3024 8.2803C16.1739 8.23779 16.0453 8.2803 15.9596 8.36531L14.8883 10.1932C14.8026 10.3207 14.8455 10.4482 14.974 10.5332L16.0453 11.2984V11.851C16.0453 12.021 16.0453 12.1911 16.0882 12.4036L15.0169 13.1687C14.8883 13.2538 14.8883 13.3813 14.9312 13.5088L16.0025 15.3367C16.0882 15.4642 16.2167 15.5067 16.3453 15.4217L17.5879 14.8691C17.8879 15.0816 18.1879 15.2516 18.5307 15.4217L18.6592 16.7394C18.6592 16.867 18.7878 16.952 18.9163 16.952H21.016C21.1446 16.952 21.2731 16.867 21.2731 16.7394L21.4017 15.4217C21.7445 15.2942 22.0444 15.1241 22.3444 14.8691L23.5871 15.4217C23.7156 15.4642 23.8442 15.4217 23.9299 15.3367L25.0011 13.5088C25.0868 13.3813 25.044 13.2538 24.9154 13.1687L23.7156 12.4036ZM19.9019 13.9764C18.7021 13.9764 17.7593 13.0412 17.7593 11.851C17.7593 10.6608 18.7021 9.72558 19.9019 9.72558C21.1017 9.72558 22.0444 10.6608 22.0444 11.851C22.0444 13.0412 21.1017 13.9764 19.9019 13.9764Z" fill="#232323"/>
</mask>
<g mask="url(#mask0_40_928)">
<rect x="5.42188" y="5.5" width="20.8746" height="21.2921" fill="#6ADBD6"/>
</g>
</svg>
