<svg width="19" height="19" viewBox="0 0 19 19" fill="none" xmlns="http://www.w3.org/2000/svg">
<path d="M15.932 9.88548C16.001 9.61277 16.001 9.2719 16.001 8.93102C16.001 8.59014 16.001 8.31744 15.932 7.97656L17.8644 6.61304C18.0715 6.47669 18.1405 6.20399 18.0024 5.99946L16.1391 2.86338C16.001 2.65885 15.794 2.59068 15.587 2.65885L13.4475 3.68149C12.9644 3.27243 12.4123 2.99973 11.7912 2.72703L11.5841 0.409054C11.5841 0.204527 11.3771 0 11.17 0H7.51229C7.30525 0 7.09821 0.204527 7.09821 0.409054L6.82215 2.7952C6.20102 2.99973 5.71792 3.34061 5.16581 3.74966L3.02637 2.7952C2.81933 2.72703 2.54327 2.7952 2.47426 2.99973L0.610873 6.13581C0.472845 6.34034 0.541859 6.61304 0.748901 6.74939L2.6813 8.11291C2.61228 8.38561 2.61228 8.72649 2.61228 9.06737C2.61228 9.40825 2.61228 9.68095 2.6813 10.0218L0.748901 11.3853C0.541859 11.5217 0.472845 11.7944 0.610873 11.9989L2.47426 15.135C2.61228 15.3395 2.81933 15.4077 3.02637 15.3395L5.16581 14.3851C5.64891 14.7941 6.20102 15.0668 6.82215 15.3395L7.02919 17.6575C7.02919 17.862 7.23623 18.0666 7.44328 18.0666H11.101C11.3081 18.0666 11.5151 17.862 11.5151 17.6575L11.7222 15.3395C12.3433 15.135 12.8264 14.7941 13.3785 14.3851L15.5179 15.3395C15.725 15.4077 16.001 15.3395 16.07 15.135L17.9334 11.9989C18.0715 11.7944 18.0024 11.5217 17.7954 11.3853L15.932 9.88548ZM9.30666 12.3398C7.37426 12.3398 5.85595 10.8399 5.85595 8.93102C5.85595 7.0221 7.37426 5.52223 9.30666 5.52223C11.2391 5.52223 12.7574 7.0221 12.7574 8.93102C12.7574 10.8399 11.2391 12.3398 9.30666 12.3398Z" fill="#6ADBD6"/>
</svg>
