<svg width="385" height="88" viewBox="0 0 385 88" fill="none" xmlns="http://www.w3.org/2000/svg">
<path d="M269.109 62.5476C265.371 58.4776 263.504 53.4842 263.504 47.5634C263.504 41.6467 265.371 36.6371 269.109 32.5307C272.843 28.4282 277.589 26.375 283.348 26.375C288.637 26.375 292.994 28.0395 296.42 31.3643V27.5575H310.206V67.4883H296.582V62.9688H296.42C292.994 66.7593 288.637 68.6546 283.348 68.6546C277.589 68.6546 272.843 66.6217 269.109 62.5476ZM280.821 40.7922C279.027 42.5538 278.132 44.8096 278.132 47.5634C278.132 50.3092 278.982 52.5487 280.691 54.286C282.408 56.0274 284.668 56.8941 287.479 56.8941C290.176 56.8941 292.395 56.0153 294.136 54.2536C295.874 52.496 296.744 50.2646 296.744 47.5634C296.744 44.8096 295.845 42.5538 294.055 40.7922C292.261 39.0224 290.07 38.1355 287.479 38.1355C284.83 38.1355 282.611 39.0224 280.821 40.7922Z" fill="white"/>
<path d="M334.179 37.6658C331.587 37.6658 329.356 38.6296 327.489 40.5492C325.618 42.4729 324.686 44.7853 324.686 47.4824C324.686 50.2363 325.618 52.577 327.489 54.4966C329.356 56.4081 331.587 57.3639 334.179 57.3639C335.43 57.3639 336.613 57.214 337.727 56.9103C338.836 56.5985 339.654 56.2866 340.173 55.9707L340.885 55.501L345.551 65.0746C345.182 65.3338 344.676 65.6578 344.028 66.0466C343.38 66.4354 341.898 66.9659 339.59 67.6341C337.289 68.3145 334.811 68.6546 332.154 68.6546C326.29 68.6546 321.139 66.5933 316.7 62.4666C312.27 58.3439 310.059 53.3951 310.059 47.6282C310.059 41.8208 312.27 36.8234 316.7 32.644C321.139 28.4647 326.29 26.375 332.154 26.375C334.811 26.375 337.249 26.6909 339.476 27.3145C341.712 27.9423 343.291 28.5619 344.222 29.1774L345.551 30.117L340.885 39.5449C339.168 38.2935 336.933 37.6658 334.179 37.6658Z" fill="white"/>
<path d="M384.929 49.4263H355.965C355.965 52.2369 356.872 54.3144 358.686 55.663C360.5 57.0034 362.468 57.6717 364.599 57.6717C366.834 57.6717 368.6 57.376 369.896 56.7807C371.192 56.1894 372.67 55.011 374.334 53.2493L384.297 58.2224C380.15 65.1799 373.249 68.6546 363.594 68.6546C357.568 68.6546 352.401 66.5933 348.092 62.4666C343.791 58.3439 341.645 53.3748 341.645 47.5634C341.645 41.7439 343.791 36.7586 348.092 32.6117C352.401 28.4566 357.568 26.375 363.594 26.375C369.92 26.375 375.067 28.2055 379.032 31.8665C383.005 35.5275 384.993 40.7598 384.993 47.5634C384.993 48.4949 384.969 49.1145 384.929 49.4263ZM356.353 41.7965H371.532C371.216 39.7231 370.398 38.1315 369.07 37.0178C367.749 35.896 366.057 35.3331 363.983 35.3331C361.691 35.3331 359.873 35.9325 358.524 37.1312C357.171 38.3218 356.451 39.8769 356.353 41.7965Z" fill="white"/>
<path d="M91.1768 62.742C86.7463 58.8015 84.5352 53.7434 84.5352 47.5634C84.5352 41.3875 86.8395 36.3131 91.4522 32.3363C96.073 28.3634 101.787 26.375 108.591 26.375C115.285 26.375 120.926 28.3796 125.519 32.3849C130.107 36.382 132.403 41.4402 132.403 47.5634C132.403 53.6867 130.156 58.7367 125.665 62.7096C121.182 66.6743 115.492 68.6546 108.591 68.6546C101.419 68.6546 95.6153 66.6864 91.1768 62.742ZM101.852 40.7922C100.058 42.5538 99.1629 44.8096 99.1629 47.5634C99.1629 50.3092 100.013 52.5487 101.722 54.286C103.44 56.0274 105.699 56.8941 108.51 56.8941C111.207 56.8941 113.426 56.0153 115.168 54.2536C116.905 52.496 117.776 50.2646 117.776 47.5634C117.776 44.8096 116.877 42.5538 115.087 40.7922C113.293 39.0224 111.102 38.1355 108.51 38.1355C105.861 38.1355 103.642 39.0224 101.852 40.7922Z" fill="white"/>
<path d="M173.352 32.4983C177.085 36.5723 178.956 41.5657 178.956 47.4824C178.956 53.4032 177.085 58.4128 173.352 62.5152C169.614 66.6095 164.863 68.6546 159.096 68.6546C153.803 68.6546 149.446 66.9983 146.024 63.6815V87.7372H132.238V27.5575H145.862V32.0609H146.024C149.446 28.2703 153.803 26.375 159.096 26.375C164.863 26.375 169.614 28.4161 173.352 32.4983ZM161.623 54.2536C163.413 52.496 164.312 50.2363 164.312 47.4824C164.312 44.7286 163.454 42.485 161.737 40.7436C160.028 39.0062 157.776 38.1355 154.982 38.1355C152.281 38.1355 150.061 39.0224 148.324 40.7922C146.583 42.5538 145.716 44.7853 145.716 47.4824C145.716 50.2363 146.607 52.496 148.389 54.2536C150.179 56.0153 152.378 56.8941 154.982 56.8941C157.626 56.8941 159.842 56.0153 161.623 54.2536Z" fill="white"/>
<path d="M219.214 49.4263H190.25C190.25 52.2369 191.157 54.3144 192.971 55.663C194.785 57.0034 196.754 57.6717 198.884 57.6717C201.119 57.6717 202.885 57.376 204.181 56.7807C205.477 56.1894 206.955 55.011 208.619 53.2493L218.582 58.2224C214.435 65.1799 207.534 68.6546 197.879 68.6546C191.853 68.6546 186.686 66.5933 182.377 62.4666C178.076 58.3439 175.93 53.3748 175.93 47.5634C175.93 41.7439 178.076 36.7586 182.377 32.6117C186.686 28.4566 191.853 26.375 197.879 26.375C204.205 26.375 209.352 28.2055 213.317 31.8665C217.29 35.5275 219.278 40.7598 219.278 47.5634C219.278 48.4949 219.254 49.1145 219.214 49.4263ZM190.638 41.7965H205.817C205.501 39.7231 204.683 38.1315 203.355 37.0178C202.035 35.896 200.342 35.3331 198.268 35.3331C195.976 35.3331 194.158 35.9325 192.809 37.1312C191.457 38.3218 190.736 39.8769 190.638 41.7965Z" fill="white"/>
<path d="M219.121 67.4883V27.5575H232.907V31.7531H233.069C236.64 28.169 240.455 26.375 244.505 26.375C246.481 26.375 248.441 26.6423 250.385 27.1688C252.329 27.6871 254.196 28.493 255.99 29.5824C257.78 30.6637 259.234 32.2026 260.348 34.1992C261.457 36.1998 262.016 38.5243 262.016 41.181V67.4883H248.247V44.9068C248.247 42.8333 247.583 41.019 246.255 39.4639C244.934 37.9088 243.213 37.1312 241.087 37.1312C239.001 37.1312 237.118 37.9371 235.434 39.5449C233.749 41.1567 232.907 42.9426 232.907 44.9068V67.4883H219.121Z" fill="white"/>
<path d="M23.3862 60.635C20.1835 66.6183 24.5185 73.8679 31.3125 73.8679H9.00091C2.21363 73.8679 -2.12809 66.625 1.0746 60.635L2.30073 58.3368L28.8335 8.78227L30.9909 4.74876C34.3745 -1.58292 43.4533 -1.58292 46.8369 4.74876L50.0663 10.7856L39.9893 29.6198L24.6123 58.3368L23.3862 60.635Z" fill="white"/>
<path d="M68.8131 73.8658H52.4111C45.6238 73.8658 41.2821 66.6229 44.4848 60.633L48.2972 53.5107L60.6054 30.5156L76.726 60.633C79.9421 66.6229 75.6004 73.8658 68.8131 73.8658Z" fill="white"/>
<path d="M60.6327 30.5122V30.5256L48.3177 53.5072C49.3831 51.4905 49.6913 49.0717 48.9609 46.7065C48.9207 46.5926 48.8872 46.472 48.847 46.3581C48.6929 45.936 48.4986 45.5139 48.2842 45.0985L41.3964 32.2341L39.9961 29.6144L50.0799 10.7734L51.4802 13.3932L59.1385 27.6914L60.6327 30.5122Z" fill="#787878"/>
<path d="M68.8131 73.8658H52.4111C45.6238 73.8658 41.2821 66.6229 44.4848 60.633L48.2972 53.5107L60.6054 30.5156L76.726 60.633C79.9421 66.6229 75.6004 73.8658 68.8131 73.8658Z" fill="white"/>
<path d="M68.8131 73.8658H52.4111C45.6238 73.8658 41.2821 66.6229 44.4848 60.633L48.2972 53.5107L60.6054 30.5156L76.726 60.633C79.9421 66.6229 75.6004 73.8658 68.8131 73.8658Z" fill="white"/>
<g opacity="0.1">
<mask id="mask0_1_43931" style="mask-type:luminance" maskUnits="userSpaceOnUse" x="39" y="10" width="13" height="23">
<path d="M51.4462 10.7891H39.9688V32.2498H51.4462V10.7891Z" fill="white"/>
</mask>
<g mask="url(#mask0_1_43931)">
<path d="M51.4462 13.4021L41.3624 32.2498L39.9688 29.63L50.0458 10.7891L51.4462 13.4021Z" fill="white"/>
</g>
</g>
<g opacity="0.1">
<mask id="mask1_1_43931" style="mask-type:luminance" maskUnits="userSpaceOnUse" x="48" y="27" width="13" height="27">
<path d="M60.6235 27.6875H48.3086V53.4966H60.6235V27.6875Z" fill="white"/>
</mask>
<g mask="url(#mask1_1_43931)">
<path d="M60.6235 30.4977V30.5111L48.3086 53.4927C49.3739 51.476 49.6821 49.0572 48.9518 46.692L59.1227 27.6836L60.6235 30.4977Z" fill="white"/>
</g>
</g>
</svg>
